<?xml version="1.0" encoding="UTF-8"?>
<svg id="Layer_1" data-name="Layer 1" xmlns="http://www.w3.org/2000/svg" viewBox="0 0 1033.4 946.8">
  <defs>
    <style>
      .cls-1 {
        fill: #2e35a9;
        stroke: #2e35a9;
        stroke-miterlimit: 10;
        stroke-width: 4px;
      }
    </style>
  </defs>
  <path class="cls-1" d="M1020.4,834.2h-14.8v-27.4c0-17.1-13.9-31-31-31h-16l53.7-231.4c4.7-21.3-.9-52.3-12.8-70.6l-176.9-269.5c-6.8-10.5-17.4-17.9-29.2-20.2-10.8-2.1-21.7,.1-30.6,6.3-18.5,13-25.4,40.5-15.7,62.7l57.7,139.9c-17.5,6.9-29.7,24.1-29.7,44.2v125.8c0,9.3-1.4,22.1-3.8,35.3-2.2,12.1-5.1,23.3-8.1,31.5l-.3,.7c0,.1-.1,.2-.1,.2-8.3,22.6-13.3,57.3-13.3,92.7v52.7h-12.5c-17.1,0-31,13.9-31,31v27.4h-10.7c-6.1,0-11,4.9-11,11v88.3c0,6,4.9,11,11,11h325.1c6.1,0,11-4.9,11-11v-88.3c0-6.4-4.9-11.3-11-11.3h0Zm-248.9-111c0-32.9,4.4-64.6,11.9-85l.3-.7c0-.1,.1-.2,.1-.2,3.4-9.3,6.7-21.9,9.1-35.2,2.7-14.6,4.1-28.6,4.1-39.2v-125.8c0-13.4,10.5-24.8,23.4-25.4h.3c1.8-.1,3.7,.1,5.6,.5,11.5,2.3,19.9,12.8,19.9,25v125.5c-.2,4.2-.7,38.5,23.9,66.9,4,4.6,10.9,5.1,15.5,1.1,4.6-3.9,5.1-10.9,1.1-15.5-19.7-22.9-18.6-51.5-18.6-51.8v-126.3c0-22.6-15.8-42.1-37.4-46.5-1.1-.2-2.2-.4-3.3-.5l-60-145.5c0-.1-.1-.2-.1-.2-5.5-12.6-1.8-29,8.1-36,3.9-2.8,8.8-3.7,13.8-2.8,5.9,1.2,11.4,5,15,10.6l176.9,269.6c8.6,13.3,13.1,38.5,9.8,53.9l-54.8,236.2h-164.6v-52.7h0Zm-43.5,83.6c0-5,4.1-9,9-9h237.5c5,0,9,4,9,9v27.4h-255.5v-27.4h0Zm281.4,115.8h-303.1v-66.5h303.1v66.5Z"/>
  <path class="cls-1" d="M338.1,834.2h-10.7v-27.4c0-17.1-13.9-31-31-31h-12.5v-52.7c0-35.4-5-70.1-13.3-92.9l-.3-.6c-6.5-17.6-11.9-48.2-11.9-66.9v-125.6c0-20.1-12.3-37.3-29.7-44.2l57.7-139.9c9.7-22.2,2.8-49.7-15.7-62.7-8.9-6.2-19.8-8.5-30.6-6.3-11.7,2.3-22.4,9.7-29.1,20.1L33.9,473.9c-11.8,18.3-17.4,49.3-12.7,70.7l53.7,231.3h-16c-17.1,0-31,13.9-31,31v27.4H13c-6.1,0-11,4.9-11,11v88.3c0,6,4.9,11,11,11H338.1c6,0,11-4.9,11-11v-88.3c0-6.2-4.9-11.1-11-11.1h0ZM42.6,539.8c-3.4-15.5,1.2-40.7,9.7-53.9L229.3,216.2c3.6-5.5,9-9.4,15-10.5,5-1,9.9,0,13.8,2.8,9.9,7,13.7,23.4,8.2,36,0,.1-.1,.2-.1,.2l-60,145.5c-1.1,.1-2.1,.3-3.2,.5-21.7,4.4-37.5,23.9-37.5,46.5v126.4c0,.3,1.1,28.9-18.6,51.8-4,4.6-3.5,11.5,1.1,15.5s11.5,3.5,15.5-1.1c24.6-28.5,24.1-62.8,24-66.9v-125.8c0-12.2,8.4-22.7,19.9-25,1.6-.3,3.2-.5,4.7-.5h1.2c12.9,.6,23.4,12,23.4,25.4v125.8c0,21.2,6,54.6,13.3,74.6l.3,.6c7.5,20.3,11.9,52.1,11.9,85.1v52.7H97.3l-54.7-236Zm7.2,267c0-5,4-9,9-9h237.6c5,0,9,4.1,9,9v27.4H49.8v-27.4Zm277.3,115.8H24v-66.5H327.1v66.5h0Z"/>
  <path class="cls-1" d="M514.7,343.2c-6,0-11,4.9-11,11v494.3c0,6.1,4.9,11,11,11s11-4.9,11-11V354.2c-.1-6.1-5-11-11-11h0Z"/>
  <path class="cls-1" d="M492.7,434.9v-.4c-9-47.7-29.5-80.6-61.1-98-50.2-27.6-109-4.5-111.5-3.6-.3,.1-.5,.3-.7,.4-.3,.2-.6,.3-.9,.5s-.6,.4-.9,.7c-.3,.2-.5,.4-.8,.6l-.8,.8c-.2,.2-.4,.5-.6,.7-.2,.3-.4,.6-.6,.9s-.3,.6-.5,.9c-.1,.3-.3,.6-.4,.9s-.3,.7-.3,1.1c-.1,.3-.1,.6-.2,.9-.1,.4-.1,.8-.1,1.2v1.9c.3,2.7,8.4,65.2,56.7,96,17.1,10.9,36.9,16.4,59.1,16.4,17.3,0,36-3.3,56.2-9.9,.1,0,.1-.1,.2-.1,.2-.1,.3-.1,.5-.2,0,0,.1,0,.1-.1,.4-.2,.8-.3,1.1-.5l.1-.1c.1,0,.2-.1,.3-.2,.1-.1,.3-.2,.4-.3,.3-.2,.5-.4,.8-.6,.1-.1,.2-.2,.4-.3l.3-.3,.1-.1c.3-.3,.6-.6,.8-.9,0,0,.1-.1,.1-.2s.1-.1,.1-.2c.1-.1,.2-.3,.3-.4,.1-.1,.2-.3,.3-.4,.1-.1,.1-.2,.1-.3,.1-.2,.2-.4,.3-.6,.1-.2,.2-.5,.3-.7s.2-.4,.2-.7c.1-.2,.1-.4,.2-.6,.1-.3,.1-.5,.2-.8,0-.2,.1-.5,.1-.7v-2.1c.2-.1,.1-.4,.1-.6h0Zm-105.2-41.5l66,39.1c-28.4,5.2-52.5,1.7-71.6-10.4-30-19-41.4-54.9-45.2-71.5,16.3-4.6,53.3-11.9,84.4,5.2,19.9,11,34.5,30.4,43.6,57.8l-66-39.1c-5.2-3.1-11.9-1.4-15,3.9-3.1,5.2-1.4,11.9,3.8,15h0Z"/>
  <path class="cls-1" d="M536.3,434.5v.4c0,.3-.1,.5-.1,.8v2.1c0,.2,.1,.4,.1,.6,0,.3,.1,.6,.2,.8,.1,.2,.1,.4,.2,.7,.1,.2,.1,.4,.2,.5,.1,.3,.2,.5,.3,.8,.1,.2,.2,.5,.3,.7,0,.1,.1,.2,.1,.3,.1,.1,.2,.2,.2,.3,.1,.2,.3,.4,.4,.5,.1,.1,.2,.3,.3,.3,.2,.3,.5,.5,.7,.8,.1,.1,.2,.2,.2,.3,.1,.1,.2,.2,.3,.2l.4,.4c.2,.2,.5,.4,.7,.5s.3,.2,.5,.3c0,0,.1,.1,.2,.1s.2,.1,.3,.2c.3,.2,.7,.3,1,.5,.1,0,.2,.1,.3,.1,.2,.1,.3,.1,.5,.2,.1,0,.1,.1,.2,.1,20.2,6.6,38.9,9.9,56.2,9.9,22.2,0,42-5.5,59.1-16.4,48.3-30.8,56.4-93.3,56.7-96v-1.9c0-.3-.1-.7-.1-1-.1-.4-.1-.7-.2-1.1-.1-.3-.2-.7-.3-1s-.2-.7-.4-1c-.1-.3-.3-.6-.5-.9s-.4-.6-.6-1c-.2-.3-.4-.5-.6-.7-.3-.3-.5-.6-.8-.9-.2-.2-.5-.4-.8-.6s-.6-.5-.9-.7c-.3-.2-.6-.3-.9-.5-.3-.1-.5-.3-.7-.4-2.5-1-61.2-24-111.5,3.6-31.6,17.5-52.2,50.4-61.2,98.1h0Zm156-83.9c-3.8,16.5-15,52.2-45.1,71.4-19.2,12.2-43.3,15.7-71.8,10.5l66-39.1c5.2-3.1,6.9-9.8,3.8-15-3.1-5.2-9.8-6.9-15-3.9l-66,39.1c9.1-27.4,23.7-46.8,43.6-57.8,31.2-17.1,68.1-9.8,84.5-5.2h0Z"/>
  <path class="cls-1" d="M492.7,603.8v-.4c-9-47.7-29.5-80.6-61.1-98-50.2-27.6-109-4.6-111.5-3.6-.2,.1-.4,.2-.7,.3-.3,.2-.7,.3-1,.5s-.6,.4-.9,.7c-.3,.2-.5,.4-.8,.6l-.8,.8c-.2,.3-.4,.5-.6,.8s-.4,.6-.6,.9c-.2,.3-.3,.6-.5,.9-.1,.3-.3,.6-.4,.9-.1,.3-.3,.7-.3,1.1-.1,.3-.1,.6-.2,.9-.1,.4-.1,.8-.1,1.2v1.8c.3,2.7,8.4,65.2,56.7,96,17.1,10.9,36.9,16.3,59.1,16.3,17.3,0,36-3.3,56.2-9.9,.1,0,.1-.1,.2-.1,.2-.1,.3-.1,.5-.2,.1,0,.1-.1,.2-.1,.4-.2,.8-.3,1.1-.5l.1-.1c.1-.1,.2-.1,.3-.2,.1-.1,.3-.2,.4-.3,.3-.2,.5-.4,.8-.6l.3-.3,.3-.3,.1-.1c.3-.3,.6-.6,.8-.9,0,0,.1-.1,.1-.2,.1-.1,.1-.2,.2-.2,.1-.1,.2-.3,.3-.4,.1-.1,.2-.2,.3-.4,.1-.1,.1-.2,.1-.3,.1-.2,.2-.4,.3-.6,.1-.2,.2-.5,.3-.7s.2-.4,.2-.7,.1-.4,.2-.6c.1-.3,.1-.5,.2-.8,0-.3,.1-.5,.1-.7v-2.1c.2,0,.1-.2,.1-.4h0Zm-105.2-41.5l66,39.1c-28.4,5.2-52.5,1.7-71.6-10.4-30-19-41.4-54.9-45.2-71.5,16.3-4.6,53.3-11.9,84.4,5.2,19.9,11,34.5,30.4,43.6,57.8l-66-39.1c-5.2-3.1-11.9-1.3-15,3.9-3.1,5.2-1.4,11.9,3.8,15h0Z"/>
  <path class="cls-1" d="M715.4,509.4c-.1-.3-.2-.7-.3-1s-.2-.7-.4-1c-.1-.3-.3-.6-.5-.9-.2-.3-.4-.7-.6-1-.2-.2-.4-.5-.6-.7-.3-.3-.5-.6-.9-.9-.2-.2-.4-.4-.7-.6-.3-.3-.7-.5-1-.7s-.5-.3-.8-.4c-.3-.1-.5-.3-.8-.4-2.5-1-61.2-24-111.5,3.6-31.6,17.3-52.2,50.3-61.1,98v.4c0,.3-.1,.5-.1,.8v2.1c0,.2,.1,.4,.1,.6,0,.3,.1,.6,.2,.8,.1,.2,.1,.4,.2,.7,.1,.2,.1,.4,.2,.6,.1,.3,.2,.5,.3,.8,.1,.2,.2,.5,.3,.7,0,.1,.1,.2,.1,.3,.1,.1,.2,.2,.2,.3,.1,.2,.2,.4,.4,.5h0c.1,.1,.1,.2,.2,.3,.2,.3,.5,.5,.7,.8,.1,.1,.2,.2,.2,.3,.1,.1,.2,.2,.3,.2l.4,.4c.2,.2,.4,.4,.7,.5,.2,.1,.3,.2,.5,.3,0,0,.1,.1,.2,.1,.1,.1,.2,.1,.3,.2,.3,.2,.7,.3,1,.5,.1,0,.2,.1,.3,.1,.2,.1,.3,.1,.5,.2,.1,0,.1,.1,.2,.1,20.2,6.6,38.9,9.9,56.2,9.9,22.2,0,42-5.5,59.1-16.3,48.3-30.8,56.4-93.3,56.7-96v-1.9c0-.3-.1-.7-.1-1,.1-.6,0-1-.1-1.3h0Zm-68.3,81.5c-19.2,12.2-43.2,15.6-71.6,10.5l66-39.1c5.2-3.1,6.9-9.8,3.8-15-3.1-5.2-9.8-6.9-15-3.9l-66,39.1c9.1-27.4,23.7-46.8,43.6-57.8,31.1-17.1,68-9.9,84.4-5.2-3.8,16.5-15.3,52.4-45.2,71.4h0Z"/>
  <path class="cls-1" d="M492.7,772.6v-.4c-9-47.7-29.5-80.6-61.1-98-50.2-27.6-109-4.6-111.5-3.6-.2,.1-.4,.2-.7,.3-.3,.2-.7,.3-1,.5s-.6,.4-.9,.6c-.3,.2-.5,.4-.8,.6l-.8,.8c-.2,.3-.4,.5-.6,.8s-.4,.6-.6,.9c-.2,.3-.3,.6-.5,.9-.1,.3-.3,.6-.4,.9-.1,.3-.3,.7-.3,1.1-.1,.3-.1,.6-.2,.9-.1,.4-.1,.8-.1,1.2v1.8c.3,2.7,8.4,65.2,56.7,96,17.1,10.9,36.9,16.3,59.1,16.3,17.3,0,36-3.3,56.2-9.9,.1,0,.1-.1,.2-.1,.2,0,.3-.1,.5-.2,.1,0,.1-.1,.2-.1,.4-.2,.8-.3,1.1-.5l.1-.1c.1-.1,.2-.1,.3-.2,.1-.1,.3-.2,.4-.3,.3-.2,.5-.4,.8-.6l.3-.3,.3-.3,.1-.1c.3-.3,.6-.6,.8-.9,0,0,.1-.1,.1-.2,.1-.1,.1-.2,.2-.2,.1-.1,.2-.3,.3-.4,.1-.1,.2-.3,.3-.4,.1-.1,.1-.2,.1-.3,.1-.2,.2-.4,.3-.6,.1-.2,.2-.5,.3-.7s.2-.4,.2-.7c.1-.2,.1-.4,.2-.6,.1-.3,.1-.5,.2-.8,0-.3,.1-.5,.1-.7v-2.1c.2,.2,.1,0,.1-.3h0Zm-105.2-41.5l66,39.1c-28.4,5.2-52.5,1.7-71.6-10.5-30-19-41.4-54.9-45.2-71.4,16.3-4.6,53.3-11.9,84.4,5.2,19.9,11,34.5,30.4,43.6,57.8l-66-39.1c-5.2-3.1-11.9-1.4-15,3.9-3.1,5.2-1.4,12,3.8,15h0Z"/>
  <path class="cls-1" d="M715.7,681.5v-1.2c0-.3-.1-.7-.1-1-.1-.4-.1-.7-.2-1.1-.1-.3-.2-.7-.3-1s-.2-.7-.4-1c-.1-.3-.3-.6-.5-.9-.2-.3-.4-.7-.6-1-.2-.3-.4-.5-.6-.7-.3-.3-.5-.6-.9-.9-.2-.2-.4-.4-.7-.6-.3-.3-.7-.5-1-.7s-.5-.3-.8-.4c-.3-.1-.5-.3-.8-.4-2.5-1-61.2-24-111.5,3.6-31.6,17.3-52.2,50.3-61.1,98v.4c0,.3-.1,.5-.1,.8v2.1c0,.2,.1,.4,.1,.6,0,.3,.1,.6,.2,.8,.1,.2,.1,.4,.2,.7,.1,.2,.1,.3,.2,.6,.1,.3,.2,.5,.3,.8,.1,.2,.2,.4,.3,.7,0,.1,.1,.2,.1,.3,.1,.1,.2,.2,.2,.3,.1,.2,.2,.4,.4,.5h0c.1,.1,.1,.2,.2,.3,.2,.3,.5,.5,.7,.8,.1,.1,.2,.2,.2,.3,.1,.1,.2,.2,.3,.2l.4,.4c.2,.2,.4,.4,.7,.5,.2,.1,.3,.2,.5,.3,0,0,.1,.1,.2,.1,.1,.1,.2,.1,.3,.2,.3,.2,.7,.3,1,.5,.1,0,.2,.1,.3,.1,.2,.1,.3,.1,.5,.2,.1,0,.1,.1,.2,.1,20.2,6.6,38.9,9.9,56.2,9.9,22.2,0,42-5.4,59.1-16.3,48.3-30.8,56.4-93.3,56.7-96,.1-.4,.1-.6,.1-.9h0Zm-68.6,78.3c-19.2,12.2-43.2,15.6-71.6,10.5l66-39.1c5.2-3.1,6.9-9.8,3.8-15-3.1-5.2-9.8-6.9-15-3.9l-66,39.1c9.1-27.4,23.7-46.8,43.6-57.8,31.1-17.1,68-9.9,84.4-5.2-3.8,16.5-15.3,52.4-45.2,71.4h0Z"/>
  <path class="cls-1" d="M605.3,161.8c-4.1-92.8-85.7-155.1-89.2-157.7-.2-.1-.4-.2-.6-.3-.3-.2-.7-.5-1.1-.6-.3-.1-.6-.3-.9-.4-.4-.1-.7-.3-1.1-.4-.3-.1-.6-.2-1-.2-.4-.1-.8-.1-1.1-.2h-.9c-.4,0-.8,0-1.2,.1-.3,0-.6,.1-.8,.1l-1.2,.3c-.3,.1-.5,.2-.8,.3-.4,.2-.8,.3-1.2,.5-.3,.1-.5,.3-.8,.5s-.5,.3-.7,.5c-3.4,2.7-83.7,66.8-85.7,159.6-1.3,58.2,28.6,114,88.7,165.6,.1,.1,.3,.2,.5,.3,.2,.1,.3,.3,.5,.4,.1,.1,.3,.2,.4,.3,.3,.2,.7,.4,1,.6,.2,.1,.3,.2,.5,.3,.1,0,.2,.1,.3,.1,.4,.2,.9,.3,1.4,.4,.2,0,.3,.1,.5,.1h.1c.7,.1,1.4,.2,2.1,.2h.4c.6,0,1.1-.1,1.7-.2h.2c.2,0,.4-.1,.6-.2,.4-.1,.8-.2,1.2-.4,.1,0,.2-.1,.3-.1l.6-.3c.3-.2,.7-.3,1-.6,.1-.1,.3-.2,.4-.3,.2-.1,.3-.3,.5-.4,.1-.1,.3-.2,.5-.3,58.8-53,87.5-109.4,84.9-167.6h0Zm-81.7,133.9l-1.6-148.2c-.1-6-5-10.8-11-10.8h-.1c-6,.1-10.9,5-10.8,11.1l1.6,148.2c-42.6-42.1-63.6-86.2-62.7-131.4,1.4-67.8,52.2-120.4,70.7-137.2,18.8,16.5,70.8,67.9,73.7,135.7,1.9,45-18.2,89.6-59.8,132.6h0Z"/>
</svg>