<svg width="20" height="21" viewBox="0 0 20 21" fill="none" xmlns="http://www.w3.org/2000/svg">
<path d="M5.64859 19.6286C5.61859 19.6286 5.57859 19.6486 5.54859 19.6486C3.60859 18.6886 2.02859 17.0986 1.05859 15.1586C1.05859 15.1286 1.07859 15.0886 1.07859 15.0586C2.29859 15.4186 3.55859 15.6886 4.80859 15.8986C5.02859 17.1586 5.28859 18.4086 5.64859 19.6286Z" fill="#1A40A9"/>
<path d="M18.9391 15.1686C17.9491 17.1586 16.2991 18.7686 14.2891 19.7386C14.6691 18.4686 14.9891 17.1886 15.1991 15.8986C16.4591 15.6886 17.6991 15.4186 18.9191 15.0586C18.9091 15.0986 18.9391 15.1386 18.9391 15.1686Z" fill="#1A40A9"/>
<path d="M19.0191 6.42922C17.7591 6.04922 16.4891 5.73922 15.1991 5.51922C14.9891 4.22922 14.6791 2.94922 14.2891 1.69922C16.3591 2.68922 18.0291 4.35922 19.0191 6.42922Z" fill="#1A40A9"/>
<path d="M5.65047 1.80734C5.29047 3.02734 5.03047 4.26734 4.82047 5.52734C3.53047 5.72734 2.25047 6.04734 0.980469 6.42734C1.95047 4.41734 3.56047 2.76734 5.55047 1.77734C5.58047 1.77734 5.62047 1.80734 5.65047 1.80734Z" fill="#1A40A9"/>
<path d="M13.4917 5.30875C11.1717 5.04875 8.8317 5.04875 6.51172 5.30875C6.76172 3.93875 7.08172 2.56875 7.53172 1.24875C7.55172 1.16875 7.54172 1.10875 7.55172 1.02875C8.3417 0.83875 9.1517 0.71875 10.0017 0.71875C10.8417 0.71875 11.6617 0.83875 12.4417 1.02875C12.4517 1.10875 12.4517 1.16875 12.4717 1.24875C12.9217 2.57875 13.2417 3.93875 13.4917 5.30875Z" fill="#1A40A9"/>
<path d="M4.59 14.2104C3.21 13.9604 1.85 13.6404 0.53 13.1904C0.45 13.1704 0.39 13.1804 0.31 13.1704C0.12 12.3804 0 11.5704 0 10.7204C0 9.88045 0.12 9.06045 0.31 8.28047C0.39 8.27047 0.45 8.27047 0.53 8.25047C1.86 7.81047 3.21 7.48047 4.59 7.23047C4.34 9.55045 4.34 11.8904 4.59 14.2104Z" fill="#1A40A9"/>
<path d="M20.0002 10.7204C20.0002 11.5704 19.8802 12.3804 19.6902 13.1704C19.6102 13.1804 19.5502 13.1704 19.4702 13.1904C18.1402 13.6304 16.7802 13.9604 15.4102 14.2104C15.6702 11.8904 15.6702 9.55045 15.4102 7.23047C16.7802 7.48047 18.1502 7.80047 19.4702 8.25047C19.5502 8.27047 19.6102 8.28047 19.6902 8.28047C19.8802 9.07045 20.0002 9.88045 20.0002 10.7204Z" fill="#1A40A9"/>
<path d="M13.4917 16.1289C13.2417 17.5089 12.9217 18.8689 12.4717 20.1889C12.4517 20.2689 12.4517 20.3289 12.4417 20.4089C11.6617 20.5989 10.8417 20.7189 10.0017 20.7189C9.1517 20.7189 8.3417 20.5989 7.55172 20.4089C7.54172 20.3289 7.55172 20.2689 7.53172 20.1889C7.09172 18.8589 6.76172 17.5089 6.51172 16.1289C7.67172 16.2589 8.8317 16.3489 10.0017 16.3489C11.1717 16.3489 12.3417 16.2589 13.4917 16.1289Z" fill="#1A40A9"/>
<path d="M13.7633 14.4821C11.2622 14.7977 8.7378 14.7977 6.23667 14.4821C5.92111 11.981 5.92111 9.45655 6.23667 6.95542C8.7378 6.63986 11.2622 6.63986 13.7633 6.95542C14.0789 9.45655 14.0789 11.981 13.7633 14.4821Z" fill="#1A40A9"/>
</svg>
