<svg width="25" height="25" viewBox="0 0 25 25" fill="none" xmlns="http://www.w3.org/2000/svg">
<path d="M12.5 2.5C15.5 4.5 16.4228 8.79203 16.5 12.5C16.4228 16.208 15.5 20.5 12.5 22.5M12.5 2.5C9.5 4.5 8.57725 8.79203 8.5 12.5C8.57725 16.208 9.5 20.5 12.5 22.5M12.5 2.5C6.97715 2.5 2.5 6.97715 2.5 12.5M12.5 2.5C18.0228 2.5 22.5 6.97715 22.5 12.5M12.5 22.5C18.0229 22.5 22.5 18.0228 22.5 12.5M12.5 22.5C6.97716 22.5 2.5 18.0228 2.5 12.5M22.5 12.5C20.5 15.5 16.208 16.4228 12.5 16.5C8.79203 16.4228 4.5 15.5 2.5 12.5M22.5 12.5C20.5 9.5 16.208 8.57725 12.5 8.5C8.79203 8.57725 4.5 9.5 2.5 12.5" stroke="white" stroke-width="2" stroke-linecap="round" stroke-linejoin="round"/>
</svg>
