<svg width="18" height="21" viewBox="0 0 18 21" fill="none" xmlns="http://www.w3.org/2000/svg">
<path d="M12.256 20.716C12.196 20.716 12.126 20.706 12.066 20.686C10.056 20.116 7.94598 20.116 5.93596 20.686C5.56596 20.786 5.17596 20.576 5.07596 20.206C4.96596 19.836 5.18596 19.446 5.55596 19.346C7.81598 18.706 10.196 18.706 12.456 19.346C12.826 19.456 13.046 19.836 12.936 20.206C12.836 20.516 12.556 20.716 12.256 20.716Z" fill="#1A40A9"/>
<path d="M16.2075 5.07901C15.1675 2.97901 13.1575 1.429 10.8275 0.919005C8.38748 0.379005 5.88748 0.959005 3.97748 2.49901C2.05748 4.02901 0.967484 6.31901 0.967484 8.76903C0.967484 11.359 2.51748 14.069 4.85748 15.639V16.469C4.84748 16.749 4.83748 17.179 5.17748 17.529C5.52748 17.889 6.04748 17.929 6.45748 17.929H11.5875C12.1275 17.929 12.5375 17.779 12.8175 17.499C13.1975 17.109 13.1875 16.609 13.1775 16.339V15.639C16.2775 13.549 18.2275 9.13902 16.2075 5.07901ZM10.7175 10.339L9.64748 12.199C9.50748 12.439 9.25748 12.579 8.99748 12.579C8.86748 12.579 8.73748 12.549 8.62748 12.479C8.26748 12.269 8.14748 11.809 8.34748 11.459L9.19748 9.97903H8.35748C7.85748 9.97903 7.44748 9.75903 7.22748 9.38903C7.00748 9.00903 7.02748 8.54901 7.27748 8.10901L8.34748 6.249C8.55748 5.889 9.01748 5.76901 9.36748 5.96901C9.72748 6.17901 9.84748 6.639 9.64748 6.989L8.79748 8.46901H9.63748C10.1375 8.46901 10.5475 8.68901 10.7675 9.05903C10.9875 9.43903 10.9675 9.90903 10.7175 10.339Z" fill="#1A40A9"/>
</svg>
