<?xml version="1.0" encoding="utf-8"?>
<!-- Generator: Adobe Illustrator 26.5.0, SVG Export Plug-In . SVG Version: 6.00 Build 0)  -->
<svg version="1.1" id="Layer_1" xmlns="http://www.w3.org/2000/svg" xmlns:xlink="http://www.w3.org/1999/xlink" x="0px" y="0px"
	 viewBox="0 0 1200 1200" style="enable-background:new 0 0 1200 1200;" xml:space="preserve">
<style type="text/css">
	.st0{fill:#2E35A9;stroke:#2E35A9;stroke-width:5;stroke-miterlimit:10;}
</style>
<g>
	<path class="st0" d="M459.5,1017.4c0-52.9-30-98.9-73.8-122c-7.2,10.4-15.9,19.8-25.8,27.7c37.2,15.2,63.5,51.7,63.5,94.3v86.5
		H114.1v-86.5c0-42.6,26.3-79.1,63.5-94.3c-9.9-7.9-18.6-17.3-25.8-27.7C108,918.5,78,964.5,78,1017.4V1140h381.5L459.5,1017.4
		L459.5,1017.4z"/>
	<path class="st0" d="M262.9,921h11.7c60.3,0,109.3-49,109.3-109.3v-37.9c0-60.3-49-109.3-109.3-109.3h-11.7
		c-60.3,0-109.3,49-109.3,109.3v37.9C153.6,872,202.7,921,262.9,921z M189.7,773.9c0-40.4,32.8-73.2,73.2-73.2h11.7
		c40.4,0,73.2,32.8,73.2,73.2v37.9c0,40.4-32.8,73.2-73.2,73.2h-11.7c-40.4,0-73.2-32.8-73.2-73.2V773.9z"/>
	<path class="st0" d="M935.2,969.5c37.2,15.2,63.5,51.7,63.5,94.3v40.1H689.3v-40.1c0-42.6,26.3-79.1,63.5-94.3
		c-9.9-7.9-18.6-17.3-25.8-27.7c-43.8,23.1-73.8,69.1-73.8,122v76.2h381.5v-76.2c0-52.9-30-98.9-73.8-122
		C953.8,952.2,945.1,961.6,935.2,969.5L935.2,969.5z"/>
	<path class="st0" d="M728.9,820.2v37.9c0,60.3,49,109.3,109.3,109.3h11.7c60.3,0,109.3-49,109.3-109.3v-37.9
		c0-60.3-49-109.3-109.3-109.3h-11.7C777.9,711,728.9,760,728.9,820.2z M764.9,820.2c0-40.4,32.8-73.2,73.2-73.2h11.7
		c40.4,0,73.2,32.8,73.2,73.2v37.9c0,40.4-32.8,73.2-73.2,73.2h-11.7c-40.4,0-73.2-32.8-73.2-73.2V820.2z"/>
	<path class="st0" d="M1062.6,218h-480c-32.8,0-59.4,26.7-59.4,59.4v344c0,32.8,26.7,59.4,59.4,59.4h372.7L1069.5,795
		c5.9,5.9,13.7,9,21.7,9c4,0,8-0.8,11.8-2.4c11.6-4.8,19-16,19-28.5V277.4C1122,244.7,1095.4,218,1062.6,218L1062.6,218z
		 M1088.7,767.1L978.1,656.5c-5.8-5.8-13.6-9-21.8-9H582.6c-14.4,0-26.1-11.7-26.1-26.1V277.4c0-14.4,11.7-26.1,26.1-26.1h480
		c14.4,0,26.1,11.7,26.1,26.1L1088.7,767.1z"/>
	<path class="st0" d="M683.7,191.2v-71.8c0-32.8-26.6-59.4-59.4-59.4h-480c-32.8,0-59.4,26.6-59.4,59.4v495.7
		c0,12.4,7.4,23.6,18.9,28.4c3.9,1.6,7.9,2.4,11.9,2.4c8,0,15.8-3.1,21.8-9l114.1-114.1h209.4v-33.3l-210.6,0
		c-8.2,0-15.9,3.2-21.8,9.1L118.2,609.1V119.4c0-14.4,11.7-26.1,26.1-26.1l480,0c14.4,0,26.1,11.7,26.1,26.1v71.8L683.7,191.2z"/>
	<path class="st0" d="M722.9,454.3c0,19-15.4,34.5-34.5,34.5c-19,0-34.5-15.4-34.5-34.5s15.4-34.5,34.5-34.5
		C707.4,419.8,722.9,435.3,722.9,454.3"/>
	<path class="st0" d="M857,454.3c0,19-15.4,34.5-34.5,34.5c-19,0-34.5-15.4-34.5-34.5s15.4-34.5,34.5-34.5
		C841.6,419.8,857,435.3,857,454.3"/>
	<path class="st0" d="M991.2,454.3c0,19-15.4,34.5-34.5,34.5c-19,0-34.5-15.4-34.5-34.5s15.4-34.5,34.5-34.5
		C975.8,419.8,991.2,435.3,991.2,454.3"/>
</g>
</svg>
