<svg width="14" height="21" viewBox="0 0 14 21" fill="none" xmlns="http://www.w3.org/2000/svg">
<path d="M12.3926 14.3888L8.35264 10.7188H5.64264L1.60263 14.3888C0.472633 15.4088 0.102633 16.9788 0.652633 18.3988C1.20263 19.8088 2.54263 20.7188 4.05263 20.7188H9.94264C11.4626 20.7188 12.7926 19.8088 13.3426 18.3988C13.8926 16.9788 13.5226 15.4088 12.3926 14.3888ZM8.82264 16.8587H5.18264C4.80263 16.8587 4.50263 16.5487 4.50263 16.1787C4.50263 15.8087 4.81263 15.4988 5.18264 15.4988H8.82264C9.20264 15.4988 9.50264 15.8087 9.50264 16.1787C9.50264 16.5487 9.19264 16.8587 8.82264 16.8587Z" fill="#1A40A9"/>
<path d="M13.3537 3.03875C12.8037 1.62875 11.4637 0.71875 9.95374 0.71875H4.05379C2.54379 0.71875 1.20379 1.62875 0.653792 3.03875C0.113792 4.45875 0.483792 6.02875 1.61379 7.04875L5.65374 10.7188H8.36374L12.4037 7.04875C13.5237 6.02875 13.8937 4.45875 13.3537 3.03875ZM8.82374 5.94875H5.18374C4.80379 5.94875 4.50379 5.63875 4.50379 5.26875C4.50379 4.89875 4.81379 4.58875 5.18374 4.58875H8.82374C9.20374 4.58875 9.50374 4.89875 9.50374 5.26875C9.50374 5.63875 9.19374 5.94875 8.82374 5.94875Z" fill="#1A40A9"/>
</svg>
