<?xml version="1.0" encoding="utf-8"?>
<!-- Generator: Adobe Illustrator 26.5.0, SVG Export Plug-In . SVG Version: 6.00 Build 0)  -->
<svg version="1.1" id="Layer_1" xmlns="http://www.w3.org/2000/svg" xmlns:xlink="http://www.w3.org/1999/xlink" x="0px" y="0px"
	 viewBox="0 0 1200 1200" style="enable-background:new 0 0 1200 1200;" xml:space="preserve">
<style type="text/css">
	.st0{fill:#2E35A9;stroke:#2E35A9;stroke-width:19;stroke-linejoin:round;stroke-miterlimit:10;}
</style>
<path class="st0" d="M319.4,335.3c-3.9,0.5-6.8,3.9-6.6,7.8V857c0,4.2,3.4,7.6,7.6,7.6h559.2c2,0,4-0.8,5.4-2.2
	c1.4-1.4,2.3-3.4,2.3-5.4c0-2-0.8-4-2.3-5.4c-1.4-1.4-3.4-2.2-5.4-2.2H327.9V343.1c0.1-2.2-0.8-4.4-2.4-5.9S321.6,335,319.4,335.3
	L319.4,335.3z M711.9,501.8c-4.2,0.4-7.2,4.1-6.8,8.3c0.4,4.2,4.1,7.2,8.3,6.9h72.3L637.8,664.9L529.6,564.1
	c-3-2.8-7.7-2.7-10.6,0.2l-98.2,98.2c-1.4,1.4-2.2,3.4-2.2,5.4c0,2,0.8,4,2.3,5.4c1.4,1.4,3.4,2.2,5.4,2.2c2,0,4-0.9,5.4-2.3
	l93.1-93L632.8,681c3,2.8,7.7,2.7,10.6-0.2l153-153.3V600c0,2,0.8,4,2.2,5.4c1.4,1.4,3.4,2.3,5.4,2.3c2,0,4-0.8,5.4-2.3
	c1.4-1.4,2.2-3.4,2.2-5.4v-90.7c0-4.2-3.4-7.6-7.6-7.6h-90.7C712.9,501.7,712.4,501.7,711.9,501.8L711.9,501.8z"/>
</svg>
