<?xml version="1.0" encoding="UTF-8"?>
<svg id="Layer_1" data-name="Layer 1" xmlns="http://www.w3.org/2000/svg" viewBox="0 0 973 973">
  <defs>
    <style>
      .cls-1 {
        fill: #2e35a9;
        stroke: #2e35a9;
        stroke-miterlimit: 10;
        stroke-width: 13px;
      }
    </style>
  </defs>
  <path class="cls-1" d="M486.5,6.5C221.8,6.5,6.5,221.8,6.5,486.5s215.3,480,480,480c6.6,0,12-5.4,12-12s-5.4-12-12-12c-251.4,0-456-204.6-456-456S235.1,30.5,486.5,30.5s456,204.6,456,456c0,136-59,261.9-162.5,348.8v-69.5c0-6.6-5.4-12-12-12s-12,5.4-12,12v96.1c0,6.6,5.4,12,12,12h98.8c6.6,0,12-5.4,12-12s-5.4-12-12-12h-66.7c106.1-91.4,166.4-222.3,166.4-363.4C966.5,221.8,751.2,6.5,486.5,6.5h0Z"/>
  <path class="cls-1" d="M833.4,486.5c0-191.3-155.6-346.9-346.9-346.9S139.6,295.2,139.6,486.5s155.6,346.9,346.9,346.9,346.9-155.6,346.9-346.9Zm-175.3,273.3l-15.2-26.4c-3.3-5.7-10.7-7.7-16.4-4.4s-7.7,10.7-4.4,16.4l15.3,26.5c-41.7,22.2-88.9,35.4-138.9,37.2v-58.3c0-6.6-5.4-12-12-12s-12,5.4-12,12v58.3c-50-1.8-97.2-15.1-138.9-37.2l15.3-26.5c3.3-5.7,1.3-13.1-4.4-16.4-5.7-3.3-13.1-1.3-16.4,4.4l-15.2,26.4c-41-25.9-75.8-60.6-101.6-101.7l50.4-29.1c5.7-3.3,7.7-10.7,4.4-16.4-3.3-5.7-10.7-7.7-16.4-4.4l-50.5,29.1c-22.2-41.7-35.4-88.9-37.2-138.9h30.5c6.6,0,12-5.4,12-12s-5.4-12-12-12h-30.6c1.8-50,15.1-97.1,37.2-138.9l50.5,29.1c1.9,1.1,3.9,1.6,6,1.6,4.1,0,8.2-2.1,10.4-6,3.3-5.7,1.3-13.1-4.4-16.4l-50.4-29.1c25.9-41,60.7-75.8,101.7-101.6l15.2,26.4c2.2,3.9,6.3,6,10.4,6,2,0,4.1-.5,6-1.6,5.7-3.3,7.7-10.7,4.4-16.4l-15.3-26.5c41.7-22.2,88.9-35.4,138.9-37.2v58.3c0,6.6,5.4,12,12,12s12-5.4,12-12v-58.3c50,1.8,97.2,15.1,138.9,37.2l-15.3,26.5c-3.3,5.7-1.3,13.1,4.4,16.4,1.9,1.1,3.9,1.6,6,1.6,4.1,0,8.2-2.1,10.4-6l15.2-26.4c41,25.9,75.8,60.6,101.6,101.7l-50.4,29.1c-5.7,3.3-7.7,10.7-4.4,16.4,2.2,3.9,6.3,6,10.4,6,2,0,4.1-.5,6-1.6l50.5-29.1c22.2,41.7,35.4,88.9,37.2,138.9h-30.5c-6.6,0-12,5.4-12,12s5.4,12,12,12h30.6c-1.8,50-15.1,97.1-37.2,138.9l-50.5-29.1c-5.7-3.3-13.1-1.4-16.4,4.4-3.3,5.7-1.3,13.1,4.4,16.4l50.4,29.1c-25.9,41-60.7,75.8-101.7,101.6h0Z"/>
  <path class="cls-1" d="M597,536l-98.5-56.4v-116.3c0-6.6-5.4-12-12-12s-12,5.4-12,12v123.2c0,4.3,2.3,8.3,6,10.4l104.5,59.9c1.9,1.1,3.9,1.6,6,1.6,4.2,0,8.2-2.2,10.4-6,3.4-5.7,1.4-13.1-4.4-16.4h0Z"/>
</svg>