<svg width="24" height="25" viewBox="0 0 24 25" fill="none" xmlns="http://www.w3.org/2000/svg">
<path d="M20.97 16.7188H18.03C16.76 16.7188 16 17.4788 16 18.7488V21.6887C16 22.9587 16.76 23.7188 18.03 23.7188H20.97C22.24 23.7188 23 22.9587 23 21.6887V18.7488C23 17.4788 22.24 16.7188 20.97 16.7188ZM21.63 19.1688L19.26 21.9387C19.16 22.0487 19.03 22.1187 18.88 22.1187C18.88 22.1187 18.87 22.1187 18.86 22.1187C18.73 22.1187 18.59 22.0687 18.5 21.9688L17.4 20.8888C17.2 20.6888 17.2 20.3588 17.4 20.1488C17.6 19.9488 17.93 19.9488 18.14 20.1488L18.83 20.8388L20.84 18.4988C21.02 18.2788 21.35 18.2487 21.57 18.4387C21.79 18.6287 21.81 18.9588 21.63 19.1688Z" fill="#1A40A9"/>
<path d="M20.97 16.7188H18.03C16.76 16.7188 16 17.4788 16 18.7488V21.6887C16 22.9587 16.76 23.7188 18.03 23.7188H20.97C22.24 23.7188 23 22.9587 23 21.6887V18.7488C23 17.4788 22.24 16.7188 20.97 16.7188ZM21.63 19.1688L19.26 21.9387C19.16 22.0487 19.03 22.1187 18.88 22.1187C18.88 22.1187 18.87 22.1187 18.86 22.1187C18.73 22.1187 18.59 22.0687 18.5 21.9688L17.4 20.8888C17.2 20.6888 17.2 20.3588 17.4 20.1488C17.6 19.9488 17.93 19.9488 18.14 20.1488L18.83 20.8388L20.84 18.4988C21.02 18.2788 21.35 18.2487 21.57 18.4387C21.79 18.6287 21.81 18.9588 21.63 19.1688Z" fill="#1A40A9"/>
<path d="M21.97 7.92875C21.69 5.19875 19.52 3.02875 16.79 2.74875C16.59 2.72875 16.39 2.71875 16.19 2.71875H7.81C7.61 2.71875 7.41 2.72875 7.21 2.74875C4.48 3.02875 2.31 5.19875 2.03 7.92875C2.01 8.12875 2 8.32875 2 8.52875V16.9088C2 17.1088 2.01 17.3088 2.03 17.5088C2.31 20.2388 4.48 22.4087 7.21 22.6887C7.41 22.7087 7.61 22.7188 7.81 22.7188H14C14.55 22.7188 15 22.2687 15 21.7188V18.7488C15 17.0788 16.36 15.7188 18.03 15.7188H21C21.55 15.7188 22 15.2688 22 14.7188V8.52875C22 8.32875 21.99 8.12875 21.97 7.92875ZM7.75 14.2188C7.75 14.6287 7.41 14.9688 7 14.9688C6.59 14.9688 6.25 14.6287 6.25 14.2188V11.2188C6.25 10.8088 6.59 10.4688 7 10.4688C7.41 10.4688 7.75 10.8088 7.75 11.2188V14.2188ZM12.75 14.2188C12.75 14.6287 12.41 14.9688 12 14.9688C11.59 14.9688 11.25 14.6287 11.25 14.2188V11.2188C11.25 10.8088 11.59 10.4688 12 10.4688C12.41 10.4688 12.75 10.8088 12.75 11.2188V14.2188Z" fill="#1A40A9"/>
</svg>
