<?xml version="1.0" encoding="UTF-8"?>
<svg id="Layer_1" data-name="Layer 1" xmlns="http://www.w3.org/2000/svg" viewBox="0 0 1050 825">
  <defs>
    <style>
      .cls-1 {
        fill: #2e35a9;
      }
    </style>
  </defs>
  <path class="cls-1" d="M1031.25,0H18.75C13.78,0,9.01,1.98,5.49,5.49,1.98,9.01,0,13.78,0,18.75V806.25c0,4.97,1.98,9.74,5.49,13.26,3.52,3.52,8.29,5.49,13.26,5.49h1012.5c4.97,0,9.74-1.98,13.26-5.49,3.52-3.52,5.49-8.29,5.49-13.26V18.75c0-4.97-1.98-9.74-5.49-13.26-3.52-3.52-8.29-5.49-13.26-5.49h0Zm-18.75,37.5v112.5H37.5V37.5H1012.5ZM37.5,787.5V187.5H1012.5V787.5H37.5ZM75,93.75c0-4.97,1.98-9.74,5.49-13.26,3.52-3.52,8.29-5.49,13.26-5.49s9.74,1.98,13.26,5.49c3.52,3.52,5.49,8.29,5.49,13.26s-1.98,9.74-5.49,13.26c-3.52,3.52-8.29,5.49-13.26,5.49s-9.74-1.98-13.26-5.49c-3.52-3.52-5.49-8.29-5.49-13.26Zm75,0c0-4.97,1.98-9.74,5.49-13.26,3.52-3.52,8.29-5.49,13.26-5.49s9.74,1.98,13.26,5.49c3.52,3.52,5.49,8.29,5.49,13.26s-1.98,9.74-5.49,13.26c-3.52,3.52-8.29,5.49-13.26,5.49s-9.74-1.98-13.26-5.49c-3.52-3.52-5.49-8.29-5.49-13.26h0Zm75,0c0-4.97,1.98-9.74,5.49-13.26,3.52-3.52,8.29-5.49,13.26-5.49s9.74,1.98,13.26,5.49c3.52,3.52,5.49,8.29,5.49,13.26s-1.98,9.74-5.49,13.26c-3.52,3.52-8.29,5.49-13.26,5.49s-9.74-1.98-13.26-5.49c-3.52-3.52-5.49-8.29-5.49-13.26Zm300,0c0-4.97,1.98-9.74,5.49-13.26,3.52-3.52,8.29-5.49,13.26-5.49h412.5c6.7,0,12.89,3.57,16.24,9.38,3.35,5.8,3.35,12.95,0,18.75-3.35,5.8-9.54,9.38-16.24,9.38h-412.5c-4.97,0-9.74-1.98-13.26-5.49-3.52-3.52-5.49-8.29-5.49-13.26h0Zm393.75,562.5c0,4.97-1.98,9.74-5.49,13.26-3.52,3.52-8.29,5.49-13.26,5.49h-37.5c-6.7,0-12.89-3.57-16.24-9.38-3.35-5.8-3.35-12.95,0-18.75,3.35-5.8,9.54-9.38,16.24-9.38h18.25c-4.29-81.4-36.5-158.84-91.2-219.28l-12.65,12.64h0c-4.74,4.74-11.65,6.59-18.12,4.85-6.47-1.74-11.52-6.79-13.26-13.27-1.73-6.47,.12-13.38,4.86-18.11l12.56-12.56c-60.45-54.57-137.86-86.66-219.2-90.85v17.83c0,6.7-3.57,12.89-9.38,16.24-5.8,3.35-12.95,3.35-18.75,0-5.8-3.35-9.38-9.54-9.38-16.24v-17.83c-81.34,4.2-158.74,36.28-219.2,90.86l12.56,12.56c4.74,4.74,6.59,11.64,4.86,18.11-1.73,6.47-6.79,11.53-13.26,13.27-6.47,1.74-13.38-.11-18.12-4.85l-12.65-12.64h0c-54.7,60.43-86.91,137.87-91.2,219.27h18.25c6.7,0,12.89,3.57,16.24,9.38,3.35,5.8,3.35,12.95,0,18.75-3.35,5.8-9.54,9.38-16.24,9.38h-37.5c-4.97,0-9.74-1.98-13.26-5.49-3.52-3.52-5.49-8.29-5.49-13.26,0-104.43,41.48-204.58,115.33-278.42,73.84-73.84,173.99-115.33,278.42-115.33s204.58,41.48,278.42,115.33c73.84,73.84,115.33,173.99,115.33,278.42h0Zm-221.39-198.87l-148.26,148.26h0c-7.51-3.66-15.74-5.59-24.1-5.64-14.92,0-29.23,5.93-39.77,16.48-10.55,10.55-16.48,24.85-16.48,39.77s5.93,29.23,16.48,39.77c10.55,10.55,24.85,16.48,39.77,16.48s29.23-5.93,39.77-16.48c10.55-10.55,16.48-24.85,16.48-39.77-.04-8.36-1.97-16.59-5.64-24.1l148.26-148.26h0c4.6-4.77,6.34-11.6,4.59-17.98-1.75-6.39-6.74-11.38-13.12-13.12-6.38-1.75-13.22,0-17.98,4.59h0Zm-172.36,217.62c-4.97,0-9.74-1.98-13.26-5.49-3.52-3.52-5.49-8.29-5.49-13.26s1.98-9.74,5.49-13.26c3.52-3.52,8.29-5.49,13.26-5.49s9.74,1.98,13.26,5.49c3.52,3.52,5.49,8.29,5.49,13.26,0,4.97-1.98,9.74-5.5,13.25s-8.28,5.49-13.25,5.5h0Z"/>
</svg>