<svg width="20" height="21" viewBox="0 0 20 21" fill="none" xmlns="http://www.w3.org/2000/svg">
<path d="M14.195 0.71875H5.81499C2.17499 0.71875 0.00498962 2.88875 0.00498962 6.52875V14.8988C0.00498962 18.5487 2.17499 20.7188 5.81499 20.7188H14.185C17.825 20.7188 19.995 18.5487 19.995 14.9088V6.52875C20.005 2.88875 17.835 0.71875 14.195 0.71875ZM7.91499 14.9088C7.91499 15.5488 7.39499 16.0688 6.74499 16.0688C6.10499 16.0688 5.58499 15.5488 5.58499 14.9088V11.6488C5.58499 11.0087 6.10499 10.4888 6.74499 10.4888C7.39499 10.4888 7.91499 11.0087 7.91499 11.6488V14.9088ZM14.425 14.9088C14.425 15.5488 13.905 16.0688 13.265 16.0688C12.615 16.0688 12.095 15.5488 12.095 14.9088V6.52875C12.095 5.88875 12.615 5.36875 13.265 5.36875C13.905 5.36875 14.425 5.88875 14.425 6.52875V14.9088Z" fill="#1A40A9"/>
</svg>
