<svg width="24" height="25" viewBox="0 0 24 25" fill="none" xmlns="http://www.w3.org/2000/svg">
<path d="M12 2.71875C6.48 2.71875 2 7.19875 2 12.7188C2 18.2388 6.48 22.7188 12 22.7188C17.52 22.7188 22 18.2388 22 12.7188C22 7.19875 17.52 2.71875 12 2.71875ZM12 9.46875C11.59 9.46875 11.25 9.12875 11.25 8.71875C11.25 8.30875 11.59 7.96875 12 7.96875C14.62 7.96875 16.75 10.0988 16.75 12.7188C16.75 15.3387 14.62 17.4688 12 17.4688C11.59 17.4688 11.25 17.1287 11.25 16.7188C11.25 16.3088 11.59 15.9688 12 15.9688C13.79 15.9688 15.25 14.5087 15.25 12.7188C15.25 10.9288 13.79 9.46875 12 9.46875ZM12 20.4688C7.73 20.4688 4.25 16.9888 4.25 12.7188C4.25 12.3088 4.59 11.9688 5 11.9688C5.41 11.9688 5.75 12.3088 5.75 12.7188C5.75 16.1687 8.55 18.9688 12 18.9688C15.45 18.9688 18.25 16.1687 18.25 12.7188C18.25 9.26875 15.45 6.46875 12 6.46875C11.59 6.46875 11.25 6.12875 11.25 5.71875C11.25 5.30875 11.59 4.96875 12 4.96875C16.27 4.96875 19.75 8.44875 19.75 12.7188C19.75 16.9888 16.27 20.4688 12 20.4688Z" fill="#1A40A9"/>
</svg>
