<?xml version="1.0" encoding="UTF-8"?>
<svg id="Layer_1" data-name="Layer 1" xmlns="http://www.w3.org/2000/svg" viewBox="0 0 1039.46 1039.26">
  <defs>
    <style>
      .cls-1 {
        stroke-miterlimit: 10;
      }

      .cls-1, .cls-2 {
        fill: #2e35a9;
        stroke: #2e35a9;
        stroke-width: 8px;
      }

      .cls-2 {
        stroke-linejoin: round;
      }
    </style>
  </defs>
  <path class="cls-2" d="M1023.6,964.96H200.3c-3.7,0-7-1.7-9.3-4.5-2.2-2.9-3-6.6-2.1-10.1,1.7-6.7,2.6-13.6,2.6-20.5,0-21.9-8.5-42.5-24-58s-36.1-24-58-24c-7,0-13.9,.9-20.5,2.6-3.5,.9-7.2,.1-10.1-2.1-2.9-2.2-4.5-5.6-4.5-9.3v-69.4c0-6.5,5.2-11.7,11.7-11.7s11.7,5.2,11.7,11.7v55.4c3.9-.4,7.8-.6,11.7-.6,14.2,0,28.1,2.8,41.1,8.3,12.5,5.3,23.8,12.9,33.5,22.6,9.7,9.7,17.3,21,22.6,33.5,5.5,13,8.3,26.8,8.3,41.1,0,3.9-.2,7.9-.7,11.7H1001.7l-34.7-52.1h0c-1.7-2.6-2.3-5.7-1.7-8.8,.6-3.1,2.4-5.7,5-7.5,1.9-1.3,4.2-2,6.5-2,3.9,0,7.6,1.9,9.8,5.2l46.9,70.3c2.4,3.6,2.6,8.2,.6,12-2.2,3.8-6.2,6.2-10.5,6.2h0ZM86.1,711.06c-6.5,0-11.7-5.3-11.7-11.7s5.2-11.7,11.7-11.7,11.7,5.2,11.7,11.7c0,6.4-5.2,11.7-11.7,11.7Zm0-70.4c-6.5,0-11.7-5.3-11.7-11.7V37.66L22.3,72.36c-1.9,1.3-4.2,2-6.5,2-3.9,0-7.6-1.9-9.8-5.2-1.7-2.6-2.4-5.7-1.7-8.8,.6-3.1,2.4-5.7,5-7.5L79.6,5.96c3.5-2.4,8.3-2.6,12-.6,3.8,2,6.2,6,6.2,10.3V628.86c0,6.6-5.2,11.8-11.7,11.8h0Z"/>
  <path class="cls-1" d="M109.5,1035.26c-14.2,0-28.1-2.8-41.1-8.3-12.5-5.3-23.8-12.9-33.5-22.6s-17.3-21-22.6-33.5c-5.5-13-8.3-26.8-8.3-41.1,0-12,2-23.8,6-35,3.8-10.9,9.4-21,16.5-30.1,7.1-9,15.5-16.8,25.1-23,9.7-6.4,20.3-11.1,31.5-14,8.6-2.2,17.5-3.3,26.4-3.3,14.2,0,28.1,2.8,41.1,8.3,12.5,5.3,23.8,12.9,33.5,22.6,9.7,9.7,17.3,21,22.6,33.5,5.5,13,8.3,26.8,8.3,41.1,0,8.9-1.1,17.8-3.3,26.4-2.9,11.2-7.6,21.8-14,31.5-6.3,9.6-14,18-23,25.1-9.1,7.2-19.2,12.7-30.1,16.5-11.2,3.9-23,5.9-35.1,5.9h0Zm0-187.5c-7,0-13.9,.9-20.5,2.6-36.3,9.3-61.5,42-61.5,79.5,0,21.9,8.5,42.5,24,58s36.1,24,58,24h0c37.4,0,70.1-25.3,79.4-61.5,1.7-6.7,2.6-13.5,2.6-20.5,0-21.9-8.5-42.5-24-58-15.5-15.6-36.1-24.1-58-24.1h0Z"/>
  <path class="cls-1" d="M414.2,964.96c-6.5,0-11.7-5.2-11.7-11.7v-363.3H86.1c-6.5,0-11.7-5.2-11.7-11.7s5.2-11.7,11.7-11.7H414.2c3.1,0,6.1,1.2,8.3,3.4,2.2,2.2,3.4,5.2,3.4,8.3v375c0,6.5-5.2,11.7-11.7,11.7h0Z"/>
  <path class="cls-1" d="M625.2,964.96c-6.5,0-11.7-5.2-11.7-11.7V379.06H86.1c-6.5,0-11.7-5.2-11.7-11.7s5.2-11.7,11.7-11.7H625.2c3.1,0,6.1,1.2,8.3,3.4,2.2,2.2,3.4,5.2,3.4,8.3V953.26c0,6.5-5.3,11.7-11.7,11.7h0Z"/>
  <path class="cls-1" d="M836.1,964.96c-6.5,0-11.7-5.2-11.7-11.7v-234.4c0-6.5,5.2-11.7,11.7-11.7s11.7,5.2,11.7,11.7v234.4c0,6.4-5.2,11.7-11.7,11.7Zm0-304.7c-6.5,0-11.7-5.2-11.7-11.7s5.2-11.7,11.7-11.7,11.7,5.2,11.7,11.7-5.2,11.7-11.7,11.7Zm0-70.3c-6.5,0-11.7-5.2-11.7-11.7V168.06H86.1c-6.5,0-11.7-5.2-11.7-11.7s5.2-11.7,11.7-11.7H836.1c3.1,0,6.1,1.2,8.3,3.4s3.4,5.2,3.4,8.3v421.9c0,6.4-5.2,11.7-11.7,11.7h0Z"/>
  <path class="cls-1" d="M156.4,74.36c-2.3,0-4.5-.7-6.5-2L79.6,25.46c-5.4-3.6-6.8-10.9-3.3-16.2,2.2-3.3,5.8-5.2,9.8-5.2,2.3,0,4.6,.7,6.5,2l70.3,46.9c2.6,1.7,4.4,4.4,5,7.5s0,6.2-1.7,8.8c-2.2,3.1-5.9,5.1-9.8,5.1h0Z"/>
  <path class="cls-2" d="M976.7,1035.26h0c-2.3,0-4.6-.7-6.5-2-2.6-1.7-4.4-4.4-5-7.5s0-6.2,1.7-8.8l46.9-70.3c2.2-3.3,5.8-5.2,9.8-5.2,2.3,0,4.6,.7,6.5,2,5.4,3.6,6.8,10.9,3.3,16.2l-46.9,70.3c-2.2,3.4-5.9,5.3-9.8,5.3h0Z"/>
  <path class="cls-1" d="M484.5,461.06h46.9v46.9h-46.9v-46.9Z"/>
  <path class="cls-1" d="M273.6,671.96h46.9v46.9h-46.9v-46.9Z"/>
  <path class="cls-1" d="M695.5,250.16h46.9v46.9h-46.9v-46.9Z"/>
</svg>