<svg width="181" height="79" viewBox="0 0 181 79" fill="none" xmlns="http://www.w3.org/2000/svg">
<path opacity="0.5" d="M115.24 9.90279C136.012 12.7955 158.901 20.6031 172.147 32.6009C184.762 43.994 184.407 59.0601 167.769 68.7208C151.66 78.0559 127.565 79.0644 108.086 78.997C87.5933 78.9148 66.7613 77.0834 47.4301 72.4421C30.5993 68.4094 11.277 61.9942 3.00621 49.9798C-2.69308 41.6549 0.215503 32.3158 7.49992 24.811C26.3522 5.4029 65.4356 -2.49504 96.2052 0.682415C117.232 2.8455 135.473 11.0782 148.134 23.0526C149.334 24.189 146.686 25.3842 145.556 24.2642C120.787 0.866598 76.9583 -3.03425 40.2864 8.97872C26.2498 13.5851 12.3209 21.0645 5.78023 31.4075C-0.843106 41.8851 5.69194 51.9168 16.9787 58.7247C33.4895 68.6785 56.442 73.0182 77.5461 75.1472C99.5708 77.3884 123.182 78.0451 145.067 73.9487C154.912 72.1079 164.579 68.882 171.386 63.2426C179.551 56.4466 180.053 47.2038 174.787 39.5345C164.564 24.5673 137.292 15.4834 115.512 12.2122L114.494 12.0659C112.547 11.8016 113.293 9.63219 115.24 9.90279Z" fill="#F4F5FB"/>
<path d="M89.5 63C102.479 63 113 52.4786 113 39.5C113 26.5213 102.479 16 89.5 16C76.5213 16 66 26.5213 66 39.5C66 52.4786 76.5213 63 89.5 63Z" fill="#1A40A9"/>
<path d="M86.1618 47.9134C85.6918 47.9134 85.2453 47.7254 84.9163 47.3964L78.2657 40.7459C77.5842 40.0644 77.5842 38.9364 78.2657 38.2549C78.9472 37.5734 80.0752 37.5734 80.7567 38.2549L86.1618 43.6599L98.2408 31.5809C98.9223 30.8994 100.05 30.8994 100.732 31.5809C101.413 32.2624 101.413 33.3904 100.732 34.0719L87.4073 47.3964C87.0783 47.7254 86.6318 47.9134 86.1618 47.9134Z" fill="#02A6F5"/>
</svg>
