<svg width="181" height="79" viewBox="0 0 181 79" fill="none" xmlns="http://www.w3.org/2000/svg">
<path opacity="0.5" d="M115.24 9.90279C136.012 12.7955 158.901 20.6031 172.147 32.6009C184.762 43.994 184.407 59.0601 167.769 68.7208C151.66 78.0559 127.565 79.0644 108.086 78.997C87.5933 78.9148 66.7613 77.0834 47.4301 72.4421C30.5993 68.4094 11.277 61.9942 3.00621 49.9798C-2.69308 41.6549 0.215503 32.3158 7.49992 24.811C26.3522 5.4029 65.4356 -2.49504 96.2052 0.682415C117.232 2.8455 135.473 11.0782 148.134 23.0526C149.334 24.189 146.686 25.3842 145.556 24.2642C120.787 0.866598 76.9583 -3.03425 40.2864 8.97872C26.2498 13.5851 12.3209 21.0645 5.78023 31.4075C-0.843106 41.8851 5.69194 51.9168 16.9787 58.7247C33.4895 68.6785 56.442 73.0182 77.5461 75.1472C99.5708 77.3884 123.182 78.0451 145.067 73.9487C154.912 72.1079 164.579 68.882 171.386 63.2426C179.551 56.4466 180.053 47.2038 174.787 39.5345C164.564 24.5673 137.292 15.4834 115.512 12.2122L114.494 12.0659C112.547 11.8016 113.293 9.63219 115.24 9.90279Z" fill="#F4F5FB"/>
<path d="M87.9724 48.1828C87.3981 48.1828 86.8238 47.8841 86.5022 47.3558C86.0198 46.5518 86.2725 45.4721 87.0995 44.9897L89.144 43.7722V41.2912C89.144 40.3494 89.925 39.5684 90.8668 39.5684C91.8087 39.5684 92.5897 40.3494 92.5897 41.2912V44.737C92.5897 45.3343 92.2681 45.9086 91.7627 46.2072L88.8913 47.9301C88.5697 48.0909 88.271 48.1828 87.9724 48.1828Z" fill="#02A6F5"/>
<path d="M112.597 37.9146L111.173 53.4894C110.691 58.0838 108.807 62.77 98.6994 62.77H81.1949C71.0873 62.77 69.2037 58.0838 68.7442 53.5124L67.3429 38.5578C67.3659 38.5807 67.3889 38.6037 67.4348 38.6267C68.2159 39.1321 68.9739 39.6374 69.8009 40.0969C70.1225 40.3036 70.4671 40.4874 70.8117 40.6712C73.4075 42.0954 76.1871 43.221 79.0585 44.0021C80.2071 44.3466 81.3787 44.5993 82.5732 44.8061C83.0327 48.4816 86.1798 51.3301 89.9702 51.3301C93.8064 51.3301 96.9766 48.4127 97.39 44.6683V44.6453C98.5616 44.4156 99.7332 44.1169 100.882 43.7724C103.753 42.8765 106.533 41.6819 109.129 40.1658C109.266 40.0969 109.381 40.028 109.473 39.959C110.53 39.3847 111.541 38.7186 112.505 38.0294C112.551 38.0064 112.574 37.9605 112.597 37.9146Z" fill="#1A40A9"/>
<path d="M110.849 27.7383C108.896 25.579 105.657 24.4993 100.902 24.4993H100.35V24.4074C100.35 20.5481 100.35 15.77 91.713 15.77H88.2213C79.5838 15.77 79.5838 20.5481 79.5838 24.4074V24.4993H79.0325C74.2774 24.4993 71.0154 25.579 69.0857 27.7383C66.8115 30.2882 66.8805 33.665 67.1102 35.9851L67.1331 36.1459L67.3399 38.558C67.3629 38.5809 67.4088 38.6039 67.4547 38.6269C68.2358 39.1323 68.9939 39.6376 69.8208 40.0971C70.1424 40.3038 70.487 40.4876 70.8316 40.6714C73.4274 42.0956 76.207 43.2212 79.0555 44.0023C79.1244 49.952 83.9944 54.776 89.9672 54.776C95.9858 54.776 100.879 49.8831 100.879 43.8645V43.7726C103.773 42.8996 106.553 41.6821 109.149 40.166C109.286 40.0971 109.378 40.0282 109.493 39.9592C110.55 39.385 111.561 38.7188 112.525 38.0296C112.548 38.0066 112.594 37.9607 112.617 37.9148L112.709 37.0878L112.824 36.0081C112.847 35.8703 112.847 35.7554 112.87 35.5946C113.054 33.2975 113.008 30.1274 110.849 27.7383ZM82.8688 24.4074C82.8688 20.5022 82.8688 19.032 88.2213 19.032H91.713C97.0655 19.032 97.0655 20.5022 97.0655 24.4074V24.4993H82.8688V24.4074ZM89.9672 51.3303C86.1768 51.3303 83.0296 48.4818 82.5702 44.8063C82.5242 44.5077 82.5013 44.1861 82.5013 43.8645C82.5013 39.7525 85.8552 36.3986 89.9672 36.3986C94.0791 36.3986 97.433 39.7525 97.433 43.8645C97.433 44.1401 97.41 44.3928 97.3871 44.6455V44.6685C96.9736 48.4129 93.8035 51.3303 89.9672 51.3303Z" fill="#02A6F5"/>
</svg>
