<svg width="47" height="47" viewBox="0 0 47 47" fill="none" xmlns="http://www.w3.org/2000/svg">
<path d="M23.5 47C36.4786 47 47 36.4786 47 23.5C47 10.5213 36.4786 0 23.5 0C10.5213 0 0 10.5213 0 23.5C0 36.4786 10.5213 47 23.5 47Z" fill="#1A40A9"/>
<path d="M20.1618 31.9134C19.6918 31.9134 19.2453 31.7254 18.9163 31.3964L12.2657 24.7459C11.5842 24.0644 11.5842 22.9364 12.2657 22.2549C12.9472 21.5734 14.0752 21.5734 14.7567 22.2549L20.1618 27.6599L32.2408 15.5809C32.9223 14.8994 34.0503 14.8994 34.7318 15.5809C35.4133 16.2624 35.4133 17.3904 34.7318 18.0719L21.4073 31.3964C21.0783 31.7254 20.6318 31.9134 20.1618 31.9134Z" fill="#02A6F5"/>
</svg>
