<svg width="60" height="60" viewBox="0 0 60 60" fill="none" xmlns="http://www.w3.org/2000/svg">
<path d="M22.0547 43.2651C19.3828 51.2105 8.78906 51.2105 8.78906 51.2105C8.78906 51.2105 8.78906 40.6167 16.7344 37.9448L22.0547 43.2651Z" fill="#02A6F5"/>
<path d="M43.2656 27.3516V42.4922C43.2586 42.9868 43.0564 43.4585 42.7031 43.8047L35.1328 51.3984C34.8926 51.6383 34.5918 51.8085 34.2625 51.8909C33.9332 51.9732 33.5877 51.9646 33.2629 51.8659C32.9381 51.7673 32.6461 51.5823 32.4182 51.3307C32.1903 51.0792 32.0349 50.7704 31.9687 50.4375L30 40.6172L43.2656 27.3516Z" fill="#02A6F5"/>
<path d="M32.6484 16.7339H17.5078C17.0132 16.7409 16.5415 16.9431 16.1953 17.2964L8.60156 24.8667C8.36166 25.1069 8.19147 25.4077 8.10914 25.737C8.0268 26.0663 8.03542 26.4118 8.13407 26.7366C8.23271 27.0614 8.41769 27.3534 8.66926 27.5813C8.92083 27.8092 9.22956 27.9646 9.5625 28.0308L19.3828 29.9995L32.6484 16.7339Z" fill="#02A6F5"/>
<path d="M45.9141 24.7029L30 40.617L19.3828 29.9998L35.2969 14.0857C41.3203 8.06228 47.3438 8.1326 49.9219 8.5076C50.3197 8.56067 50.689 8.74319 50.9728 9.02699C51.2566 9.31078 51.4391 9.68008 51.4922 10.0779C51.8672 12.656 51.9375 18.6795 45.9141 24.7029Z" fill="#1A40A9"/>
</svg>
