<svg width="47" height="47" viewBox="0 0 47 47" fill="none" xmlns="http://www.w3.org/2000/svg">
<path d="M23.5 47C36.4786 47 47 36.4786 47 23.5C47 10.5213 36.4786 0 23.5 0C10.5213 0 0 10.5213 0 23.5C0 36.4786 10.5213 47 23.5 47Z" fill="#1A40A9"/>
<path d="M35.8375 19.2228V25.4033C35.8375 25.8028 35.814 26.1788 35.767 26.5548C35.4145 30.7143 32.947 32.7823 28.435 32.7823H27.824C27.448 32.7823 27.072 32.9703 26.837 33.2758L24.9805 35.7433C24.158 36.8478 22.842 36.8478 22.0195 35.7433L20.163 33.2758C19.9515 33.0173 19.505 32.7823 19.176 32.7823H18.565C13.63 32.7823 11.1625 31.5603 11.1625 25.3798V19.1993C11.1625 14.6874 13.254 12.2199 17.39 11.8674C17.766 11.8204 18.142 11.7969 18.5415 11.7969H28.4115C33.37 11.8439 35.8375 14.3114 35.8375 19.2228Z" fill="#02A6F5"/>
</svg>
