<svg width="182" height="79" viewBox="0 0 182 79" fill="none" xmlns="http://www.w3.org/2000/svg">
<path opacity="0.5" d="M115.74 9.90279C136.512 12.7955 159.401 20.6031 172.647 32.6009C185.262 43.994 184.907 59.0601 168.269 68.7208C152.16 78.0559 128.065 79.0644 108.586 78.997C88.0933 78.9148 67.2613 77.0834 47.9301 72.4421C31.0993 68.4094 11.777 61.9942 3.50621 49.9798C-2.19308 41.6549 0.715503 32.3158 7.99992 24.811C26.8522 5.4029 65.9356 -2.49504 96.7052 0.682415C117.732 2.8455 135.973 11.0782 148.634 23.0526C149.834 24.189 147.186 25.3842 146.056 24.2642C121.287 0.866598 77.4583 -3.03425 40.7864 8.97872C26.7498 13.5851 12.8209 21.0645 6.28023 31.4075C-0.343106 41.8851 6.19194 51.9168 17.4787 58.7247C33.9895 68.6785 56.942 73.0182 78.0461 75.1472C100.071 77.3884 123.682 78.0451 145.567 73.9487C155.412 72.1079 165.079 68.882 171.886 63.2426C180.051 56.4466 180.553 47.2038 175.287 39.5345C165.064 24.5673 137.792 15.4834 116.012 12.2122L114.994 12.0659C113.047 11.8016 113.793 9.63219 115.74 9.90279Z" fill="#F4F5FB"/>
<path d="M90.5 63C103.479 63 114 52.4786 114 39.5C114 26.5213 103.479 16 90.5 16C77.5213 16 67 26.5213 67 39.5C67 52.4786 77.5213 63 90.5 63Z" fill="#1A40A9"/>
<path d="M102.838 35.2228V41.4033C102.838 41.8028 102.814 42.1788 102.767 42.5548C102.415 46.7143 99.947 48.7823 95.435 48.7823H94.824C94.448 48.7823 94.072 48.9703 93.837 49.2758L91.9805 51.7433C91.158 52.8478 89.842 52.8478 89.0195 51.7433L87.163 49.2758C86.9515 49.0173 86.505 48.7823 86.176 48.7823H85.565C80.63 48.7823 78.1625 47.5603 78.1625 41.3798V35.1993C78.1625 30.6874 80.254 28.2199 84.39 27.8674C84.766 27.8204 85.142 27.7969 85.5415 27.7969H95.4115C100.37 27.8439 102.838 30.3114 102.838 35.2228Z" fill="#02A6F5"/>
</svg>
