<svg width="46" height="48" viewBox="0 0 46 48" fill="none" xmlns="http://www.w3.org/2000/svg">
<path d="M20.9724 33.1828C20.3981 33.1828 19.8238 32.8841 19.5022 32.3558C19.0198 31.5518 19.2725 30.4721 20.0995 29.9897L22.144 28.7722V26.2912C22.144 25.3494 22.925 24.5684 23.8668 24.5684C24.8087 24.5684 25.5897 25.3494 25.5897 26.2912V29.737C25.5897 30.3343 25.2681 30.9086 24.7627 31.2072L21.8913 32.9301C21.5697 33.0909 21.271 33.1828 20.9724 33.1828Z" fill="#02A6F5"/>
<path d="M45.5974 22.9146L44.1731 38.4894C43.6907 43.0838 41.807 47.77 31.6994 47.77H14.1949C4.08734 47.77 2.20366 43.0838 1.74422 38.5124L0.342941 23.5578C0.365913 23.5807 0.388885 23.6037 0.434829 23.6267C1.21587 24.1321 1.97394 24.6374 2.80092 25.0969C3.12253 25.3036 3.4671 25.4874 3.81168 25.6712C6.40749 27.0954 9.18707 28.221 12.0585 29.0021C13.2071 29.3466 14.3787 29.5993 15.5732 29.8061C16.0327 33.4816 19.1798 36.3301 22.9702 36.3301C26.8064 36.3301 29.9766 33.4127 30.39 29.6683V29.6453C31.5616 29.4156 32.7332 29.1169 33.8818 28.7724C36.7532 27.8765 39.5328 26.6819 42.1286 25.1658C42.2664 25.0969 42.3813 25.028 42.4732 24.959C43.5299 24.3847 44.5407 23.7186 45.5055 23.0294C45.5514 23.0064 45.5744 22.9605 45.5974 22.9146Z" fill="#1A40A9"/>
<path d="M43.8485 12.7383C41.8959 10.579 38.6569 9.49929 33.9017 9.49929H33.3504V9.40741C33.3504 5.54815 33.3504 0.77002 24.713 0.77002H21.2213C12.5838 0.77002 12.5838 5.54815 12.5838 9.40741V9.49929H12.0325C7.27736 9.49929 4.01537 10.579 2.08574 12.7383C-0.188465 15.2882 -0.11955 18.665 0.110168 20.9851L0.13314 21.1459L0.339885 23.558C0.362857 23.5809 0.408801 23.6039 0.454744 23.6269C1.23578 24.1323 1.99385 24.6376 2.82084 25.0971C3.14244 25.3038 3.48702 25.4876 3.83159 25.6714C6.42741 27.0956 9.20699 28.2212 12.0555 29.0023C12.1244 34.952 16.9944 39.776 22.9672 39.776C28.9858 39.776 33.8788 34.8831 33.8788 28.8645V28.7726C36.7732 27.8996 39.5528 26.6821 42.1486 25.166C42.2864 25.0971 42.3783 25.0282 42.4932 24.9592C43.5499 24.385 44.5606 23.7188 45.5255 23.0296C45.5484 23.0066 45.5944 22.9607 45.6173 22.9148L45.7092 22.0878L45.8241 21.0081C45.8471 20.8703 45.8471 20.7554 45.87 20.5946C46.0538 18.2975 46.0079 15.1274 43.8485 12.7383ZM15.8688 9.40741C15.8688 5.50221 15.8688 4.03201 21.2213 4.03201H24.713C30.0655 4.03201 30.0655 5.50221 30.0655 9.40741V9.49929H15.8688V9.40741ZM22.9672 36.3303C19.1768 36.3303 16.0296 33.4818 15.5702 29.8063C15.5242 29.5077 15.5013 29.1861 15.5013 28.8645C15.5013 24.7525 18.8552 21.3986 22.9672 21.3986C27.0791 21.3986 30.433 24.7525 30.433 28.8645C30.433 29.1401 30.41 29.3928 30.3871 29.6455V29.6685C29.9736 33.4129 26.8035 36.3303 22.9672 36.3303Z" fill="#02A6F5"/>
</svg>
