<svg width="181" height="79" viewBox="0 0 181 79" fill="none" xmlns="http://www.w3.org/2000/svg">
<path opacity="0.5" d="M115.24 9.90279C136.012 12.7955 158.901 20.6031 172.147 32.6009C184.762 43.994 184.407 59.0601 167.769 68.7208C151.66 78.0559 127.565 79.0644 108.086 78.997C87.5933 78.9148 66.7613 77.0834 47.4301 72.4421C30.5993 68.4094 11.277 61.9942 3.00621 49.9798C-2.69308 41.6549 0.215503 32.3158 7.49992 24.811C26.3522 5.4029 65.4356 -2.49504 96.2052 0.682415C117.232 2.8455 135.473 11.0782 148.134 23.0526C149.334 24.189 146.686 25.3842 145.556 24.2642C120.787 0.866598 76.9583 -3.03425 40.2864 8.97872C26.2498 13.5851 12.3209 21.0645 5.78023 31.4075C-0.843106 41.8851 5.69194 51.9168 16.9787 58.7247C33.4895 68.6785 56.442 73.0182 77.5461 75.1472C99.5708 77.3884 123.182 78.0451 145.067 73.9487C154.912 72.1079 164.579 68.882 171.386 63.2426C179.551 56.4466 180.053 47.2038 174.787 39.5345C164.564 24.5673 137.292 15.4834 115.512 12.2122L114.494 12.0659C112.547 11.8016 113.293 9.63219 115.24 9.90279Z" fill="#F4F5FB"/>
<path d="M83.0547 53.2651C80.3828 61.2105 69.7891 61.2105 69.7891 61.2105C69.7891 61.2105 69.7891 50.6167 77.7344 47.9448L83.0547 53.2651Z" fill="#02A6F5"/>
<path d="M104.266 37.3516V52.4922C104.259 52.9868 104.056 53.4585 103.703 53.8047L96.1328 61.3984C95.8926 61.6383 95.5918 61.8085 95.2625 61.8909C94.9332 61.9732 94.5877 61.9646 94.2629 61.8659C93.9381 61.7673 93.6461 61.5823 93.4182 61.3307C93.1903 61.0792 93.0349 60.7704 92.9687 60.4375L91 50.6172L104.266 37.3516Z" fill="#02A6F5"/>
<path d="M93.6484 26.7339H78.5078C78.0132 26.7409 77.5415 26.9431 77.1953 27.2964L69.6016 34.8667C69.3617 35.1069 69.1915 35.4077 69.1091 35.737C69.0268 36.0663 69.0354 36.4118 69.1341 36.7366C69.2327 37.0614 69.4177 37.3534 69.6693 37.5813C69.9208 37.8092 70.2296 37.9646 70.5625 38.0308L80.3828 39.9995L93.6484 26.7339Z" fill="#02A6F5"/>
<path d="M106.914 34.7029L91 50.617L80.3828 39.9998L96.2969 24.0857C102.32 18.0623 108.344 18.1326 110.922 18.5076C111.32 18.5607 111.689 18.7432 111.973 19.027C112.257 19.3108 112.439 19.6801 112.492 20.0779C112.867 22.656 112.938 28.6795 106.914 34.7029Z" fill="#1A40A9"/>
</svg>
