<?xml version="1.0" encoding="UTF-8"?>
<svg id="Layer_1" data-name="Layer 1" xmlns="http://www.w3.org/2000/svg" xmlns:xlink="http://www.w3.org/1999/xlink" viewBox="0 0 96.17 83.69">
  <defs>
    <style>
      .cls-1 {
        fill: url(#linear-gradient);
      }

      .cls-2 {
        fill: #bfeaff;
      }

      .cls-3 {
        fill: url(#linear-gradient-3);
      }

      .cls-4 {
        fill: url(#linear-gradient-4);
      }

      .cls-5 {
        fill: url(#linear-gradient-2);
      }
    </style>
    <linearGradient id="linear-gradient" x1="0" y1="46.48" x2="81.01" y2="46.48" gradientUnits="userSpaceOnUse">
      <stop offset="0" stop-color="#2f25a5"/>
      <stop offset=".21" stop-color="#204faa"/>
      <stop offset=".46" stop-color="#1278af"/>
      <stop offset=".68" stop-color="#0895b3"/>
      <stop offset=".86" stop-color="#02a7b6"/>
      <stop offset="1" stop-color="#00aeb7"/>
    </linearGradient>
    <linearGradient id="linear-gradient-2" x1="79.07" y1="33.88" x2="115.68" y2="71.41" xlink:href="#linear-gradient"/>
    <linearGradient id="linear-gradient-3" x1="38.15" y1="15.96" x2="100.38" y2="56.42" gradientUnits="userSpaceOnUse">
      <stop offset="0" stop-color="#2f25a5"/>
      <stop offset=".14" stop-color="#2934ae"/>
      <stop offset=".4" stop-color="#1a5ec8"/>
      <stop offset=".77" stop-color="#03a1f2"/>
      <stop offset=".83" stop-color="#00acf9"/>
    </linearGradient>
    <linearGradient id="linear-gradient-4" x1="31.73" y1="13.28" x2="31.11" y2="67.54" gradientUnits="userSpaceOnUse">
      <stop offset="0" stop-color="#2f25a5"/>
      <stop offset=".16" stop-color="#2d29a5"/>
      <stop offset=".33" stop-color="#2936a7"/>
      <stop offset=".51" stop-color="#214baa"/>
      <stop offset=".7" stop-color="#176aae"/>
      <stop offset=".88" stop-color="#0a90b3"/>
      <stop offset="1" stop-color="#00aeb7"/>
    </linearGradient>
  </defs>
  <rect class="cls-1" y="9.28" width="81.01" height="74.41" rx="8.6" ry="8.6"/>
  <rect class="cls-2" x="15.17" width="81.01" height="74.41" rx="8.6" ry="8.6"/>
  <g>
    <path class="cls-5" d="M85.58,10h-9.59c1.7,.01,3.4,0,5.1,0-1.77,2.56-3.8,6.01-5.5,10.32-1.57,4-2.41,7.63-2.88,10.55-.2,9.02-.4,18.03-.6,27.05,0,1.55,1.5,2.8,3.35,2.8h13.47V12.8c0-1.55-1.5-2.8-3.35-2.8Z"/>
    <path class="cls-3" d="M77.25,10.01h-5.65c-.58,.08-1.25,.24-1.94,.56-3.1,1.4-4,4.36-4.84,7.35s-1.7,6.06-2.54,9.09c-1.59,5.68-3.18,11.37-4.77,17.05-.34,1.22-.68,2.43-1.02,3.65-.06,.21-6.54-21.9-9.76-33.01-.26-.71-1.21-3-3.59-4.12-.71-.33-1.38-.49-1.95-.56h-5.65v15.7c0,.29,.05,.58,.16,.86l12,32.21c.43,1.16,1.68,1.94,3.08,1.94,0,0,5.61,0,5.61-.01h5.61c1.41,0,2.65-.78,3.08-1.94l12.16-32.63c.82-3.24,2.42-7.69,5.72-12.11,1.15-1.54,2.33-2.84,3.46-3.95-.13-.03-.26-.05-.41-.07-.26-.03-.49-.03-.7-.02-.21,0-1.58,0-1.79,0-1.95,0-4.34,0-6.29,.01Z"/>
    <path class="cls-4" d="M40.5,10.01h-14.49c-1.99,0-3.6,1.25-3.6,2.8V57.94c0,1.55,1.61,2.8,3.6,2.8h14.49V10.01Z"/>
  </g>
</svg>