<svg width="16" height="16" viewBox="0 0 16 16" fill="none" xmlns="http://www.w3.org/2000/svg">
<path d="M8.82676 7.96776C10.7308 6.07392 12.7509 4.30633 14.5868 2.33742C15.1498 1.73685 14.2455 0.830879 13.6825 1.43315C11.845 3.39524 9.82658 5.16112 7.9225 7.06349C7.33728 7.6453 8.24155 8.54956 8.82676 7.96776Z" fill="white"/>
<path d="M14.9519 5.31447C14.9843 4.06897 15.0457 2.80299 14.8546 1.56091L14.684 2.18366L14.7028 2.16148C15.1072 1.7264 14.7932 1.12925 14.2507 1.06953C13.0563 0.941569 11.8399 1.02005 10.6524 1.06953C9.8317 1.10365 9.82658 2.38328 10.6524 2.34915C11.8467 2.29967 13.0649 2.22119 14.2507 2.34915L13.7985 1.25721C13.4044 1.68204 13.6791 2.59143 13.6893 3.12375C13.703 3.85228 13.6893 4.57911 13.6654 5.30764C13.645 6.13001 14.9246 6.13001 14.9451 5.30764L14.9519 5.31447Z" fill="white"/>
<path d="M7.02681 1.15786C5.32065 1.15786 3.61449 1.1135 1.92197 1.21246C1.66946 1.22611 1.347 1.39843 1.30605 1.68165C1.00747 3.67616 1.14908 5.77645 1.11154 7.80508C1.0723 9.85247 0.85562 12.05 1.15932 14.0803L1.32993 13.4576L1.30775 13.4815C0.898274 13.9148 1.2088 14.5103 1.75306 14.5734C3.58889 14.7679 5.56463 14.5734 7.41752 14.5888C9.6543 14.6024 11.8945 14.6553 14.1279 14.5188C14.3804 14.5103 14.7045 14.3397 14.7455 14.0496C14.9809 12.4202 14.9554 10.7311 14.9997 9.08811C15.0219 8.26403 13.7423 8.26403 13.7201 9.08811C13.6791 10.6032 13.7201 12.2496 13.5119 13.7101L14.1279 13.2392C11.8945 13.3757 9.6543 13.3228 7.41752 13.3092C5.56463 13.2989 3.59742 13.4866 1.75306 13.2938L2.2069 14.3857C2.40311 14.1691 2.40311 14.0104 2.39287 13.7391C2.36728 13.1948 2.29392 12.6642 2.30074 12.1148C2.30074 11.6695 2.32463 11.2259 2.33486 10.7806C2.35363 9.92754 2.36728 9.07446 2.38264 8.22138L2.43553 5.45057C2.45771 4.30062 2.36899 3.16431 2.5396 2.01777L1.92197 2.48867C3.6179 2.38971 5.3343 2.42895 7.02681 2.43407C7.85089 2.43407 7.8526 1.15616 7.02681 1.15445V1.15786Z" fill="white"/>
</svg>
