<svg width="62" height="48" viewBox="0 0 62 48" fill="none" xmlns="http://www.w3.org/2000/svg">
<path opacity="0.2" d="M27.15 34.5C27.15 41.85 21.6 47.1 14.4 47.1C6.15 47.1 0.600001 40.05 0.600001 29.4C0.600001 18.3 6.6 6.14999 15 -1.43051e-06L25.95 3.89999C19.8 9 15.3 16.5 15.3 21.9C22.2 21.9 27.15 27 27.15 34.5ZM61.05 34.5C61.05 41.85 55.5 47.1 48.45 47.1C40.05 47.1 34.65 40.05 34.65 29.4C34.65 18.3 40.5 6.14999 48.9 -1.43051e-06L60 3.89999C53.7 9 49.35 16.5 49.35 21.9C56.25 21.9 61.05 27 61.05 34.5Z" fill="white"/>
</svg>
