<svg width="38" height="24" viewBox="0 0 38 24" fill="none" xmlns="http://www.w3.org/2000/svg">
<path d="M10.5031 8.49317C10.5031 8.97441 10.5527 9.3646 10.6395 9.65074C10.7386 9.93688 10.8626 10.249 11.0361 10.5872C11.0981 10.6913 11.1229 10.7953 11.1229 10.8863C11.1229 11.0164 11.0485 11.1465 10.8874 11.2765L10.1064 11.8228C9.99489 11.9008 9.88333 11.9399 9.78416 11.9399C9.6602 11.9399 9.53624 11.8748 9.41229 11.7578C9.23875 11.5627 9.09 11.3546 8.96604 11.1465C8.84208 10.9254 8.71813 10.6782 8.58177 10.3791C7.6149 11.5757 6.40012 12.174 4.93742 12.174C3.89618 12.174 3.06566 11.8618 2.45827 11.2375C1.85088 10.6132 1.54099 9.7808 1.54099 8.74029C1.54099 7.63475 1.91286 6.73731 2.669 6.06098C3.42514 5.38464 4.42919 5.04648 5.70596 5.04648C6.12741 5.04648 6.56126 5.0855 7.01991 5.15053C7.47855 5.21556 7.94959 5.31961 8.44542 5.43667V4.4872C8.44542 3.49872 8.24709 2.80938 7.86282 2.40618C7.46615 2.00298 6.79678 1.80789 5.84231 1.80789C5.40846 1.80789 4.96221 1.85991 4.50357 1.97697C4.04493 2.09403 3.59868 2.2371 3.16483 2.41919C2.9665 2.51023 2.81775 2.56226 2.73098 2.58827C2.64421 2.61428 2.58223 2.62729 2.53265 2.62729C2.3591 2.62729 2.27233 2.49723 2.27233 2.22409V1.58678C2.27233 1.37868 2.29713 1.2226 2.3591 1.13156C2.42108 1.04051 2.53265 0.949466 2.70619 0.858422C3.14004 0.624307 3.66066 0.429211 4.26805 0.273134C4.87544 0.104051 5.52002 0.0260128 6.20179 0.0260128C7.67688 0.0260128 8.75531 0.377185 9.44947 1.07953C10.1312 1.78188 10.4783 2.8484 10.4783 4.2791V8.49317H10.5031ZM5.47044 10.4701C5.8795 10.4701 6.30095 10.3921 6.7472 10.236C7.19345 10.08 7.59011 9.79381 7.9248 9.40362C8.12313 9.1565 8.27188 8.88336 8.34625 8.57121C8.42063 8.25906 8.47021 7.88187 8.47021 7.43965V6.89339C8.11073 6.80234 7.72646 6.7243 7.3298 6.67228C6.93314 6.62025 6.54887 6.59424 6.1646 6.59424C5.33409 6.59424 4.72669 6.76332 4.31763 7.11449C3.90857 7.46567 3.71024 7.95991 3.71024 8.61023C3.71024 9.22153 3.85899 9.67675 4.16888 9.98891C4.46638 10.3141 4.90023 10.4701 5.47044 10.4701ZM15.4242 11.8748C15.2011 11.8748 15.0524 11.8358 14.9532 11.7448C14.854 11.6667 14.7673 11.4846 14.6929 11.2375L11.7799 1.18358C11.7055 0.923453 11.6683 0.75437 11.6683 0.663326C11.6683 0.455224 11.7675 0.338166 11.9658 0.338166H13.1806C13.4161 0.338166 13.5773 0.377185 13.664 0.46823C13.7632 0.546268 13.8376 0.728358 13.9119 0.975479L15.9944 9.58571L17.9282 0.975479C17.9901 0.715351 18.0645 0.546268 18.1637 0.46823C18.2629 0.390192 18.4364 0.338166 18.6595 0.338166H19.6512C19.8867 0.338166 20.0478 0.377185 20.147 0.46823C20.2462 0.546268 20.3329 0.728358 20.3825 0.975479L22.3411 9.68976L24.4855 0.975479C24.5599 0.715351 24.6467 0.546268 24.7334 0.46823C24.8326 0.390192 24.9937 0.338166 25.2169 0.338166H26.3697C26.568 0.338166 26.6796 0.442217 26.6796 0.663326C26.6796 0.728358 26.6672 0.79339 26.6548 0.871428C26.6424 0.949466 26.6176 1.05352 26.568 1.19659L23.5806 11.2505C23.5063 11.5107 23.4195 11.6797 23.3203 11.7578C23.2212 11.8358 23.06 11.8878 22.8493 11.8878H21.7832C21.5477 11.8878 21.3866 11.8488 21.2874 11.7578C21.1882 11.6667 21.1015 11.4976 21.0519 11.2375L19.1306 2.8484L17.2216 11.2245C17.1596 11.4846 17.0853 11.6537 16.9861 11.7448C16.8869 11.8358 16.7134 11.8748 16.4903 11.8748H15.4242ZM31.3528 12.226C30.7082 12.226 30.0636 12.148 29.4438 11.9919C28.824 11.8358 28.3406 11.6667 28.0183 11.4716C27.82 11.3546 27.6836 11.2245 27.634 11.1075C27.5845 10.9904 27.5597 10.8603 27.5597 10.7433V10.08C27.5597 9.80682 27.6588 9.67675 27.8448 9.67675C27.9191 9.67675 27.9935 9.68976 28.0679 9.71577C28.1423 9.74179 28.2538 9.79381 28.3778 9.84584C28.7992 10.0409 29.2579 10.197 29.7413 10.3011C30.2372 10.4051 30.7206 10.4571 31.2164 10.4571C31.9973 10.4571 32.6047 10.3141 33.0262 10.0279C33.4476 9.74178 33.6708 9.32558 33.6708 8.79232C33.6708 8.42814 33.5592 8.12899 33.3361 7.88187C33.113 7.63475 32.6915 7.41364 32.0841 7.20554L30.2867 6.62025C29.3818 6.3211 28.7125 5.87889 28.3034 5.2936C27.8944 4.72132 27.6836 4.08401 27.6836 3.40767C27.6836 2.86141 27.7952 2.38017 28.0183 1.96396C28.2414 1.54776 28.5389 1.18358 28.9108 0.897441C29.2827 0.598294 29.7041 0.377185 30.2 0.221109C30.6958 0.0650319 31.2164 0 31.7618 0C32.0345 0 32.3196 0.0130064 32.5923 0.0520255C32.8774 0.0910447 33.1378 0.14307 33.3981 0.195096C33.646 0.260128 33.8815 0.32516 34.1046 0.403198C34.3277 0.481236 34.5013 0.559275 34.6252 0.637313C34.7988 0.741364 34.9227 0.845415 34.9971 0.962473C35.0715 1.06652 35.1087 1.20959 35.1087 1.39168V2.00298C35.1087 2.27612 35.0095 2.41919 34.8236 2.41919C34.7244 2.41919 34.5633 2.36716 34.3525 2.26311C33.646 1.92495 32.8527 1.75586 31.9726 1.75586C31.266 1.75586 30.7082 1.87292 30.3239 2.12004C29.9397 2.36716 29.7413 2.74435 29.7413 3.27761C29.7413 3.64179 29.8653 3.95394 30.1132 4.20106C30.3611 4.44818 30.8197 4.69531 31.4767 4.91641L33.2369 5.5017C34.1294 5.80085 34.774 6.21705 35.1583 6.75032C35.5425 7.28358 35.7285 7.89488 35.7285 8.57121C35.7285 9.13048 35.6169 9.63773 35.4062 10.08C35.1831 10.5222 34.8856 10.9124 34.5013 11.2245C34.117 11.5497 33.6584 11.7838 33.1254 11.9529C32.5675 12.135 31.985 12.226 31.3528 12.226Z" fill="white"/>
<path fill-rule="evenodd" clip-rule="evenodd" d="M33.6957 18.547C29.6175 21.7076 23.6923 23.3854 18.5977 23.3854C11.4577 23.3854 5.02431 20.615 0.165175 16.0108C-0.219094 15.6466 0.127987 15.1523 0.58663 15.4385C5.84243 18.6381 12.3254 20.576 19.0315 20.576C23.556 20.576 28.5267 19.5875 33.1007 17.5585C33.7825 17.2334 34.3651 18.0268 33.6957 18.547Z" fill="#FF9900"/>
<path fill-rule="evenodd" clip-rule="evenodd" d="M35.3939 16.5181C34.8733 15.8157 31.9479 16.1799 30.6215 16.349C30.2249 16.401 30.1629 16.0368 30.5224 15.7637C32.8528 14.0468 36.6831 14.5411 37.1293 15.1134C37.5755 15.6987 37.0053 19.7176 34.8237 21.6426C34.489 21.9417 34.1667 21.7856 34.3155 21.3955C34.8113 20.1078 35.9145 17.2074 35.3939 16.5181Z" fill="#FF9900"/>
</svg>
