<svg width="97" height="30" viewBox="0 0 97 30" fill="none" xmlns="http://www.w3.org/2000/svg">
<path d="M16.527 27.4835C19.3355 26.9639 22.1436 26.4425 24.9514 25.9192L25.0305 25.9014L20.6972 20.4932C18.314 17.5188 16.364 15.0736 16.364 15.0597C16.364 15.0331 20.8384 2.10438 20.8636 2.05829C20.872 2.04306 23.917 7.55905 28.2448 15.4298C32.2967 22.7983 35.6371 28.8736 35.6682 28.9305L35.7246 29.034L21.9534 29.032L8.18202 29.0301L16.527 27.4835ZM69.3385 26.1755C67.2421 26.0346 66.023 24.7822 65.7 22.4377C65.6139 21.8142 65.6136 21.7978 65.6048 17.7494L65.5963 13.8309H67.4519L67.4591 17.6209C67.4657 21.037 67.4698 21.4375 67.5009 21.6776C67.6272 22.6529 67.8788 23.3088 68.3068 23.7794C68.6495 24.1562 69.0506 24.3769 69.6058 24.4938C69.8679 24.5491 70.6132 24.5491 70.8519 24.494C71.4147 24.3641 71.866 24.107 72.264 23.6896C72.7178 23.2138 73.0532 22.5387 73.2157 21.7755L73.2703 21.5181L73.2765 17.6959L73.2825 13.8738H75.1769V25.8908H73.3021V24.9376C73.3021 24.2899 73.2953 23.9865 73.281 23.9916C73.2694 23.9956 73.2211 24.0729 73.1739 24.1634C72.8508 24.7814 72.3127 25.3469 71.7229 25.6874C71.016 26.0955 70.3072 26.2406 69.3385 26.1755ZM90.6156 26.166C89.8756 26.1075 89.0964 25.8405 88.4596 25.427C87.1174 24.5561 86.3233 23.1201 86.0906 21.1438C86.0102 20.4601 86.0006 19.5414 86.0677 18.9603C86.2176 17.662 86.7039 16.3873 87.3964 15.4774C87.5739 15.2443 87.9766 14.8217 88.1988 14.6356C88.7975 14.1334 89.4983 13.7823 90.2469 13.6096C90.6813 13.51 91.4464 13.4632 91.9077 13.5081C93.0672 13.6209 94.1298 14.1936 94.8518 15.0949C95.5856 16.011 95.9889 17.2908 96.0405 18.8666C96.0485 19.1136 96.0505 19.5465 96.0449 19.8288L96.0345 20.342L91.9742 20.3474L87.9137 20.3527V20.5429C87.9137 21.1217 88.0476 21.7809 88.2796 22.3417C88.4794 22.8255 88.8236 23.3536 89.1054 23.6092C89.6832 24.1333 90.3902 24.447 91.1639 24.5224C91.4507 24.5504 92.1822 24.5209 92.5089 24.4681C93.4418 24.3177 94.3285 23.9339 95.0446 23.3706C95.1035 23.3235 95.1633 23.2776 95.2239 23.2329C95.2448 23.2191 95.2498 23.3923 95.2493 24.1204L95.2486 25.0248L95.0567 25.1494C94.2465 25.675 93.3184 26.0127 92.3359 26.1389C92.0424 26.1766 90.9664 26.1938 90.6156 26.166ZM94.1496 18.5375C94.1496 17.5679 93.76 16.4909 93.209 15.9364C92.8158 15.5406 92.3405 15.2987 91.7752 15.2069C91.5079 15.1635 90.9445 15.1803 90.6626 15.2399C90.0667 15.3663 89.5739 15.6412 89.1439 16.0868C88.6916 16.5559 88.3524 17.1257 88.1391 17.7748C88.0623 18.0083 87.9726 18.3914 87.9449 18.6047L87.9314 18.7063H94.1494L94.1496 18.5375ZM39.0702 25.8641C39.0749 25.8493 40.4538 22.0486 42.1342 17.4181L45.1897 8.99866H47.1531L47.2346 9.21767C47.4834 9.88749 53.3514 25.8725 53.3514 25.8809C53.3514 25.8862 52.8813 25.8908 52.307 25.8906L51.2626 25.8904L50.4168 23.5279L49.571 21.1651H42.7608L42.731 21.2453C42.7147 21.2895 42.3535 22.3526 41.928 23.6077L41.1548 25.89L40.108 25.8904C39.2796 25.8906 39.0633 25.8853 39.0702 25.8641ZM48.9497 19.3622C48.9497 19.3584 48.3805 17.7395 47.6847 15.7646C46.3833 12.0698 46.3107 11.8476 46.2078 11.2543C46.1597 10.9763 46.1352 10.9687 46.1065 11.2223C46.0862 11.4037 45.9976 11.8097 45.929 12.0348C45.8951 12.1466 45.3092 13.8342 44.6269 15.7853C43.9444 17.7363 43.3863 19.3406 43.3863 19.3507C43.3863 19.3608 44.6379 19.369 46.1679 19.369C47.6978 19.369 48.9497 19.3658 48.9497 19.3622ZM53.9831 25.583V25.2754L57.3758 20.3818L60.7684 15.4882L57.6967 15.4774L54.6251 15.4667L54.6196 14.6489L54.6143 13.8309H63.4999V14.3834L60.107 19.3037C58.2407 22.01 56.7139 24.2287 56.7139 24.2342C56.7139 24.2398 58.2224 24.2443 60.0661 24.2443H63.4184V25.8908H53.9831V25.583ZM78.8791 25.8765C78.8716 25.8687 78.8655 23.1552 78.8655 19.8467V13.8309H80.7199V15.0711C80.7199 15.7533 80.7277 16.3113 80.7375 16.3113C80.7472 16.3113 80.7922 16.1997 80.8377 16.0632C81.0463 15.4379 81.4077 14.8537 81.8736 14.3891C82.2931 13.9709 82.7726 13.7207 83.3386 13.6249C83.4976 13.5982 83.6321 13.5929 83.9499 13.6016C84.3492 13.6125 84.5579 13.6432 84.8008 13.7264L84.877 13.7527V15.7724L84.6581 15.6573C84.2711 15.4541 83.8893 15.3736 83.4302 15.3987C83.1315 15.4149 82.9354 15.4553 82.6966 15.5492C82.2117 15.7372 81.8005 16.0896 81.5282 16.5506C81.1249 17.2255 80.8374 18.093 80.7526 18.8904C80.7374 19.0334 80.7285 20.1988 80.7248 22.4962L80.7194 25.8908H79.806C79.3036 25.8908 78.8865 25.8843 78.8791 25.8765ZM0 25.8342C0 25.8266 2.04179 22.1077 4.53734 17.5698L9.07468 9.31918L14.3624 4.66326C17.2705 2.10248 19.6579 0.00391335 19.6675 0.000104358C19.6769 -0.00370463 19.6388 0.0972337 19.5824 0.224454C19.5261 0.351865 16.9423 6.16667 13.8407 13.1465L8.20126 25.8371L4.10063 25.8426C1.84539 25.8456 0 25.8418 0 25.8342Z" fill="#0089D6"/>
</svg>
