<svg width="36" height="28" viewBox="0 0 36 28" fill="none" xmlns="http://www.w3.org/2000/svg">
<path d="M17.7754 18.6695V15.0494C21.4273 15.0494 24.2621 11.2493 22.8598 7.2164C22.3453 5.73449 21.2054 4.53837 19.783 3.99853C15.9394 2.53778 12.3177 5.50161 12.3177 9.33343H8.87766C8.87766 3.22581 14.5068 -1.53749 20.6102 0.463094C23.2735 1.34166 25.4021 3.56454 26.2293 6.35901C28.136 12.763 23.5963 18.6695 17.7754 18.6695Z" fill="#0080FF"/>
<path fill-rule="evenodd" clip-rule="evenodd" d="M14.3455 11.4609H17.7856V15.0705H14.3455V11.4609Z" fill="#0080FF"/>
<path fill-rule="evenodd" clip-rule="evenodd" d="M11.7125 17.833V15.0703H14.3455V17.833H11.7125Z" fill="#0080FF"/>
<path fill-rule="evenodd" clip-rule="evenodd" d="M11.7123 15.0701H9.50296V12.752H11.7123V15.0701Z" fill="#0080FF"/>
<path d="M3.0668 22.3316C2.62292 22.0035 2.05798 21.8447 1.41234 21.8447H0V26.5551H1.42243C2.06807 26.5551 2.63301 26.3857 3.07689 26.0364C3.319 25.8565 3.51068 25.6024 3.65191 25.2849C3.78306 24.9673 3.85368 24.5863 3.85368 24.1735C3.85368 23.7606 3.78306 23.3902 3.65191 23.0726C3.51068 22.755 3.31901 22.501 3.0668 22.3316ZM0.827229 22.6386H1.27111C1.76543 22.6386 2.16895 22.7445 2.48169 22.9456C2.82469 23.1679 2.99618 23.5807 2.99618 24.1735C2.99618 24.7874 2.82469 25.2214 2.48169 25.4543C2.18913 25.6554 1.7856 25.7612 1.2812 25.7612H0.827229V22.6386Z" fill="#0080FF"/>
<path d="M4.83215 21.7817C4.69092 21.7817 4.57995 21.8347 4.47906 21.9299C4.38827 22.0252 4.33783 22.1416 4.33783 22.2898C4.33783 22.438 4.38827 22.5545 4.47906 22.6603C4.56986 22.7556 4.69092 22.8085 4.83215 22.8085C4.9633 22.8085 5.08435 22.7556 5.18524 22.6603C5.27603 22.565 5.32647 22.438 5.32647 22.2898C5.32647 22.1416 5.27603 22.0252 5.18524 21.9299C5.08435 21.8347 4.9633 21.7817 4.83215 21.7817Z" fill="#0080FF"/>
<path d="M4.42868 23.2319H5.22564V26.5557H4.42868V23.2319Z" fill="#0080FF"/>
<path d="M8.12094 23.5069C7.87882 23.2846 7.61653 23.147 7.32397 23.147C6.88009 23.147 6.51692 23.3057 6.23445 23.6233C5.95198 23.9303 5.80066 24.3325 5.80066 24.8194C5.80066 25.2852 5.94189 25.6874 6.22436 26.005C6.50683 26.3119 6.88009 26.4707 7.31388 26.4707C7.61653 26.4707 7.88891 26.386 8.10076 26.2061V26.2802C8.10076 26.5554 8.03014 26.7671 7.88891 26.9153C7.74767 27.0635 7.556 27.1376 7.31388 27.1376C6.95071 27.1376 6.71868 26.9894 6.43621 26.5871L5.89145 27.1376L5.90154 27.1587C6.0226 27.3281 6.1941 27.4975 6.43621 27.6562C6.66824 27.815 6.97089 27.8997 7.32397 27.8997C7.79812 27.8997 8.18146 27.7515 8.46393 27.4445C8.7464 27.1376 8.88764 26.7353 8.88764 26.2378V23.2211H8.10076V23.5069H8.12094ZM7.90908 25.4757C7.76785 25.6451 7.58626 25.7192 7.36432 25.7192C7.1323 25.7192 6.9608 25.6345 6.81956 25.4757C6.67833 25.3063 6.6178 25.0946 6.6178 24.83C6.6178 24.5548 6.68842 24.3431 6.81956 24.1737C6.95071 24.0044 7.14238 23.9303 7.36432 23.9303C7.59635 23.9303 7.76785 24.015 7.90908 24.1737C8.05032 24.3431 8.12094 24.5654 8.12094 24.83C8.12094 25.0946 8.05032 25.3063 7.90908 25.4757Z" fill="#0080FF"/>
<path d="M9.5838 23.2319H10.3808V26.5557H9.5838V23.2319Z" fill="#0080FF"/>
<path d="M9.98724 21.7817C9.84601 21.7817 9.73504 21.8347 9.63415 21.9299C9.54336 22.0252 9.49292 22.1416 9.49292 22.2898C9.49292 22.438 9.54336 22.5545 9.63415 22.6603C9.72495 22.7556 9.84601 22.8085 9.98724 22.8085C10.1184 22.8085 10.2394 22.7556 10.3403 22.6603C10.4311 22.565 10.4816 22.438 10.4816 22.2898C10.4816 22.1416 10.4311 22.0252 10.3403 21.9299C10.2394 21.8347 10.1285 21.7817 9.98724 21.7817Z" fill="#0080FF"/>
<path d="M12.1259 22.332H11.339V23.2318H10.885V23.9939H11.339V25.37C11.339 25.8039 11.4197 26.1109 11.5811 26.2909C11.7425 26.4708 12.0351 26.5555 12.4386 26.5555C12.5698 26.5555 12.7009 26.5555 12.822 26.5449H12.8623V25.7828L12.5899 25.7934C12.3983 25.7934 12.2772 25.7616 12.2167 25.6875C12.1561 25.6134 12.1259 25.4652 12.1259 25.2429V23.9833H12.8724V23.2212H12.1259V22.332Z" fill="#0080FF"/>
<path d="M16.6051 21.835H17.4021V26.5559H16.6051V21.835Z" fill="#0080FF"/>
<path d="M25.4523 25.3697C25.3111 25.539 25.1598 25.6872 25.0488 25.7613C24.9378 25.8354 24.7966 25.8778 24.6352 25.8778C24.4032 25.8778 24.2115 25.7931 24.0602 25.6025C23.9088 25.4226 23.8281 25.1791 23.8281 24.9039C23.8281 24.6181 23.9088 24.3853 24.0602 24.2053C24.2115 24.0254 24.4032 23.9301 24.6352 23.9301C24.8874 23.9301 25.1598 24.0995 25.3918 24.3853L25.9164 23.856C25.5734 23.3903 25.1396 23.168 24.615 23.168C24.1812 23.168 23.7979 23.3373 23.4851 23.6655C23.1724 23.9936 23.0211 24.4064 23.0211 24.9039C23.0211 25.4014 23.1825 25.8143 23.4851 26.1424C23.7979 26.4705 24.1711 26.6399 24.615 26.6399C25.19 26.6399 25.6541 26.3753 25.9769 25.8989L25.4523 25.3697Z" fill="#0080FF"/>
<path d="M28.7311 23.6976C28.6201 23.5282 28.4688 23.4012 28.2771 23.3059C28.0854 23.2106 27.8635 23.1577 27.6214 23.1577C27.1775 23.1577 26.8143 23.3271 26.5419 23.6658C26.2796 24.0045 26.1384 24.4173 26.1384 24.9148C26.1384 25.4229 26.2897 25.8358 26.5722 26.1533C26.8647 26.4709 27.2481 26.6296 27.7222 26.6296C28.2569 26.6296 28.7008 26.3968 29.0337 25.9522L29.0539 25.931L28.5293 25.4018C28.4789 25.4653 28.4082 25.5288 28.3477 25.5923C28.267 25.6664 28.1964 25.7299 28.1157 25.7722C27.9946 25.8358 27.8635 25.8675 27.7122 25.8675C27.4902 25.8675 27.3086 25.804 27.1674 25.6664C27.0362 25.5394 26.9555 25.37 26.9354 25.1583H29.0438L29.0539 24.8513C29.0539 24.6396 29.0236 24.4279 28.9732 24.2374C28.9227 24.0469 28.842 23.8669 28.7311 23.6976ZM26.9858 24.4809C27.0262 24.3221 27.0968 24.1845 27.1977 24.0892C27.3086 23.9728 27.4499 23.9198 27.6113 23.9198C27.8029 23.9198 27.9543 23.9728 28.0551 24.0892C28.1459 24.1951 28.2065 24.3221 28.2166 24.4809H26.9858Z" fill="#0080FF"/>
<path d="M31.7878 23.4859C31.5457 23.2742 31.2128 23.1577 30.7992 23.1577C30.5369 23.1577 30.2847 23.2212 30.0628 23.3377C29.8509 23.4435 29.6491 23.634 29.518 23.8669L29.5281 23.8775L30.0426 24.3856C30.2544 24.0363 30.4865 23.9093 30.7992 23.9093C30.9707 23.9093 31.1018 23.9516 31.2128 24.0469C31.3137 24.1421 31.3742 24.2586 31.3742 24.4068V24.5655C31.1725 24.502 30.9808 24.4703 30.7891 24.4703C30.3957 24.4703 30.0729 24.5655 29.8307 24.7561C29.5886 24.9466 29.4676 25.2324 29.4676 25.5923C29.4676 25.9098 29.5684 26.1533 29.7803 26.3438C29.9921 26.5238 30.2443 26.6191 30.547 26.6191C30.8496 26.6191 31.1321 26.492 31.3944 26.2697V26.545H32.1813V24.4068C32.151 24.0151 32.03 23.6976 31.7878 23.4859ZM30.3755 25.2853C30.4663 25.2218 30.5974 25.1901 30.7588 25.1901C30.9505 25.1901 31.1523 25.2324 31.3641 25.3065V25.6346C31.1926 25.804 30.9606 25.8887 30.6781 25.8887C30.5369 25.8887 30.436 25.8569 30.3553 25.7934C30.2847 25.7299 30.2443 25.6558 30.2443 25.55C30.2443 25.4335 30.2847 25.3488 30.3755 25.2853Z" fill="#0080FF"/>
<path d="M35.2177 23.5494C34.9958 23.2847 34.6831 23.1577 34.2896 23.1577C33.9769 23.1577 33.7146 23.253 33.5229 23.4435V23.2424H32.7461V26.5555H33.5431V24.7243C33.5431 24.4703 33.6036 24.2692 33.7146 24.1315C33.8256 23.9939 33.9769 23.9198 34.1887 23.9198C34.3703 23.9198 34.5015 23.9834 34.6023 24.1104C34.7032 24.2374 34.7537 24.4173 34.7537 24.629V26.5555H35.5506V24.629C35.5506 24.1739 35.4397 23.8034 35.2177 23.5494Z" fill="#0080FF"/>
<path d="M15.6063 23.4859C15.3642 23.2742 15.0313 23.1577 14.6177 23.1577C14.3554 23.1577 14.1032 23.2212 13.8812 23.3377C13.6694 23.4435 13.4676 23.634 13.3365 23.8669L13.3466 23.8775L13.8611 24.3856C14.0729 24.0363 14.3049 23.9093 14.6177 23.9093C14.7892 23.9093 14.9203 23.9516 15.0313 24.0469C15.1322 24.1421 15.1927 24.2586 15.1927 24.4068V24.5655C14.9909 24.502 14.7993 24.4703 14.6076 24.4703C14.2142 24.4703 13.8913 24.5655 13.6492 24.7561C13.4071 24.9466 13.286 25.2324 13.286 25.5923C13.286 25.9098 13.3869 26.1533 13.5988 26.3438C13.8106 26.5238 14.0628 26.6191 14.3655 26.6191C14.6681 26.6191 14.9506 26.492 15.2129 26.2697V26.545H15.9998V24.4068C15.9695 24.0151 15.8484 23.6976 15.6063 23.4859ZM14.194 25.2853C14.2848 25.2218 14.4159 25.1901 14.5773 25.1901C14.769 25.1901 14.9708 25.2324 15.1826 25.3065V25.6346C15.0111 25.804 14.7791 25.8887 14.4966 25.8887C14.3554 25.8887 14.2545 25.8569 14.1738 25.7934C14.1032 25.7299 14.0628 25.6558 14.0628 25.55C14.0628 25.4335 14.1032 25.3488 14.194 25.2853Z" fill="#0080FF"/>
<path d="M20.2974 26.6294C19.0162 26.6294 17.9771 25.5391 17.9771 24.1948C17.9771 22.8505 19.0162 21.7603 20.2974 21.7603C21.5786 21.7603 22.6176 22.8505 22.6176 24.1948C22.6176 25.5391 21.5786 26.6294 20.2974 26.6294ZM20.2974 22.6176C19.4701 22.6176 18.7942 23.3269 18.7942 24.1948C18.7942 25.0628 19.4701 25.772 20.2974 25.772C21.1246 25.772 21.8005 25.0628 21.8005 24.1948C21.8005 23.3269 21.1246 22.6176 20.2974 22.6176Z" fill="#0080FF"/>
</svg>
