<svg width="120" height="30" viewBox="0 0 120 30" fill="none" xmlns="http://www.w3.org/2000/svg">
<path d="M90.4682 22.9773L90.4601 17.7916M90.4601 17.7916L90.4355 8.52719M90.4601 17.7916L95.4352 12.5198M90.4601 17.7916L95.4598 22.9946M62.1309 17.8602C62.1551 16.7482 61.8468 15.6118 61.2228 14.692C60.3231 13.3668 58.8674 12.462 57.2704 12.4425C57.1641 12.4425 57.0585 12.4425 56.9513 12.451C56.3199 12.492 55.7085 12.5839 55.1674 12.8203C51.6091 14.3738 50.9787 19.5583 53.9808 21.9042C56.5808 23.9355 60.3628 23.1062 61.6728 20.0068C61.9495 19.3518 62.1311 18.5259 62.1311 17.8602V8.48438M86.1397 13.0606C85.4029 12.5612 84.5433 12.3808 83.693 12.3825C83.6008 12.3825 83.506 12.3871 83.4231 12.391C80.9646 12.502 78.6852 14.3247 78.6852 17.8602C78.6852 22.0401 82.9566 24.296 86.1478 22.325M100.484 21.8699C102.999 19.6099 108.037 15.0785 108.037 15.0785C108.037 15.0785 107.853 14.7137 107.734 14.5461C106.718 13.1144 105.164 12.3995 103.528 12.3995C99.4848 12.3995 96.4538 17.8855 100.484 21.8699ZM100.484 21.8699C100.763 22.1458 101.147 22.3617 101.573 22.5482C103.051 23.1951 105.076 23.1421 106.171 22.2905M116.947 12.5198C115.706 12.5233 114.497 12.9794 113.601 13.859C112.187 15.083 111.88 16.6283 111.898 18.5815L111.939 23.0204M70.3951 12.4167C70.2804 12.4188 70.1665 12.4316 70.0515 12.4338C66.9854 12.493 64.7748 15.8345 65.4445 18.9334C66.0972 21.9533 69.2414 23.7415 71.958 22.7541C75.1215 21.8839 76.4116 17.7041 74.6746 14.8809C73.7247 13.3367 72.1145 12.3825 70.3951 12.4167Z" stroke="white" stroke-width="5" stroke-linecap="round" stroke-linejoin="round"/>
<path d="M28.5216 9.27943H32.9434V14.0222H35.1791C36.2118 14.0222 37.2737 13.8295 38.2514 13.4817C38.732 13.3106 39.2713 13.0728 39.7451 12.7735C39.1209 11.9185 38.8022 10.8388 38.7086 9.77453C38.5809 8.32677 38.8594 6.44276 39.7931 5.30952L40.2579 4.74543L40.8118 5.21273C42.2063 6.38818 43.3791 8.03093 43.5859 9.90358C45.265 9.38535 47.2365 9.50791 48.7167 10.4042L49.3239 10.7718L49.0042 11.4264C47.7525 13.9898 45.1356 14.7837 42.5772 14.6433C38.7488 24.6484 30.4138 29.3853 20.3078 29.3853C15.0865 29.3853 10.2964 27.3373 7.56857 22.4768C7.40865 22.1749 7.27173 21.8592 7.1265 21.5489C6.20445 19.4095 5.89813 17.0657 6.10583 14.7239L6.16829 14.0224H9.9495V9.27943H14.3714V4.63971H23.2151V0H28.5216V9.27943Z" fill="white"/>
<mask id="mask0_202_986" style="mask-type:luminance" maskUnits="userSpaceOnUse" x="6" y="0" width="43" height="29">
<path d="M14.697 0.405762V9.73957H10.4426V14.4065H6.88052C6.86563 14.5416 6.85344 14.677 6.84087 14.8123C6.61829 17.3549 7.04122 19.7 8.01335 21.7049L8.33939 22.3199C8.5349 22.6886 8.76309 23.0348 9.00424 23.3726C9.24481 23.7098 9.33009 23.8965 9.48151 24.1207C12.0516 27.1514 15.8825 28.6101 20.3051 28.6101C30.0996 28.6101 38.4121 24.0572 42.0908 13.8294C44.7009 14.1104 47.2046 13.4082 48.3456 11.0711C46.528 9.97068 44.1921 10.3233 42.8462 11.0331L46.4118 0.405762L32.4882 9.73957H28.0404V0.405762H14.697Z" fill="white"/>
</mask>
<g mask="url(#mask0_202_986)">
<path d="M23.9524 0.772949H27.7848V4.7944H23.9524V0.772949Z" fill="#20C2EF"/>
<path d="M24.4229 4.45936V1.10791V4.45936ZM24.9976 4.45915V1.10791V4.45915ZM25.5782 4.45915V1.10791V4.45915ZM26.1589 4.45915V1.10791V4.45915ZM26.7396 4.45915V1.10791V4.45915ZM27.3143 4.45915V1.10791V4.45915Z" fill="white"/>
<path d="M24.4229 4.45936V1.10791M24.9976 4.45915V1.10791M25.5782 4.45915V1.10791M26.1589 4.45915V1.10791M26.7396 4.45915V1.10791M27.3143 4.45915V1.10791" stroke="white" stroke-width="2.36067"/>
<path d="M28.3741 4.79492H32.2066V0.773877H28.3741V4.79492Z" fill="#00ACD3"/>
<path d="M28.8446 1.109V4.46045V1.109ZM29.4193 1.10921V4.46045V1.10921ZM29.9999 1.10921V4.46045V1.10921ZM30.5806 1.10921V4.46045V1.10921ZM31.1613 1.10921V4.46045V1.10921ZM31.7361 1.10921V4.46045V1.10921Z" fill="white"/>
<path d="M28.8446 1.109V4.46045M29.4193 1.10921V4.46045M29.9999 1.10921V4.46045M30.5806 1.10921V4.46045M31.1613 1.10921V4.46045M31.7361 1.10921V4.46045" stroke="white" stroke-width="2.36067"/>
<path d="M6.26474 5.41357H10.0972V9.43462H6.26474V5.41357Z" fill="#00ACD3"/>
<path d="M6.26471 10.0532H10.0972V14.0747H6.26471V10.0532Z" fill="#20C2EF"/>
<path d="M6.73526 9.09949V5.74805V9.09949ZM7.30999 9.09929V5.74805V9.09929ZM7.89053 9.09929V5.74805V9.09929ZM8.47125 9.09929V5.74805V9.09929ZM9.05198 9.09929V5.74805V9.09929ZM9.62672 9.09929V5.74805V9.09929Z" fill="white"/>
<path d="M6.73526 9.09949V5.74805M7.30999 9.09929V5.74805M7.89053 9.09929V5.74805M8.47125 9.09929V5.74805M9.05198 9.09929V5.74805M9.62672 9.09929V5.74805" stroke="white" stroke-width="2.36067"/>
<path d="M6.73526 13.7391V10.3877V13.7391ZM7.30999 13.7389V10.3877V13.7389ZM7.89053 13.7389V10.3877V13.7389ZM8.47125 13.7389V10.3877V13.7389ZM9.05198 13.7389V10.3877V13.7389ZM9.62672 13.7389V10.3877V13.7389Z" fill="white"/>
<path d="M6.73526 13.7391V10.3877M7.30999 13.7389V10.3877M7.89053 13.7389V10.3877M8.47125 13.7389V10.3877M9.05198 13.7389V10.3877M9.62672 13.7389V10.3877" stroke="white" stroke-width="2.36067"/>
<path d="M10.6868 14.0742H14.5192V10.0532H10.6868V14.0742Z" fill="#00ACD3"/>
<path d="M10.6867 9.43457H14.5192V5.41312H10.6867V9.43457Z" fill="#20C2EF"/>
<path d="M11.1571 10.3878V13.7393V10.3878ZM11.7318 10.388V13.7393V10.388ZM12.3124 10.388V13.7393V10.388ZM12.8931 10.388V13.7393V10.388ZM13.4738 10.388V13.7393V10.388ZM14.0486 10.388V13.7393V10.388Z" fill="white"/>
<path d="M11.1571 10.3878V13.7393M11.7318 10.388V13.7393M12.3124 10.388V13.7393M12.8931 10.388V13.7393M13.4738 10.388V13.7393M14.0486 10.388V13.7393" stroke="white" stroke-width="2.36067"/>
<path d="M11.1571 5.74816V9.09961V5.74816ZM11.7318 5.74837V9.09961V5.74837ZM12.3124 5.74837V9.09961V5.74837ZM12.8931 5.74837V9.09961V5.74837ZM13.4738 5.74837V9.09961V5.74837ZM14.0486 5.74837V9.09961V5.74837Z" fill="white"/>
<path d="M11.1571 5.74816V9.09961M11.7318 5.74837V9.09961M12.3124 5.74837V9.09961M12.8931 5.74837V9.09961M13.4738 5.74837V9.09961M14.0486 5.74837V9.09961" stroke="white" stroke-width="2.36067"/>
<path d="M15.1086 5.41357H18.9411V9.43462H15.1086V5.41357Z" fill="#00ACD3"/>
<path d="M15.1087 10.0532H18.9411V14.0747H15.1087V10.0532Z" fill="#20C2EF"/>
<path d="M15.5793 9.09949V5.74805V9.09949ZM16.154 9.09929V5.74805V9.09929ZM16.7346 9.09929V5.74805V9.09929ZM17.3153 9.09929V5.74805V9.09929ZM17.896 9.09929V5.74805V9.09929ZM18.4707 9.09929V5.74805V9.09929Z" fill="white"/>
<path d="M15.5793 9.09949V5.74805M16.154 9.09929V5.74805M16.7346 9.09929V5.74805M17.3153 9.09929V5.74805M17.896 9.09929V5.74805M18.4707 9.09929V5.74805" stroke="white" stroke-width="2.36067"/>
<path d="M15.5793 13.7391V10.3877V13.7391ZM16.154 13.7389V10.3877V13.7389ZM16.7346 13.7389V10.3877V13.7389ZM17.3153 13.7389V10.3877V13.7389ZM17.896 13.7389V10.3877V13.7389ZM18.4707 13.7389V10.3877V13.7389Z" fill="white"/>
<path d="M15.5793 13.7391V10.3877M16.154 13.7389V10.3877M16.7346 13.7389V10.3877M17.3153 13.7389V10.3877M17.896 13.7389V10.3877M18.4707 13.7389V10.3877" stroke="white" stroke-width="2.36067"/>
<path d="M19.5305 14.0742H23.3629V10.0532H19.5305V14.0742Z" fill="#00ACD3"/>
<path d="M19.5305 9.43457H23.363V5.41312H19.5305V9.43457Z" fill="#20C2EF"/>
<path d="M20.0011 10.3878V13.7393V10.3878ZM20.5758 10.388V13.7393V10.388ZM21.1563 10.388V13.7393V10.388ZM21.7371 10.388V13.7393V10.388ZM22.3178 10.388V13.7393V10.388ZM22.8925 10.388V13.7393V10.388Z" fill="white"/>
<path d="M20.0011 10.3878V13.7393M20.5758 10.388V13.7393M21.1563 10.388V13.7393M21.7371 10.388V13.7393M22.3178 10.388V13.7393M22.8925 10.388V13.7393" stroke="white" stroke-width="2.36067"/>
<path d="M20.0011 5.74816V9.09961V5.74816ZM20.5758 5.74837V9.09961V5.74837ZM21.1563 5.74837V9.09961V5.74837ZM21.7371 5.74837V9.09961V5.74837ZM22.3178 5.74837V9.09961V5.74837ZM22.8925 5.74837V9.09961V5.74837Z" fill="white"/>
<path d="M20.0011 5.74816V9.09961M20.5758 5.74837V9.09961M21.1563 5.74837V9.09961M21.7371 5.74837V9.09961M22.3178 5.74837V9.09961M22.8925 5.74837V9.09961" stroke="white" stroke-width="2.36067"/>
<path d="M23.9524 5.41357H27.7848V9.43462H23.9524V5.41357Z" fill="#00ACD3"/>
<path d="M23.9524 10.0532H27.7848V14.0747H23.9524V10.0532Z" fill="#20C2EF"/>
<path d="M24.4229 9.09949V5.74805V9.09949ZM24.9976 9.09929V5.74805V9.09929ZM25.5782 9.09929V5.74805V9.09929ZM26.1589 9.09929V5.74805V9.09929ZM26.7396 9.09929V5.74805V9.09929ZM27.3143 9.09929V5.74805V9.09929Z" fill="white"/>
<path d="M24.4229 9.09949V5.74805M24.9976 9.09929V5.74805M25.5782 9.09929V5.74805M26.1589 9.09929V5.74805M26.7396 9.09929V5.74805M27.3143 9.09929V5.74805" stroke="white" stroke-width="2.36067"/>
<path d="M24.4229 13.7391V10.3877V13.7391ZM24.9976 13.7389V10.3877V13.7389ZM25.5782 13.7389V10.3877V13.7389ZM26.1589 13.7389V10.3877V13.7389ZM26.7396 13.7389V10.3877V13.7389ZM27.3143 13.7389V10.3877V13.7389Z" fill="white"/>
<path d="M24.4229 13.7391V10.3877M24.9976 13.7389V10.3877M25.5782 13.7389V10.3877M26.1589 13.7389V10.3877M26.7396 13.7389V10.3877M27.3143 13.7389V10.3877" stroke="white" stroke-width="2.36067"/>
<path d="M28.3742 14.0742H32.2067V10.0532H28.3742V14.0742Z" fill="#00ACD3"/>
<path d="M28.3742 9.43457H32.2067V5.41312H28.3742V9.43457Z" fill="#20C2EF"/>
<path d="M28.8447 10.3878V13.7393V10.3878ZM29.4195 10.388V13.7393V10.388ZM30 10.388V13.7393V10.388ZM30.5807 10.388V13.7393V10.388ZM31.1614 10.388V13.7393V10.388ZM31.7362 10.388V13.7393V10.388Z" fill="white"/>
<path d="M28.8447 10.3878V13.7393M29.4195 10.388V13.7393M30 10.388V13.7393M30.5807 10.388V13.7393M31.1614 10.388V13.7393M31.7362 10.388V13.7393" stroke="white" stroke-width="2.36067"/>
<path d="M28.8447 5.74816V9.09961V5.74816ZM29.4195 5.74837V9.09961V5.74837ZM30 5.74837V9.09961V5.74837ZM30.5807 5.74837V9.09961V5.74837ZM31.1614 5.74837V9.09961V5.74837ZM31.7362 5.74837V9.09961V5.74837Z" fill="white"/>
<path d="M28.8447 5.74816V9.09961M29.4195 5.74837V9.09961M30 5.74837V9.09961M30.5807 5.74837V9.09961M31.1614 5.74837V9.09961M31.7362 5.74837V9.09961" stroke="white" stroke-width="2.36067"/>
</g>
<mask id="mask1_202_986" style="mask-type:luminance" maskUnits="userSpaceOnUse" x="6" y="0" width="43" height="29">
<path d="M14.697 0.405762V9.73957H10.4426V14.4065H6.88052C6.86563 14.5416 6.85344 14.677 6.84087 14.8123C6.61829 17.3549 7.04122 19.7 8.01335 21.7049L8.33939 22.3199C8.5349 22.6886 8.76309 23.0348 9.00424 23.3726C9.24481 23.7098 9.33009 23.8965 9.48151 24.1207C12.0516 27.1514 15.8825 28.6101 20.3051 28.6101C30.0996 28.6101 38.4121 24.0572 42.0908 13.8294C44.7009 14.1104 47.2046 13.4082 48.3456 11.0711C46.528 9.97068 44.1921 10.3233 42.8462 11.0331L46.4118 0.405762L32.4882 9.73957H28.0404V0.405762H14.697Z" fill="white"/>
</mask>
<g mask="url(#mask1_202_986)">
<path d="M42.8479 11.034C43.1443 8.61618 41.4199 6.71716 40.3505 5.81543C39.1181 7.31046 38.9266 11.2286 40.8601 12.8783C39.781 13.8839 37.5074 14.7954 35.1793 14.7954H6.57511C6.34885 17.3453 6.57511 29.6246 6.57511 29.6246H48.5391L48.3482 11.0738C46.5308 9.97324 44.1936 10.3245 42.8479 11.034Z" fill="#17B5EB"/>
</g>
<mask id="mask2_202_986" style="mask-type:luminance" maskUnits="userSpaceOnUse" x="6" y="0" width="43" height="29">
<path d="M14.697 0.405762V9.73957H10.4426V14.4065H6.88052C6.86563 14.5416 6.85344 14.677 6.84087 14.8123C6.61829 17.3549 7.04122 19.7 8.01335 21.7049L8.33939 22.3199C8.5349 22.6886 8.76309 23.0348 9.00424 23.3726C9.24481 23.7098 9.33009 23.8965 9.48151 24.1207C12.0516 27.1514 15.8825 28.6101 20.3051 28.6101C30.0996 28.6101 38.4121 24.0572 42.0908 13.8294C44.7009 14.1104 47.2046 13.4082 48.3456 11.0711C46.528 9.97068 44.1921 10.3233 42.8462 11.0331L46.4118 0.405762L32.4882 9.73957H28.0404V0.405762H14.697Z" fill="white"/>
</mask>
<g mask="url(#mask2_202_986)">
<path d="M6.57507 18.0586V29.6244H48.5391V18.0586" fill="white" fill-opacity="0.17"/>
</g>
<mask id="mask3_202_986" style="mask-type:luminance" maskUnits="userSpaceOnUse" x="6" y="0" width="43" height="29">
<path d="M14.697 0.405762V9.73957H10.4426V14.4065H6.88052C6.86563 14.5416 6.85344 14.677 6.84087 14.8123C6.61829 17.3549 7.04122 19.7 8.01335 21.7049L8.33939 22.3199C8.5349 22.6886 8.76309 23.0348 9.00424 23.3726C9.24481 23.7098 9.33009 23.8965 9.48151 24.1207C12.0516 27.1514 15.8825 28.6101 20.3051 28.6101C30.0996 28.6101 38.4121 24.0572 42.0908 13.8294C44.7009 14.1104 47.2046 13.4082 48.3456 11.0711C46.528 9.97068 44.1921 10.3233 42.8462 11.0331L46.4118 0.405762L32.4882 9.73957H28.0404V0.405762H14.697Z" fill="white"/>
</mask>
<g mask="url(#mask3_202_986)">
<path d="M21.5114 28.5878C18.893 27.2841 17.456 25.5117 16.6563 23.5771L8.70233 23.9432L12.7634 29.6246L21.5114 28.5878Z" fill="#D4EDF1"/>
</g>
<mask id="mask4_202_986" style="mask-type:luminance" maskUnits="userSpaceOnUse" x="6" y="0" width="43" height="29">
<path d="M14.697 0.405762V9.73957H10.4426V14.4065H6.88052C6.86563 14.5416 6.85344 14.677 6.84087 14.8123C6.61829 17.3549 7.04122 19.7 8.01335 21.7049L8.33939 22.3199C8.5349 22.6886 8.76309 23.0348 9.00424 23.3726C9.24481 23.7098 9.33009 23.8965 9.48151 24.1207C12.0516 27.1514 15.8825 28.6101 20.3051 28.6101C30.0996 28.6101 38.4121 24.0572 42.0908 13.8294C44.7009 14.1104 47.2046 13.4082 48.3456 11.0711C46.528 9.97068 44.1921 10.3233 42.8462 11.0331L46.4118 0.405762L32.4882 9.73957H28.0404V0.405762H14.697Z" fill="white"/>
</mask>
<g mask="url(#mask4_202_986)">
<path d="M43.0277 10.9446V10.9506C38.9935 16.4069 33.2071 21.1732 26.9951 23.6771C21.4537 25.9105 16.6223 25.9213 13.2891 24.1271C12.9302 23.9145 12.5782 23.6785 12.2255 23.4551C9.78174 21.663 8.40525 18.6985 8.52089 14.7933H6.57507V29.6248H48.5391V10.1455H43.7045L43.0277 10.9446Z" fill="white" fill-opacity="0.085"/>
</g>
<path d="M8.82306 23.7462C11.5623 23.9037 14.4857 23.9319 17.0358 23.0933" stroke="white" stroke-width="5.14505" stroke-linecap="round"/>
<path d="M19.7579 21.7027C19.7598 21.8496 19.7339 21.9955 19.6816 22.1318C19.6293 22.2681 19.5517 22.3922 19.4534 22.4968C19.355 22.6014 19.2379 22.6844 19.1087 22.7411C18.9795 22.7978 18.8408 22.827 18.7008 22.827C18.5607 22.827 18.4221 22.7978 18.2929 22.7411C18.1637 22.6844 18.0465 22.6014 17.9482 22.4968C17.8498 22.3922 17.7723 22.2681 17.72 22.1318C17.6677 21.9955 17.6418 21.8496 17.6437 21.7027C17.6474 21.4111 17.7604 21.1328 17.9583 20.928C18.1561 20.7232 18.4229 20.6084 18.7008 20.6084C18.9787 20.6084 19.2454 20.7232 19.4433 20.928C19.6411 21.1328 19.7541 21.4111 19.7579 21.7027Z" fill="#D4EDF1"/>
<path d="M18.9749 20.9618C18.9161 20.9975 18.8701 21.0526 18.8441 21.1185C18.8182 21.1844 18.8136 21.2574 18.8312 21.3263C18.8488 21.3952 18.8875 21.456 18.9414 21.4995C18.9952 21.543 19.0612 21.5666 19.1292 21.5667C19.2462 21.5667 19.3477 21.4985 19.4003 21.3981C19.4672 21.5671 19.4763 21.7552 19.4262 21.9306C19.3761 22.1059 19.2698 22.2577 19.1254 22.3603C18.9809 22.4629 18.8071 22.51 18.6334 22.4936C18.4596 22.4773 18.2966 22.3985 18.1718 22.2705C18.0471 22.1426 17.9683 21.9734 17.9487 21.7915C17.9291 21.6096 17.97 21.4263 18.0644 21.2724C18.1589 21.1185 18.301 21.0035 18.4669 20.9469C18.6328 20.8903 18.8123 20.8956 18.9749 20.9618ZM0 18.2946H49.1824C48.1116 18.0095 45.7943 17.6246 46.1765 16.1519C44.2291 18.5161 39.5332 17.8104 38.3479 16.6447C37.0283 18.6531 29.3452 17.8898 28.8093 16.3251C27.1548 18.3623 22.028 18.3623 20.3734 16.3251C19.8372 17.8896 12.1543 18.6531 10.8344 16.6447C9.6494 17.8104 4.95369 18.5161 3.00632 16.1519C3.38845 17.6246 1.07115 18.0095 0 18.2946Z" fill="white"/>
</svg>
