<svg width="94" height="16" viewBox="0 0 94 16" fill="none" xmlns="http://www.w3.org/2000/svg">
<path d="M11.0504 4.04947H11.5814L13.095 2.46126L13.1693 1.7867C10.3521 -0.822664 6.05261 -0.540777 3.56575 2.41519C2.87478 3.23562 2.37406 4.2129 2.10018 5.27025C2.26848 5.19786 2.4556 5.18579 2.63121 5.23734L5.65851 4.71306C5.65851 4.71306 5.81218 4.44543 5.89267 4.46188C7.23907 2.90986 9.50536 2.72888 11.0608 4.04947H11.0504Z" fill="#EA4335"/>
<path d="M15.2516 5.26993C14.9035 3.92521 14.1896 2.7165 13.1965 1.79297L11.0724 4.02173C11.9693 4.79062 12.4804 5.94997 12.4585 7.16526V7.56122C13.5028 7.56122 14.3495 8.44965 14.3495 9.54539C14.3495 10.6411 13.5028 11.5296 12.4585 11.5296H8.67645L8.29908 11.931V14.3111L8.67645 14.7071H12.4585C15.1743 14.729 17.3935 12.4366 17.4144 9.58707C17.427 7.85626 16.6147 6.23734 15.2516 5.26993Z" fill="#4285F4"/>
<path d="M4.88919 14.6824H8.67123V11.5059H4.88919C4.6195 11.5059 4.35398 11.4445 4.10833 11.3271L3.57729 11.5004L2.05319 13.0887L1.92043 13.6459C2.77447 14.3237 3.81772 14.6878 4.88919 14.6824Z" fill="#34A853"/>
<path d="M4.88918 4.37846C2.17235 4.39491 -0.0155429 6.7191 0.000137163 9.56977C0.00954521 11.1613 0.717239 12.6596 1.92042 13.6292L4.11354 11.328C3.16229 10.8772 2.73892 9.70139 3.16856 8.70328C3.59819 7.70516 4.71879 7.26094 5.67005 7.71174C6.08923 7.91026 6.42479 8.26345 6.61504 8.70328L8.80816 6.40212C7.87571 5.12102 6.42479 4.37188 4.88918 4.37846Z" fill="#FBBC05"/>
<path d="M27.4831 12.4641C26.167 12.4817 24.9021 11.9365 23.978 10.9538C23.0236 10.0127 22.4905 8.69429 22.5072 7.31996C22.4916 5.94562 23.0247 4.62833 23.978 3.68615C24.8979 2.69351 26.1638 2.13742 27.4831 2.14839C28.7396 2.13084 29.9511 2.64306 30.8449 3.56988L29.8999 4.57897C29.2528 3.92197 28.3831 3.5622 27.4831 3.57537C26.5391 3.5633 25.6328 3.96803 24.9868 4.68975C24.3157 5.38843 23.9456 6.34487 23.9613 7.33641C23.9529 8.31698 24.323 9.25916 24.9868 9.95016C26.3541 11.3804 28.5587 11.4079 29.9584 10.0116C30.3755 9.53337 30.6306 8.92353 30.686 8.27859H27.4987V6.85271H32.0083C32.0522 7.14008 32.07 7.43074 32.0616 7.72249C32.1181 8.93888 31.6979 10.1268 30.8982 11.0108C30.0086 11.9815 28.7667 12.5102 27.4831 12.4641ZM37.9678 11.5164C36.7103 12.7811 34.7262 12.7811 33.4687 11.5164C32.8592 10.8967 32.5268 10.0379 32.5498 9.14838C32.5268 8.25885 32.8603 7.40003 33.4687 6.78031C34.7273 5.51896 36.7092 5.51896 37.9678 6.78031C38.5762 7.40003 38.9097 8.25885 38.8867 9.14838C38.9086 10.039 38.5731 10.8978 37.9626 11.5164H37.9678ZM34.4617 10.5863C35.1109 11.3146 36.2001 11.3519 36.8942 10.6697C36.9214 10.6423 36.9486 10.6148 36.9737 10.5863C37.3281 10.2013 37.5194 9.68363 37.5047 9.14838C37.5204 8.61203 37.3291 8.09103 36.9737 7.70495C36.3057 6.97445 35.1997 6.94923 34.5025 7.6501C34.4847 7.66765 34.467 7.6863 34.4502 7.70495C34.0948 8.09103 33.9035 8.61203 33.9192 9.14838C33.9056 9.68363 34.099 10.2024 34.4555 10.5863H34.4617ZM44.8827 11.5164C43.6252 12.7811 41.6411 12.7811 40.3836 11.5164C39.7741 10.8967 39.4417 10.0379 39.4647 9.14838C39.4417 8.25885 39.7752 7.40003 40.3836 6.78031C41.6411 5.51567 43.6252 5.51567 44.8827 6.78031C45.4911 7.40003 45.8246 8.25885 45.8016 9.14838C45.8256 10.0379 45.4921 10.8967 44.8827 11.5164ZM41.3777 10.5863C42.0268 11.3146 43.1161 11.3519 43.8102 10.6697C43.8374 10.6423 43.8646 10.6148 43.8896 10.5863C44.244 10.2013 44.4353 9.68363 44.4207 9.14838C44.4364 8.61203 44.2451 8.09103 43.8896 7.70495C43.2217 6.97445 42.1157 6.94923 41.4195 7.6501C41.4017 7.66765 41.384 7.6863 41.3672 7.70495C41.0118 8.09103 40.8205 8.61203 40.8362 9.14838C40.8226 9.68363 41.016 10.2024 41.3725 10.5863H41.3777ZM49.4289 15.4398C48.7923 15.4607 48.1682 15.2523 47.6602 14.8486C47.2093 14.4929 46.8542 14.0205 46.6295 13.4776L47.84 12.9478C47.9717 13.2725 48.1776 13.5576 48.44 13.7781C48.7202 14.015 49.0724 14.1401 49.4331 14.1291C49.8951 14.1587 50.3467 13.9755 50.6708 13.6278C50.9906 13.2231 51.1485 12.7032 51.1119 12.1789V11.6996H51.0638C50.653 12.2107 50.0373 12.4893 49.4017 12.452C48.5958 12.4542 47.8253 12.1032 47.2776 11.4824C46.6838 10.8671 46.3556 10.0237 46.3692 9.14728C46.3545 8.26652 46.6828 7.41757 47.2776 6.79567C47.8243 6.17267 48.5947 5.81839 49.4017 5.82059C49.7394 5.81949 50.0739 5.89846 50.3791 6.04873C50.6436 6.16938 50.8788 6.35036 51.0701 6.5785H51.1182V6.04873H52.4353V11.9837C52.5053 12.9325 52.2001 13.8702 51.5907 14.5755C51.0105 15.1579 50.2317 15.4694 49.4289 15.4398ZM49.5251 11.16C49.984 11.1709 50.4241 10.9658 50.7251 10.6028C51.0523 10.209 51.2258 9.69899 51.2081 9.1758C51.2279 8.64384 51.0554 8.12503 50.7251 7.7214C50.4241 7.35725 49.984 7.15324 49.5251 7.16421C49.0536 7.15434 48.601 7.35725 48.2822 7.7214C47.9309 8.11077 47.7396 8.62958 47.7511 9.16483C47.7407 9.6957 47.9309 10.209 48.2822 10.5918C48.5989 10.9593 49.0515 11.1666 49.5251 11.16ZM54.7779 2.52241V12.2634H53.3918V2.52241H54.7779ZM58.5808 12.4641C57.7414 12.4871 56.9313 12.1416 56.3449 11.511C55.7501 10.8858 55.425 10.0313 55.4469 9.14838C55.4155 8.26323 55.7281 7.40222 56.3124 6.76276C56.8644 6.15293 57.6358 5.8151 58.4366 5.83155C58.8014 5.82717 59.162 5.90175 59.4986 6.04873C59.8018 6.17706 60.0778 6.36681 60.3109 6.60592C60.5116 6.80883 60.6893 7.03478 60.8419 7.28047C60.9652 7.48777 61.0698 7.70604 61.1555 7.93199L61.2987 8.31149L57.0505 10.1454C57.3139 10.7794 57.9212 11.1786 58.5798 11.149C59.2164 11.1512 59.807 10.8013 60.1363 10.2299L61.1984 10.9823C60.9274 11.3896 60.5803 11.7348 60.1781 11.9969C59.7014 12.3127 59.1453 12.4751 58.5808 12.4641ZM56.8069 9.04747L59.6324 7.81573C59.5457 7.59855 59.3899 7.41977 59.1913 7.30899C58.9697 7.17737 58.7188 7.11046 58.4637 7.11375C58.032 7.12582 57.6212 7.31557 57.3222 7.64352C56.9595 8.00767 56.7703 8.52209 56.8069 9.04747Z" fill="white"/>
<path d="M68.5606 12.464C66.1438 12.5079 64.1514 10.4875 64.1096 7.95165C64.1085 7.89022 64.1085 7.82771 64.1106 7.76628C64.0542 5.2304 65.9682 3.12777 68.384 3.06854C68.4425 3.06745 68.5021 3.06745 68.5606 3.06745C69.7691 3.02796 70.9294 3.5698 71.7102 4.5383L70.9451 5.31815C70.3712 4.56024 69.4868 4.13576 68.5659 4.17525C67.6826 4.15441 66.8285 4.51307 66.2024 5.16679C65.5511 5.8545 65.203 6.79559 65.2406 7.76409C65.202 8.73259 65.5511 9.67368 66.2024 10.3614C66.8285 11.0162 67.6826 11.3738 68.5659 11.3529C69.5945 11.365 70.5719 10.8846 71.221 10.0488L71.9862 10.8517C71.5858 11.354 71.083 11.7555 70.5154 12.0275C69.9029 12.3258 69.2349 12.475 68.5606 12.464Z" fill="white"/>
<path d="M74.0414 12.2633H72.9417V3.2627H74.0414V12.2633Z" fill="white"/>
<path d="M75.8373 6.84615C77.0363 5.59686 78.9723 5.59686 80.1713 6.84615C80.74 7.47683 81.0462 8.3192 81.0212 9.18679C81.0462 10.0544 80.74 10.8968 80.1713 11.5274C78.9723 12.7767 77.0363 12.7767 75.8373 11.5274C75.2686 10.8968 74.9624 10.0544 74.9875 9.18679C74.9624 8.3192 75.2676 7.47683 75.8373 6.84615ZM76.6548 10.8035C77.3583 11.5834 78.5312 11.6174 79.2754 10.8792C79.3005 10.8551 79.3246 10.8288 79.3476 10.8035C79.7354 10.367 79.9403 9.78457 79.9162 9.18789C79.9413 8.59121 79.7364 8.00879 79.3476 7.57225C78.6441 6.79241 77.4712 6.7584 76.7269 7.49657C76.7018 7.5207 76.6778 7.54703 76.6548 7.57225C76.2669 8.00879 76.0621 8.59121 76.0861 9.18789C76.0642 9.78347 76.2711 10.3637 76.66 10.798L76.6548 10.8035Z" fill="white"/>
<path d="M87.1123 12.2635H86.0502V11.4112H86.0189C85.8297 11.7348 85.5621 12.0002 85.2432 12.1801C84.9129 12.3808 84.5366 12.4872 84.154 12.4861C83.5247 12.5311 82.9111 12.2722 82.4867 11.7842C82.0842 11.25 81.8825 10.5798 81.918 9.90089V6.11133H83.0177V9.6892C83.0177 10.8376 83.5007 11.4112 84.4676 11.4112C84.9035 11.4255 85.3185 11.2182 85.583 10.854C85.8684 10.4756 86.0199 10.0051 86.0137 9.52248V6.11133H87.1134V12.2635H87.1123Z" fill="white"/>
<path d="M90.8463 12.464C90.0915 12.4662 89.3734 12.1229 88.881 11.5219C88.3301 10.8835 88.0353 10.0477 88.0573 9.18669C88.0353 8.32568 88.3301 7.48989 88.881 6.85153C89.3734 6.25157 90.0915 5.90716 90.8463 5.90935C91.2644 5.90277 91.6773 6.00588 92.0463 6.20989C92.3714 6.38099 92.6463 6.64094 92.8429 6.96231H92.8909L92.8429 6.11007V3.2627H93.9425V12.2633H92.8805V11.4111H92.8324C92.6359 11.7324 92.361 11.9924 92.0359 12.1635C91.67 12.3653 91.2613 12.4695 90.8463 12.464ZM91.0271 11.4111C91.5299 11.4187 92.0118 11.1994 92.3495 10.8089C92.7226 10.3625 92.9139 9.78008 92.8805 9.18669C92.9139 8.5944 92.7226 8.01089 92.3495 7.56448C91.6825 6.7945 90.5473 6.73856 89.8135 7.43944C89.7717 7.47892 89.7319 7.5217 89.6943 7.56448C89.3201 8.0076 89.1288 8.58892 89.1633 9.18011C89.1288 9.77131 89.3201 10.3526 89.6943 10.7957C90.033 11.195 90.5191 11.4187 91.0271 11.4111Z" fill="white"/>
</svg>
