<svg width="29" height="29" viewBox="0 0 29 29" fill="none" xmlns="http://www.w3.org/2000/svg">
<path d="M14.0598 0.00254518C13.8095 0.01577 13.5642 0.0808888 13.3384 0.194081L3.4944 5.12938C3.2396 5.25705 3.01572 5.44282 2.83939 5.67289C2.66305 5.90297 2.5388 6.17143 2.47584 6.45834L0.0473023 17.5443C-0.00878222 17.7997 -0.0150634 18.0642 0.0288304 18.3222C0.0727242 18.5802 0.165901 18.8264 0.302847 19.0462C0.336051 19.1 0.371761 19.152 0.409851 19.2021L7.22355 28.0912C7.39991 28.3212 7.6238 28.5069 7.87859 28.6345C8.13339 28.7621 8.41253 28.8284 8.6953 28.8283L19.6221 28.8257C19.9048 28.8259 20.1838 28.7599 20.4386 28.6325C20.6934 28.5051 20.9173 28.3197 21.0938 28.0899L27.905 19.1995C28.0814 18.9693 28.2058 18.7008 28.2688 18.4138C28.3318 18.1267 28.3318 17.8286 28.2688 17.5416L25.8365 6.45567C25.7735 6.16878 25.6493 5.90033 25.4729 5.67026C25.2966 5.4402 25.0727 5.25443 24.8179 5.12676L14.9726 0.194039C14.6886 0.0516727 14.3747 -0.0141728 14.0598 0.00254518Z" fill="#326CE5"/>
<path d="M14.1573 3.77539C13.8319 3.77543 13.5681 4.08296 13.5681 4.46232C13.5681 4.46815 13.5692 4.47373 13.5694 4.47948C13.5689 4.53105 13.5665 4.59315 13.5681 4.638C13.5758 4.8568 13.6213 5.02428 13.6487 5.22588C13.6982 5.65731 13.7397 6.01498 13.7141 6.34741C13.6892 6.47275 13.6012 6.58739 13.5228 6.66707L13.5089 6.92865C13.1505 6.95961 12.7946 7.01699 12.4438 7.10036C10.9139 7.46488 9.5967 8.29177 8.59382 9.40818C8.52224 9.35632 8.45132 9.30348 8.38106 9.24966C8.27587 9.26458 8.16955 9.29865 8.03105 9.21398C7.76736 9.02777 7.52721 8.77071 7.23661 8.46103C7.10346 8.3129 7.00705 8.17184 6.84884 8.02905C6.81295 7.99662 6.75812 7.95279 6.71791 7.91939C6.59423 7.81595 6.44838 7.76197 6.3075 7.75694C6.12636 7.75043 5.952 7.82474 5.8379 7.97489C5.63502 8.24184 5.7 8.6499 5.98266 8.88637C5.98556 8.88878 5.98858 8.89064 5.99152 8.89301C6.03032 8.92602 6.0779 8.96838 6.11359 8.99603C6.28147 9.1261 6.43485 9.19268 6.60208 9.2959C6.95448 9.52426 7.24664 9.71356 7.47834 9.94187C7.56882 10.0431 7.58466 10.2214 7.5967 10.2986L7.78553 10.4756C6.77459 12.0719 6.30673 14.0438 6.58323 16.0529L6.33646 16.1282C6.2714 16.2163 6.1795 16.355 6.08338 16.3963C5.78021 16.4965 5.43902 16.5333 5.02711 16.5786C4.83373 16.5955 4.66686 16.5854 4.4618 16.6262C4.41668 16.6351 4.35383 16.6523 4.30443 16.6645L4.2994 16.6658C4.2967 16.6665 4.29319 16.6679 4.29058 16.6685C3.9433 16.7565 3.72022 17.0914 3.79201 17.4215C3.86389 17.7515 4.20311 17.9522 4.55245 17.8732C4.55498 17.8726 4.55865 17.8725 4.56131 17.8719C4.56522 17.871 4.56868 17.8689 4.57259 17.8679C4.62134 17.8567 4.68233 17.8443 4.72496 17.8323C4.92652 17.7757 5.07252 17.6925 5.25373 17.6196C5.6436 17.4729 5.96646 17.3503 6.28107 17.3025C6.41241 17.2918 6.55088 17.3876 6.61973 17.428L6.87656 17.3818C7.46758 19.3045 8.70619 20.8585 10.2746 21.8336L10.1675 22.1031C10.2061 22.2077 10.2487 22.3493 10.2199 22.4527C10.1056 22.7638 9.9097 23.0923 9.68663 23.4584C9.57866 23.6276 9.46807 23.7589 9.37061 23.9525C9.34728 23.9989 9.31759 24.07 9.29507 24.119C9.14363 24.459 9.25474 24.8505 9.54562 24.9975C9.83835 25.1453 10.2017 24.9893 10.3589 24.6487C10.3592 24.6482 10.36 24.6479 10.3602 24.6474C10.3604 24.647 10.36 24.6464 10.3602 24.6461C10.3826 24.5978 10.4143 24.5343 10.4332 24.4888C10.5167 24.2882 10.5445 24.1162 10.6032 23.9221C10.7591 23.5112 10.8447 23.0801 11.0593 22.8115C11.1181 22.7379 11.2139 22.7096 11.3132 22.6817L11.4467 22.4281C12.814 22.9787 14.3444 23.1265 15.8733 22.7623C16.2169 22.6803 16.5547 22.5735 16.8843 22.4426C16.9218 22.5124 16.9915 22.6466 17.0102 22.6804C17.1111 22.7148 17.2213 22.7326 17.3111 22.8719C17.4716 23.1598 17.5814 23.5003 17.7152 23.9116C17.7739 24.1056 17.8029 24.2776 17.8864 24.4783C17.9054 24.524 17.937 24.5884 17.9595 24.6368C18.1163 24.9786 18.4809 25.1351 18.774 24.9869C19.0649 24.8399 19.1761 24.4483 19.0246 24.1084C19.002 24.0594 18.9711 23.9883 18.9478 23.942C18.8503 23.7484 18.7398 23.6184 18.6317 23.4492C18.4087 23.0831 18.2236 22.7789 18.1093 22.4677C18.0614 22.3072 18.1173 22.2074 18.1546 22.1031C18.1323 22.0763 18.0846 21.9247 18.0564 21.8535C19.6863 20.8436 20.8885 19.2316 21.4531 17.3699C21.5294 17.3825 21.6619 17.4071 21.7049 17.4162C21.7936 17.3549 21.875 17.2748 22.0348 17.288C22.3494 17.3358 22.6723 17.4584 23.0621 17.6051C23.2434 17.6779 23.3894 17.7625 23.5909 17.8191C23.6335 17.831 23.6945 17.8422 23.7432 17.8534C23.7472 17.8544 23.7506 17.8564 23.7546 17.8574C23.7572 17.858 23.7609 17.8581 23.7634 17.8587C24.1128 17.9376 24.4521 17.737 24.5238 17.4069C24.5955 17.0769 24.3726 16.7419 24.0253 16.654C23.9747 16.6419 23.9031 16.6214 23.854 16.6117C23.649 16.5709 23.4822 16.5809 23.2888 16.5641C22.8768 16.5188 22.5356 16.482 22.2325 16.3818C22.1089 16.3315 22.0209 16.1772 21.9782 16.1136L21.7402 16.041C21.8636 15.1045 21.8303 14.1298 21.6168 13.1546C21.4013 12.1703 21.0206 11.2701 20.5127 10.4769C20.5737 10.4187 20.689 10.3116 20.7217 10.28C20.7312 10.1691 20.723 10.0528 20.8325 9.92999C21.0642 9.70172 21.3563 9.51238 21.7087 9.28403C21.876 9.18075 22.0306 9.11422 22.1985 8.98415C22.2364 8.95472 22.2883 8.90814 22.3282 8.87449C22.6108 8.63794 22.6759 8.22992 22.4729 7.96302C22.27 7.69611 21.8768 7.67091 21.5941 7.90751C21.5539 7.94095 21.4993 7.98457 21.4632 8.01717C21.305 8.15996 21.2073 8.30098 21.0742 8.44915C20.7836 8.75883 20.5434 9.0172 20.2798 9.20346C20.1655 9.2732 19.9981 9.24911 19.9222 9.24437L19.6981 9.41215C18.4202 8.00618 16.6804 7.10725 14.807 6.93263C14.8017 6.85024 14.7949 6.70136 14.7931 6.6565C14.7164 6.57953 14.6238 6.51379 14.6005 6.34741C14.5749 6.01498 14.6176 5.65731 14.6672 5.22588C14.6946 5.02428 14.74 4.85684 14.7478 4.638C14.7495 4.58829 14.7467 4.51609 14.7465 4.46232C14.7465 4.08296 14.4827 3.77539 14.1573 3.77539ZM13.4195 8.57068L13.2446 11.8137L13.2319 11.8204C13.2202 12.1105 12.9926 12.3421 12.7132 12.3421C12.5988 12.3421 12.4931 12.3036 12.4073 12.2378L12.4023 12.2404L9.86792 10.3553C10.6468 9.55174 11.6431 8.95781 12.7913 8.68431C12.9987 8.63517 13.2084 8.59725 13.4195 8.57068ZM14.8963 8.57068C16.2368 8.74366 17.4766 9.38058 18.4266 10.3567L15.9086 12.2299L15.8997 12.2259C15.6762 12.3972 15.3614 12.3547 15.1871 12.1255C15.1183 12.0356 15.0786 11.925 15.0739 11.8098L15.0713 11.8085L14.8963 8.57068ZM8.94888 11.5667L11.2629 13.7385L11.2604 13.7517C11.4692 13.9422 11.5 14.2728 11.3259 14.502C11.2572 14.5925 11.1628 14.6578 11.0564 14.6882L11.0539 14.6988L8.08773 15.5971C7.93673 14.1486 8.2621 12.7406 8.94888 11.5667ZM19.3494 11.568C19.6932 12.1528 19.9535 12.8059 20.1086 13.5139C20.2617 14.2134 20.3001 14.9117 20.237 15.5865L17.2557 14.6856L17.2532 14.6724C16.9862 14.5959 16.8221 14.3109 16.8843 14.0251C16.9084 13.9127 16.9662 13.8113 17.0492 13.7358L17.048 13.7292L19.3494 11.568V11.568ZM13.6827 13.9062H14.6307L15.2199 14.679L15.0084 15.6434L14.1573 16.0727L13.3037 15.642L13.0922 14.6777L13.6827 13.9062ZM16.7219 16.5509C16.7622 16.5488 16.8023 16.5526 16.8415 16.5602L16.8465 16.5535L19.9147 17.0978C19.4657 18.4215 18.6064 19.5682 17.4584 20.3356L16.2674 17.3171L16.2711 17.3118C16.1617 17.0451 16.2712 16.7322 16.5229 16.605C16.5874 16.5725 16.6547 16.5544 16.7219 16.5509ZM11.5688 16.5641C11.8029 16.5676 12.013 16.7381 12.0674 16.9882C12.0928 17.1053 12.0804 17.2212 12.0384 17.3237L12.0472 17.3356L10.8688 20.3237C9.76708 19.5819 8.8895 18.4712 8.4201 17.1083L11.4618 16.5667L11.4669 16.5733C11.5009 16.5668 11.5354 16.5636 11.5688 16.5641ZM14.1384 17.8733C14.2224 17.8702 14.3058 17.8888 14.3814 17.9274C14.4845 17.9795 14.5642 18.0615 14.6143 18.1599H14.6256L16.1251 21.0027C15.9283 21.0717 15.7283 21.1304 15.5258 21.1784C14.3791 21.4516 13.2359 21.3688 12.2008 20.9987L13.6965 18.1612H13.699C13.7419 18.0771 13.805 18.0063 13.8821 17.9557C13.9592 17.9052 14.0476 17.8767 14.1384 17.8732V17.8733Z" fill="white" stroke="white" stroke-width="0.195513"/>
</svg>
