<svg width="61" height="39" viewBox="0 0 61 39" fill="none" xmlns="http://www.w3.org/2000/svg">
<path d="M29.9009 38.8758C29.7013 38.8758 29.503 38.8208 29.3279 38.7151L27.504 37.5821C27.2316 37.4222 27.3645 37.3657 27.4544 37.3331C27.8176 37.1997 27.8913 37.1696 28.279 36.9385C28.3198 36.9141 28.3731 36.9228 28.4148 36.9486L29.816 37.821C29.8666 37.8497 29.9384 37.8497 29.9853 37.821L35.4486 34.5121C35.4992 34.482 35.532 34.4203 35.532 34.3571V27.7422C35.532 27.6762 35.4992 27.6174 35.4475 27.5844L29.9864 24.2783C29.9358 24.2468 29.8688 24.2468 29.8182 24.2783L24.3581 27.5844C24.3052 27.6159 24.2716 27.6776 24.2716 27.7408V34.3557C24.2716 34.4188 24.3044 34.4791 24.3564 34.5092L25.8525 35.4161C26.6648 35.8423 27.1612 35.34 27.1612 34.835V28.3061C27.1612 28.2129 27.2309 28.1411 27.3198 28.1411H28.0118C28.098 28.1411 28.1691 28.2129 28.1691 28.3061V34.8378C28.1691 35.9743 27.5783 36.6272 26.5513 36.6272C26.2354 36.6272 25.9865 36.6272 25.2918 36.2684L23.8586 35.4017C23.6843 35.2951 23.5397 35.1424 23.4392 34.9588C23.3387 34.7753 23.2857 34.5674 23.2856 34.3557V27.7408C23.2856 27.3103 23.5044 26.9085 23.8586 26.6962L29.3274 23.3858C29.6734 23.1806 30.1329 23.1806 30.4761 23.3858L35.9381 26.6976C36.1123 26.8039 36.2569 26.9564 36.3574 27.1397C36.458 27.323 36.5109 27.5307 36.5111 27.7422V34.3571C36.5111 34.7862 36.2909 35.1865 35.9381 35.4017L30.4761 38.7121C30.301 38.8179 30.1024 38.8733 29.9004 38.8728" fill="#689F63"/>
<path d="M31.5885 34.3177C29.1981 34.3177 28.6969 33.1663 28.6969 32.2006C28.6969 32.1088 28.7674 32.0356 28.8551 32.0356H29.5607C29.6387 32.0356 29.7043 32.0951 29.7166 32.1759C29.8233 32.9304 30.1406 33.3109 31.5861 33.3109C32.7375 33.3109 33.2271 33.038 33.2271 32.3973C33.2271 32.0285 33.0876 31.7545 31.2989 31.5708C29.8028 31.4158 28.8783 31.07 28.8783 29.8145C28.8783 28.6579 29.8083 27.9692 31.3659 27.9692C33.115 27.9692 33.982 28.6063 34.0914 29.9752C34.0932 29.9982 34.0905 30.0214 34.0833 30.0432C34.0762 30.0651 34.0648 30.0851 34.0499 30.1021C34.035 30.1191 34.0169 30.1326 33.9967 30.1419C33.9765 30.1512 33.9548 30.156 33.9328 30.156H33.223C33.1492 30.156 33.0849 30.1015 33.0698 30.0268C32.8989 29.2333 32.4859 28.9794 31.3632 28.9794C30.1064 28.9794 29.9601 29.4385 29.9601 29.7829C29.9601 30.2005 30.1324 30.3224 31.8281 30.5578C33.5075 30.7917 34.3047 31.1217 34.3047 32.36C34.3047 33.6084 33.3119 34.3244 31.5806 34.3244M38.235 27.3091H38.4183C38.5687 27.3091 38.5974 27.1986 38.5974 27.1341C38.5974 26.9648 38.4867 26.9648 38.4251 26.9648H38.2364L38.235 27.3091ZM38.0121 26.7667H38.4183C38.5578 26.7667 38.8313 26.7667 38.8313 27.0939C38.8313 27.322 38.6918 27.3694 38.6084 27.3981C38.7711 27.4096 38.7821 27.5215 38.8039 27.6793C38.8149 27.7783 38.8327 27.9491 38.8655 28.0065H38.6152C38.6084 27.9491 38.5701 27.6334 38.5701 27.6162C38.5537 27.5459 38.5304 27.5115 38.447 27.5115H38.2405V28.0079H38.0121V26.7667ZM37.5239 27.3837C37.5239 27.8974 37.9191 28.3136 38.4046 28.3136C38.8942 28.3136 39.2894 27.8888 39.2894 27.3837C39.2894 26.8686 38.8887 26.4597 38.4033 26.4597C37.9246 26.4597 37.5226 26.8629 37.5226 27.3823M39.459 27.3866C39.459 27.995 38.9845 28.4915 38.406 28.4915C37.8316 28.4915 37.353 28.0008 37.353 27.3866C37.353 26.761 37.8426 26.2817 38.406 26.2817C38.9735 26.2817 39.4576 26.7624 39.4576 27.3866" fill="#689F63"/>
<path fill-rule="evenodd" clip-rule="evenodd" d="M12.9829 12.9931C12.9829 12.729 12.8502 12.4865 12.6331 12.3553L6.84071 8.85838C6.74383 8.79914 6.63442 8.7661 6.52235 8.76224H6.46245C6.35141 8.76655 6.24187 8.79812 6.14245 8.85838L0.350364 12.3553C0.243868 12.4203 0.155476 12.5134 0.094001 12.6255C0.0325257 12.7375 0.000114803 12.8645 0 12.9938L0.0127181 22.4125C0.0127181 22.5431 0.0769925 22.6651 0.186396 22.7296C0.293064 22.7985 0.427083 22.7985 0.533751 22.7296L3.97722 20.6605C4.19466 20.5248 4.32731 20.2848 4.32731 20.0234V15.6233C4.32706 15.4944 4.35924 15.3678 4.42059 15.2562C4.48194 15.1445 4.5703 15.0519 4.67672 14.9876L6.14272 14.1017C6.24905 14.0369 6.36985 14.0028 6.49281 14.003C6.61261 14.003 6.73486 14.0354 6.84071 14.1015L8.30603 14.9872C8.52292 15.1177 8.65612 15.3602 8.65612 15.6228V20.0227C8.65612 20.2838 8.79055 20.5249 9.0069 20.6598L12.4482 22.7275C12.5011 22.7606 12.5616 22.7781 12.6232 22.7781C12.6848 22.7781 12.7453 22.7606 12.7983 22.7275C12.851 22.695 12.8947 22.6487 12.9251 22.5931C12.9555 22.5375 12.9716 22.4745 12.9717 22.4104L12.9829 12.9931ZM40.3156 17.897C40.3156 17.9626 40.2824 18.0233 40.2281 18.0557L38.2386 19.259C38.2121 19.275 38.1819 19.2835 38.1513 19.2835C38.1207 19.2835 38.0906 19.275 38.064 19.259L36.0742 18.0557C36.0195 18.0231 35.9867 17.9624 35.9867 17.897V15.4869C35.9867 15.4212 36.0195 15.3607 36.0728 15.3277L38.0613 14.1223C38.116 14.0893 38.183 14.0893 38.2377 14.1223L40.2274 15.3277C40.2821 15.3607 40.315 15.4212 40.315 15.4869L40.3156 17.897ZM40.8531 0.0464664C40.7998 0.0153489 40.7397 -0.000658593 40.6786 2.07564e-05C40.6176 0.000700106 40.5579 0.0180429 40.5052 0.0503406C40.3985 0.116346 40.3326 0.236879 40.3326 0.367455V9.69436C40.3327 9.73946 40.3214 9.78377 40.2999 9.82285C40.2785 9.86192 40.2476 9.89437 40.2104 9.91692C40.1731 9.93948 40.1309 9.95134 40.0879 9.95131C40.045 9.95128 40.0027 9.93937 39.9656 9.91677L38.5146 9.0399C38.4083 8.97546 38.2878 8.94153 38.1651 8.94153C38.0423 8.94153 37.9218 8.97546 37.8155 9.0399L32.0212 12.5487C31.9149 12.6128 31.8266 12.7052 31.7652 12.8165C31.7037 12.9279 31.6713 13.0542 31.6711 13.1829V20.2025C31.6711 20.4651 31.8048 20.7061 32.0212 20.8381L37.8155 24.3494C38.0319 24.4799 38.2983 24.4799 38.5153 24.3494L44.3095 20.8367C44.5256 20.7047 44.6596 20.4636 44.6596 20.201V2.70664C44.6594 2.57584 44.626 2.44745 44.5628 2.33472C44.4996 2.22198 44.4088 2.12896 44.3 2.06524L40.8531 0.0464664ZM60.1481 15.4235C60.2539 15.3589 60.3417 15.2663 60.4028 15.155C60.4638 15.0436 60.4959 14.9174 60.4959 14.789V13.0878C60.4959 12.826 60.3632 12.5846 60.1476 12.4528L54.3902 8.94591C54.2837 8.88107 54.1627 8.84691 54.0395 8.84691C53.9163 8.84691 53.7953 8.88107 53.6887 8.94591L47.8958 12.4543C47.6783 12.5863 47.5457 12.8273 47.5457 13.0899V20.1066C47.5457 20.3707 47.6811 20.6146 47.8985 20.7452L53.6545 24.1875C53.8665 24.3152 54.1263 24.3167 54.341 24.1918L57.8228 22.1614C57.9322 22.0968 58.0019 21.9749 58.0019 21.8429C58.0019 21.7109 57.9349 21.5875 57.8255 21.5229L51.997 18.0131C51.8876 17.9485 51.8206 17.8266 51.8206 17.696V15.4948C51.8206 15.3634 51.8863 15.2423 51.9957 15.1769L53.809 14.0792C53.9171 14.0131 54.0497 14.0131 54.1578 14.0792L55.9725 15.1769C56.0805 15.2414 56.1475 15.3634 56.1475 15.494V17.2245C56.1475 17.355 56.2145 17.477 56.3226 17.543C56.4306 17.6076 56.5646 17.6076 56.6727 17.5416L60.1481 15.4235Z" fill="white"/>
<path fill-rule="evenodd" clip-rule="evenodd" d="M53.9547 15.0952C53.9751 15.0828 53.9982 15.0762 54.0218 15.0762C54.0453 15.0762 54.0684 15.0828 54.0888 15.0952L55.2006 15.7682C55.2421 15.7935 55.2676 15.84 55.2676 15.8902V17.2376C55.2676 17.2878 55.2421 17.3343 55.2006 17.3595L54.0888 18.0325C54.0684 18.045 54.0453 18.0516 54.0218 18.0516C53.9982 18.0516 53.9751 18.045 53.9547 18.0325L52.8436 17.3595C52.823 17.3474 52.8057 17.3297 52.7937 17.3082C52.7817 17.2868 52.7753 17.2624 52.7752 17.2376V15.8902C52.7752 15.84 52.7999 15.7935 52.8423 15.7682L53.9547 15.0952Z" fill="#689F63"/>
<mask id="mask0_202_899" style="mask-type:luminance" maskUnits="userSpaceOnUse" x="15" y="8" width="14" height="17">
<path d="M21.9797 8.98084L16.2183 12.4701C16.1124 12.5341 16.0245 12.6262 15.9634 12.7372C15.9023 12.8482 15.8701 12.9741 15.8701 13.1023V20.0857C15.8701 20.3465 16.0025 20.5874 16.2183 20.718L21.9802 24.21C22.086 24.2739 22.206 24.3076 22.3282 24.3076C22.4504 24.3076 22.5704 24.2739 22.6762 24.21L28.4371 20.718C28.5427 20.6537 28.6304 20.5615 28.6913 20.4506C28.7523 20.3396 28.7844 20.2138 28.7845 20.0857V13.1023C28.7845 12.8417 28.6518 12.6007 28.4358 12.4701L22.6757 8.98084C22.5696 8.91693 22.4493 8.8833 22.327 8.8833C22.2046 8.8833 22.0844 8.91693 21.9782 8.98084" fill="white"/>
</mask>
<g mask="url(#mask0_202_899)">
<path d="M34.6067 11.8776L18.3719 3.52783L10.0477 21.3457L26.282 29.6958L34.6067 11.8776Z" fill="url(#paint0_linear_202_899)"/>
</g>
<mask id="mask1_202_899" style="mask-type:luminance" maskUnits="userSpaceOnUse" x="16" y="8" width="13" height="17">
<path d="M16.0129 20.529C16.068 20.6041 16.1369 20.6691 16.218 20.7178L21.1603 23.7132L21.9835 24.2097C22.1066 24.2843 22.2469 24.3159 22.3848 24.3051C22.4307 24.3012 22.4767 24.2922 22.5215 24.2789L28.5981 12.6044C28.5516 12.5513 28.4971 12.5069 28.4362 12.4696L24.6637 10.1837L22.6695 8.97986C22.6129 8.94614 22.5521 8.92056 22.489 8.90381L16.0129 20.529Z" fill="white"/>
</mask>
<g mask="url(#mask1_202_899)">
<path d="M8.99358 14.3471L20.457 30.6265L35.6175 18.8738L24.1535 2.59473L8.99358 14.3471Z" fill="url(#paint1_linear_202_899)"/>
</g>
<mask id="mask2_202_899" style="mask-type:luminance" maskUnits="userSpaceOnUse" x="16" y="8" width="13" height="17">
<path d="M22.2582 8.88749C22.1602 8.89788 22.0654 8.92975 21.9799 8.98105L16.2348 12.4603L22.4298 24.2997C22.516 24.2868 22.6007 24.2567 22.6773 24.2102L28.4388 20.7182C28.5258 20.6653 28.6009 20.5934 28.6589 20.5073C28.717 20.4213 28.7566 20.323 28.7752 20.2194L22.4599 8.8994C22.4135 8.8897 22.3663 8.8848 22.319 8.88477C22.2999 8.88477 22.2807 8.88577 22.2616 8.88763" fill="white"/>
</mask>
<g mask="url(#mask2_202_899)">
<path d="M16.2345 8.88477V24.3H28.7725V8.88477H16.2345Z" fill="url(#paint2_linear_202_899)"/>
</g>
<defs>
<linearGradient id="paint0_linear_202_899" x1="26.4844" y1="7.68957" x2="17.4963" y2="25.1644" gradientUnits="userSpaceOnUse">
<stop offset="0.3" stop-color="#3E863D"/>
<stop offset="0.5" stop-color="#55934F"/>
<stop offset="0.8" stop-color="#5AAD45"/>
</linearGradient>
<linearGradient id="paint1_linear_202_899" x1="14.7939" y1="22.5801" x2="30.4624" y2="11.5465" gradientUnits="userSpaceOnUse">
<stop offset="0.57" stop-color="#3E863D"/>
<stop offset="0.72" stop-color="#619857"/>
<stop offset="1" stop-color="#76AC64"/>
</linearGradient>
<linearGradient id="paint2_linear_202_899" x1="16.2387" y1="16.5928" x2="28.7749" y2="16.5928" gradientUnits="userSpaceOnUse">
<stop offset="0.16" stop-color="#6BBF47"/>
<stop offset="0.38" stop-color="#79B461"/>
<stop offset="0.47" stop-color="#75AC64"/>
<stop offset="0.7" stop-color="#659E5A"/>
<stop offset="0.9" stop-color="#3E863D"/>
</linearGradient>
</defs>
</svg>
