<svg width="60" height="36" viewBox="0 0 60 36" fill="none" xmlns="http://www.w3.org/2000/svg">
<mask id="mask0_202_930" style="mask-type:luminance" maskUnits="userSpaceOnUse" x="1" y="1" width="58" height="33">
<path d="M1.19341 17.6093C1.19341 26.3404 14.0173 33.4185 29.8357 33.4185C45.6541 33.4185 58.478 26.3404 58.478 17.6093C58.478 8.87835 45.6541 1.80017 29.8357 1.80017C14.0173 1.80017 1.19341 8.87835 1.19341 17.6093Z" fill="white"/>
</mask>
<g mask="url(#mask0_202_930)">
<path d="M1.19341 17.6093C1.19341 26.3404 14.0173 33.4185 29.8357 33.4185C45.6541 33.4185 58.478 26.3404 58.478 17.6093C58.478 8.87835 45.6541 1.80017 29.8357 1.80017C14.0173 1.80017 1.19341 8.87835 1.19341 17.6093Z" fill="url(#paint0_radial_202_930)"/>
</g>
<mask id="mask1_202_930" style="mask-type:luminance" maskUnits="userSpaceOnUse" x="0" y="0" width="60" height="36">
<path d="M0 0.000110626H59.6714V35.2188H0V0.000110626Z" fill="white"/>
</mask>
<g mask="url(#mask1_202_930)">
<path d="M29.8356 32.2449C45.0362 32.2449 57.3591 25.6925 57.3591 17.6096C57.3591 9.5267 45.0362 2.97419 29.8356 2.97419C14.6351 2.97419 2.31223 9.5267 2.31223 17.6095C2.31223 25.6925 14.6351 32.2451 29.8356 32.2451" fill="#777BB3"/>
</g>
<mask id="mask2_202_930" style="mask-type:luminance" maskUnits="userSpaceOnUse" x="0" y="0" width="60" height="36">
<path d="M0 0.000110626H59.6714V35.2188H0V0.000110626Z" fill="white"/>
</mask>
<g mask="url(#mask2_202_930)">
<path d="M16.7548 19.4237C18.0047 19.4237 18.9378 19.1818 19.5282 18.7052C20.1123 18.2332 20.5157 17.4157 20.7271 16.2753C20.9242 15.2094 20.8491 14.4651 20.504 14.0635C20.151 13.6533 19.3879 13.4452 18.2359 13.4452H16.2386L15.1312 19.4237H16.7548ZM10.2217 26.7881C10.1759 26.7881 10.1306 26.7775 10.0891 26.757C10.0477 26.7365 10.0111 26.7066 9.98191 26.6695C9.95275 26.6324 9.93179 26.5889 9.92052 26.5423C9.90926 26.4957 9.90796 26.447 9.91674 26.3998L12.8514 10.5569C12.8652 10.4825 12.9031 10.4156 12.9588 10.3674C13.0145 10.3193 13.0844 10.2929 13.1565 10.2929H19.4815C21.4693 10.2929 22.9488 10.8593 23.8788 11.9764C24.8138 13.0993 25.1025 14.6691 24.7369 16.6419C24.5881 17.4456 24.3322 18.192 23.9765 18.8604C23.6201 19.5294 23.1493 20.1485 22.5767 20.7007C21.8913 21.3737 21.1156 21.8617 20.2731 22.1489C19.4441 22.4323 18.3794 22.5761 17.1085 22.5761H14.5474L13.816 26.5242C13.8022 26.5985 13.7643 26.6654 13.7087 26.7136C13.653 26.7617 13.5831 26.7881 13.511 26.7881H10.2217Z" fill="white"/>
<path d="M16.4949 13.7715H18.2361C19.6264 13.7715 20.1094 14.0916 20.2735 14.2824C20.5458 14.5991 20.5972 15.267 20.4222 16.2137C20.2256 17.2735 19.8611 18.0249 19.3388 18.4469C18.804 18.8789 17.9347 19.0978 16.755 19.0978H15.5082L16.4949 13.7715ZM19.4815 9.96702H13.1566C13.0123 9.96701 12.8725 10.0197 12.7612 10.116C12.6499 10.2122 12.5739 10.3462 12.5464 10.4948L9.61194 26.3377C9.59447 26.4321 9.59711 26.5294 9.61968 26.6226C9.64225 26.7159 9.68419 26.8027 9.74249 26.8769C9.8008 26.9511 9.87402 27.0109 9.95693 27.0519C10.0398 27.093 10.1304 27.1142 10.222 27.1143H13.5112C13.6555 27.1143 13.7952 27.0616 13.9066 26.9654C14.0179 26.8691 14.0938 26.7352 14.1214 26.5866L14.8039 22.9023H17.1088C18.4122 22.9023 19.5095 22.7531 20.3699 22.4591C21.2546 22.1575 22.0688 21.646 22.7893 20.939C23.3852 20.3638 23.876 19.7181 24.2479 19.0197C24.6198 18.3211 24.8871 17.5421 25.0423 16.7042C25.4271 14.6276 25.1145 12.9647 24.113 11.7621C23.1215 10.571 21.5632 9.96702 19.4818 9.96702M14.7544 19.75H16.7551C18.0811 19.75 19.069 19.4879 19.718 18.9636C20.3672 18.4393 20.805 17.5641 21.0325 16.3378C21.25 15.1604 21.151 14.3295 20.7351 13.8453C20.3186 13.3614 19.4857 13.1192 18.2362 13.1192H15.9826L14.7544 19.75ZM19.4818 10.6191C21.3845 10.6191 22.7726 11.143 23.6451 12.1911C24.5174 13.239 24.7802 14.7019 24.4321 16.5799C24.2888 17.3535 24.0465 18.0608 23.7054 18.7016C23.3638 19.3428 22.9178 19.9291 22.3667 20.4608C21.7099 21.1057 20.9803 21.5651 20.1774 21.839C19.3745 22.1134 18.3519 22.2501 17.1088 22.2501H14.2914L13.5112 26.4622H10.222L13.1566 10.6192H19.4817" fill="white"/>
<path d="M32.2786 22.5762C32.1857 22.5762 32.0978 22.5327 32.0388 22.4575C32.0096 22.4204 31.9886 22.377 31.9773 22.3304C31.966 22.2838 31.9647 22.2351 31.9735 22.1879L33.2716 15.178C33.3951 14.5113 33.3647 14.0328 33.186 13.8306C33.0766 13.7071 32.7479 13.4998 31.7763 13.4998H29.4245L27.7923 22.3122C27.7786 22.3866 27.7406 22.4535 27.6849 22.5017C27.6293 22.5498 27.5594 22.5762 27.4872 22.5762H24.224C24.1781 22.5762 24.1328 22.5656 24.0913 22.5451C24.0499 22.5246 24.0132 22.4947 23.9841 22.4576C23.9549 22.4205 23.9339 22.377 23.9226 22.3304C23.9114 22.2838 23.9101 22.2351 23.9189 22.1879L26.8535 6.34495C26.8673 6.27064 26.9053 6.20366 26.9609 6.15551C27.0166 6.10736 27.0865 6.08102 27.1586 6.08102H30.4219C30.4677 6.08102 30.513 6.09166 30.5545 6.11217C30.5959 6.13269 30.6325 6.16257 30.6617 6.19968C30.6909 6.23679 30.7118 6.2802 30.7231 6.32682C30.7344 6.37343 30.7357 6.42209 30.727 6.4693L30.0188 10.2931H32.5488C34.4762 10.2931 35.7832 10.6497 36.5444 11.3832C37.3204 12.1315 37.5625 13.3279 37.2641 14.9398L35.8987 22.3122C35.885 22.3866 35.847 22.4535 35.7913 22.5017C35.7357 22.5498 35.6658 22.5762 35.5936 22.5762H32.2786Z" fill="white"/>
<path d="M30.4218 5.755H27.1586C27.0143 5.75499 26.8745 5.80764 26.7632 5.90393C26.6519 6.00021 26.5759 6.13414 26.5484 6.28273L23.6137 22.1257C23.5962 22.2201 23.5988 22.3175 23.6213 22.4107C23.6439 22.504 23.6858 22.5908 23.7442 22.6651C23.8025 22.7393 23.8757 22.7991 23.9587 22.8401C24.0416 22.8811 24.1322 22.9024 24.2239 22.9023H27.4872C27.6314 22.9024 27.7712 22.8497 27.8826 22.7534C27.9939 22.6571 28.0698 22.5232 28.0974 22.3746L29.6806 13.8259H31.7764C32.7462 13.8259 32.9498 14.0433 32.958 14.0527C33.0168 14.119 33.0942 14.4266 32.9665 15.1158L31.6684 22.1258C31.6509 22.2202 31.6535 22.3175 31.6761 22.4108C31.6986 22.504 31.7406 22.5909 31.7989 22.6651C31.8572 22.7393 31.9305 22.7991 32.0134 22.8401C32.0964 22.8811 32.1869 22.9024 32.2786 22.9023H35.5937C35.738 22.9024 35.8777 22.8497 35.9891 22.7534C36.1004 22.6571 36.1763 22.5232 36.2039 22.3746L37.569 15.0021C37.8895 13.2715 37.6154 11.9733 36.7548 11.1432C35.9334 10.3518 34.5576 9.9671 32.5488 9.9671H30.3956L31.032 6.53166C31.0495 6.43723 31.0469 6.33991 31.0243 6.24668C31.0017 6.15344 30.9598 6.06661 30.9014 5.99238C30.8431 5.91816 30.7699 5.85838 30.687 5.81734C30.6041 5.7763 30.5135 5.75501 30.4218 5.755ZM30.4218 6.40719L29.6418 10.6193H32.5488C34.378 10.6193 35.6397 10.9543 36.3342 11.6235C37.0285 12.2931 37.2365 13.3779 36.959 14.8777L35.5936 22.2501H32.2785L33.5767 15.2403C33.7244 14.4429 33.6701 13.899 33.4136 13.609C33.157 13.319 32.6111 13.1737 31.7763 13.1737H29.1682L27.4873 22.2501H24.224L27.1587 6.40719H30.4218Z" fill="white"/>
<path d="M42.4276 19.4237C43.6775 19.4237 44.6106 19.1818 45.2009 18.7052C45.785 18.2334 46.1884 17.4158 46.4 16.2753C46.5971 15.2094 46.522 14.4651 46.1767 14.0635C45.8238 13.6533 45.0607 13.4452 43.9087 13.4452H41.9113L40.8038 19.4237H42.4276ZM35.8946 26.7881C35.8488 26.7881 35.8035 26.7775 35.762 26.757C35.7206 26.7365 35.6839 26.7066 35.6548 26.6695C35.6256 26.6324 35.6046 26.5889 35.5934 26.5423C35.5821 26.4957 35.5808 26.447 35.5895 26.3998L38.5242 10.5569C38.538 10.4826 38.576 10.4156 38.6317 10.3674C38.6873 10.3193 38.7572 10.293 38.8294 10.2929H45.1542C47.1422 10.2929 48.6216 10.8593 49.5517 11.9764C50.4867 13.0992 50.7752 14.669 50.4098 16.6419C50.2608 17.4456 50.005 18.192 49.6492 18.8604C49.2928 19.5294 48.8221 20.1485 48.2495 20.7007C47.5641 21.3737 46.7884 21.8617 45.9459 22.1489C45.1168 22.4323 44.0521 22.5761 42.7813 22.5761H40.22L39.4889 26.5242C39.4751 26.5985 39.4371 26.6655 39.3814 26.7136C39.3258 26.7618 39.2558 26.7881 39.1837 26.7881H35.8946Z" fill="white"/>
<path d="M42.1676 13.7715H43.9088C45.2991 13.7715 45.7821 14.0916 45.9462 14.2824C46.2186 14.5991 46.2699 15.267 46.0948 16.2135C45.8982 17.2734 45.5337 18.0249 45.0114 18.4469C44.4767 18.8789 43.6073 19.0978 42.4277 19.0978H41.1811L42.1676 13.7715ZM45.1543 9.96702H38.8293C38.6851 9.96704 38.5453 10.0197 38.434 10.116C38.3227 10.2123 38.2468 10.3462 38.2193 10.4948L35.2847 26.3377C35.2672 26.4321 35.2699 26.5294 35.2924 26.6226C35.315 26.7159 35.3569 26.8027 35.4152 26.8769C35.4735 26.9511 35.5468 27.0109 35.6297 27.0519C35.7126 27.093 35.8031 27.1142 35.8948 27.1143H39.1839C39.3282 27.1143 39.468 27.0616 39.5793 26.9654C39.6906 26.8691 39.7666 26.7352 39.7941 26.5866L40.4765 22.9023H42.7815C44.0849 22.9023 45.1822 22.7531 46.0425 22.4591C46.9273 22.1575 47.7416 21.6459 48.4621 20.9388C49.058 20.3637 49.5486 19.7181 49.9205 19.0197C50.2926 18.3211 50.5598 17.5421 50.7149 16.7042C51.0998 14.6275 50.7871 12.9646 49.7858 11.762C48.7941 10.571 47.236 9.96702 45.1544 9.96702M40.4271 19.75H42.4277C43.7539 19.75 44.7417 19.4879 45.3907 18.9636C46.0399 18.4393 46.4776 17.5641 46.7051 16.3378C46.9229 15.1604 46.8237 14.3295 46.4078 13.8453C45.9914 13.3614 45.1584 13.1192 43.9089 13.1192H41.6552L40.4271 19.75ZM45.1544 10.6191C47.0571 10.6191 48.4452 11.143 49.3177 12.1911C50.1902 13.239 50.4528 14.7019 50.1047 16.5799C49.9615 17.3535 49.7192 18.0608 49.378 18.7016C49.0365 19.3428 48.5905 19.9291 48.0393 20.4608C47.3825 21.1057 46.6529 21.5651 45.85 21.839C45.0472 22.1134 44.0247 22.2501 42.7815 22.2501H39.964L39.1839 26.4622H35.8948L38.8294 10.6192L45.1544 10.6191Z" fill="white"/>
</g>
<defs>
<radialGradient id="paint0_radial_202_930" cx="0" cy="0" r="1" gradientUnits="userSpaceOnUse" gradientTransform="translate(18.3904 7.35819) scale(37.6114 39.4642)">
<stop stop-color="#AEB2D5"/>
<stop offset="0.3" stop-color="#AEB2D5"/>
<stop offset="0.75" stop-color="#484C89"/>
<stop offset="1" stop-color="#484C89"/>
</radialGradient>
</defs>
</svg>
