<svg width="32" height="30" viewBox="0 0 32 30" fill="none" xmlns="http://www.w3.org/2000/svg">
<path d="M31.571 14.7535C31.571 12.5591 28.9518 10.4794 24.9363 9.18972C25.863 4.89533 25.4511 1.47873 23.6364 0.384874C23.2181 0.128291 22.729 0.00675208 22.1949 0.00675208V1.51249C22.4909 1.51249 22.729 1.57326 22.9285 1.68805C23.8037 2.21472 24.1834 4.22011 23.8874 6.79945C23.8166 7.43415 23.7007 8.10262 23.5592 8.78459C22.2979 8.46049 20.9207 8.21065 19.4728 8.0486C18.6041 6.79945 17.7032 5.66508 16.7958 4.67251C18.8937 2.6266 20.8628 1.50574 22.2013 1.50574V0C20.4317 0 18.115 1.32343 15.7726 3.61917C13.4302 1.33693 11.1135 0.0270088 9.34387 0.0270088V1.53275C10.676 1.53275 12.6515 2.64686 14.7494 4.67926C13.8485 5.67183 12.9476 6.79945 12.0917 8.0486C10.6373 8.21065 9.26021 8.46048 7.99892 8.79134C7.85091 8.11612 7.74151 7.46116 7.66429 6.83321C7.36184 4.25387 7.73508 2.24848 8.60383 1.71505C8.79688 1.59352 9.04785 1.5395 9.34387 1.5395V0.0337609C8.80332 0.0337609 8.31424 0.1553 7.88952 0.411883C6.08124 1.50574 5.67582 4.91559 6.60892 9.19647C2.60624 10.4929 0 12.5658 0 14.7535C0 16.948 2.61911 19.0277 6.63466 20.3173C5.708 24.6117 6.11985 28.0283 7.93457 29.1222C8.35285 29.3787 8.84193 29.5003 9.38248 29.5003C11.1522 29.5003 13.4688 28.1769 15.8112 25.8811C18.1536 28.1634 20.4703 29.4733 22.24 29.4733C22.7805 29.4733 23.2696 29.3517 23.6943 29.0952C25.5026 28.0013 25.908 24.5914 24.9749 20.3106C28.9647 19.0209 31.571 16.9412 31.571 14.7535ZM23.1924 10.2498C22.9543 11.1208 22.6582 12.0189 22.3236 12.9169C22.0598 12.3767 21.7831 11.8366 21.4806 11.2964C21.1846 10.7562 20.8693 10.2296 20.5539 9.71639C21.4677 9.85819 22.3493 10.0337 23.1924 10.2498ZM20.2451 17.4409C19.7431 18.3524 19.2283 19.2167 18.6942 20.0202C17.7353 20.108 16.7636 20.1553 15.7855 20.1553C14.8138 20.1553 13.8421 20.108 12.8897 20.027C12.3555 19.2235 11.8343 18.3659 11.3323 17.4611C10.8433 16.5766 10.3992 15.6786 9.99382 14.7738C10.3928 13.869 10.8433 12.9642 11.3259 12.0797C11.8278 11.1681 12.3427 10.3038 12.8768 9.50032C13.8356 9.41254 14.8073 9.36528 15.7855 9.36528C16.7572 9.36528 17.7289 9.41254 18.6813 9.49357C19.2154 10.2971 19.7367 11.1546 20.2386 12.0594C20.7277 12.9439 21.1717 13.842 21.5771 14.7468C21.1717 15.6516 20.7277 16.5564 20.2451 17.4409ZM22.3236 16.5631C22.6711 17.4679 22.9671 18.3727 23.2117 19.2505C22.3687 19.4665 21.4806 19.6489 20.5604 19.7906C20.8757 19.2707 21.191 18.7373 21.487 18.1904C21.7831 17.6502 22.0598 17.1033 22.3236 16.5631ZM15.7983 23.7677C15.1999 23.1195 14.6014 22.397 14.0094 21.607C14.5885 21.634 15.1806 21.6543 15.779 21.6543C16.3839 21.6543 16.9824 21.6407 17.568 21.607C16.9889 22.397 16.3904 23.1195 15.7983 23.7677ZM11.0106 19.7906C10.0968 19.6489 9.21517 19.4733 8.37216 19.2572C8.61026 18.3862 8.90628 17.4882 9.24091 16.5901C9.50475 17.1303 9.78146 17.6705 10.0839 18.2106C10.3864 18.7508 10.6953 19.2775 11.0106 19.7906ZM15.7662 5.73936C16.3646 6.38756 16.9631 7.11005 17.5551 7.90005C16.976 7.87304 16.3839 7.85279 15.7855 7.85279C15.1806 7.85279 14.5821 7.86629 13.9965 7.90005C14.5757 7.11005 15.1741 6.38756 15.7662 5.73936ZM11.0041 9.71639C10.6888 10.2363 10.3735 10.7697 10.0775 11.3167C9.78146 11.8568 9.50475 12.397 9.24091 12.9372C8.89341 12.0324 8.59739 11.1276 8.35285 10.2498C9.19586 10.0405 10.0839 9.85819 11.0041 9.71639ZM5.18031 18.1701C2.90226 17.1505 1.42861 15.8136 1.42861 14.7535C1.42861 13.6934 2.90226 12.3497 5.18031 11.3369C5.73374 11.0871 6.33864 10.8643 6.96286 10.6549C7.32966 11.9784 7.8123 13.3558 8.41077 14.767C7.81873 16.1715 7.34253 17.5422 6.98216 18.8588C6.34508 18.6495 5.74017 18.42 5.18031 18.1701ZM8.64244 27.819C7.76725 27.2923 7.38758 25.2869 7.6836 22.7076C7.75438 22.0729 7.87022 21.4044 8.01179 20.7224C9.27308 21.0466 10.6502 21.2964 12.0981 21.4584C12.9669 22.7076 13.8678 23.842 14.7752 24.8345C12.6773 26.8804 10.7081 28.0013 9.36961 28.0013C9.08003 27.9945 8.83549 27.9338 8.64244 27.819ZM23.9067 22.6738C24.2091 25.2532 23.8359 27.2586 22.9671 27.792C22.7741 27.9135 22.5231 27.9675 22.2271 27.9675C20.895 27.9675 18.9194 26.8534 16.8215 24.821C17.7225 23.8285 18.6234 22.7008 19.4793 21.4517C20.9336 21.2896 22.3107 21.0398 23.572 20.7089C23.72 21.3909 23.8359 22.0459 23.9067 22.6738ZM26.3842 18.1701C25.8308 18.42 25.2259 18.6428 24.6017 18.8521C24.2349 17.5287 23.7522 16.1512 23.1537 14.74C23.7458 13.3356 24.222 11.9649 24.5824 10.6482C25.2194 10.8575 25.8243 11.0871 26.3906 11.3369C28.6687 12.3565 30.1423 13.6934 30.1423 14.7535C30.1359 15.8136 28.6623 17.1573 26.3842 18.1701Z" fill="#61DAFB"/>
<path d="M15.779 17.8395C17.4032 17.8395 18.7199 16.4579 18.7199 14.7537C18.7199 13.0495 17.4032 11.668 15.779 11.668C14.1548 11.668 12.8381 13.0495 12.8381 14.7537C12.8381 16.4579 14.1548 17.8395 15.779 17.8395Z" fill="#61DAFB"/>
</svg>
