<svg width="74" height="22" viewBox="0 0 74 22" fill="none" xmlns="http://www.w3.org/2000/svg">
<path d="M15.7521 4.16969C15.7401 4.05666 15.6443 4.00642 15.5725 4.00642C15.5007 4.00642 13.9327 3.88082 13.9327 3.88082C13.9327 3.88082 12.8434 2.73793 12.7118 2.62489C12.5921 2.4993 12.3647 2.53698 12.2689 2.5621C12.2569 2.5621 12.0295 2.63745 11.6584 2.76305C11.2874 1.64527 10.653 0.627965 9.51588 0.627965H9.40815C9.09694 0.200949 8.68997 0 8.35482 0C5.7215 0 4.45271 3.45381 4.05771 5.21211C3.02832 5.55121 2.29817 5.77728 2.21439 5.81496C1.63984 6.00335 1.62787 6.01591 1.55606 6.58108C1.49621 7.00809 0 19.1529 0 19.1529L11.6465 21.4387L17.9665 20.007C17.9784 19.9819 15.764 4.28272 15.7521 4.16969ZM11.0121 2.93888C10.7248 3.02679 10.3777 3.13983 10.0306 3.26542V3.03935C10.0306 2.36115 9.94678 1.80854 9.79118 1.36896C10.3897 1.44432 10.7607 2.13508 11.0121 2.93888ZM9.06103 1.50712C9.21663 1.93413 9.32436 2.53698 9.32436 3.36589V3.49149C8.678 3.70499 7.99573 3.9185 7.28952 4.15713C7.68452 2.57466 8.43861 1.79598 9.06103 1.50712ZM8.29497 0.72844C8.41467 0.72844 8.53436 0.778677 8.63012 0.854033C7.78028 1.26849 6.88255 2.31091 6.51149 4.42088C5.94892 4.60926 5.41028 4.77254 4.89559 4.94837C5.3265 3.34078 6.40377 0.72844 8.29497 0.72844Z" fill="#95BF47"/>
<path d="M15.5726 3.98129C15.5008 3.98129 13.9327 3.8557 13.9327 3.8557C13.9327 3.8557 12.8435 2.7128 12.7118 2.59977C12.6639 2.54953 12.6041 2.52441 12.5562 2.52441L11.6824 21.4387L18.0024 20.007C18.0024 20.007 15.788 4.28272 15.7761 4.16968C15.7282 4.05665 15.6444 4.00641 15.5726 3.98129Z" fill="#5E8E3E"/>
<path d="M9.51594 7.64832L8.74988 10.0723C8.74988 10.0723 8.05564 9.68293 7.22974 9.68293C5.99686 9.68293 5.93701 10.4993 5.93701 10.7002C5.93701 11.8054 8.69003 12.2325 8.69003 14.8322C8.69003 16.8794 7.45716 18.1981 5.79338 18.1981C3.78247 18.1981 2.77702 16.892 2.77702 16.892L3.31566 15.0332C3.31566 15.0332 4.36899 15.9877 5.25474 15.9877C5.84126 15.9877 6.08065 15.5104 6.08065 15.1588C6.08065 13.7145 3.83035 13.6517 3.83035 11.2654C3.83035 9.26847 5.19489 7.33434 7.95988 7.33434C8.98927 7.32178 9.51594 7.64832 9.51594 7.64832Z" fill="white"/>
<path d="M25.3398 12.2075C24.7054 11.8558 24.3822 11.5419 24.3822 11.1274C24.3822 10.5999 24.837 10.2608 25.5432 10.2608C26.3691 10.2608 27.0993 10.6125 27.0993 10.6125L27.6738 8.76625C27.6738 8.76625 27.1472 8.33923 25.5911 8.33923C23.4246 8.33923 21.9164 9.6454 21.9164 11.4791C21.9164 12.5215 22.6226 13.3127 23.5563 13.8779C24.3223 14.3175 24.5857 14.644 24.5857 15.1213C24.5857 15.6111 24.2026 16.013 23.4964 16.013C22.4551 16.013 21.4616 15.4478 21.4616 15.4478L20.8511 17.294C20.8511 17.294 21.7608 17.9345 23.2929 17.9345C25.5193 17.9345 27.1352 16.7791 27.1352 14.7068C27.1113 13.5765 26.3093 12.7978 25.3398 12.2075ZM34.2212 8.31411C33.12 8.31411 32.2582 8.86672 31.5999 9.69564L31.5759 9.68308L32.5335 4.45841H30.0558L27.6379 17.7713H30.1157L30.9416 13.2248C31.2647 11.5042 32.1146 10.4366 32.9046 10.4366C33.4672 10.4366 33.6826 10.8385 33.6826 11.4037C33.6826 11.7554 33.6587 12.2075 33.5749 12.5592L32.6412 17.7713H35.119L36.0885 12.3959C36.1962 11.8307 36.2681 11.1525 36.2681 10.6878C36.2561 9.19327 35.5259 8.31411 34.2212 8.31411ZM41.8699 8.31411C38.8774 8.31411 36.9024 11.14 36.9024 14.2923C36.9024 16.3018 38.0874 17.9345 40.3138 17.9345C43.2464 17.9345 45.2214 15.1841 45.2214 11.9563C45.2333 10.085 44.2039 8.31411 41.8699 8.31411ZM40.6489 15.9502C39.7991 15.9502 39.452 15.1966 39.452 14.2421C39.452 12.7475 40.1821 10.3236 41.5347 10.3236C42.4085 10.3236 42.7077 11.1274 42.7077 11.8935C42.7077 13.4885 41.9536 15.9502 40.6489 15.9502ZM51.5772 8.31411C49.9015 8.31411 48.9559 9.87147 48.9559 9.87147H48.9319L49.0756 8.47739H46.8732C46.7654 9.41933 46.562 10.8637 46.3704 11.9312L44.6588 21.4637H47.1365L47.8307 17.608H47.8906C47.8906 17.608 48.4053 17.9471 49.3389 17.9471C52.2595 17.9471 54.1627 14.8073 54.1627 11.6423C54.1507 9.88403 53.3966 8.31411 51.5772 8.31411ZM49.2073 15.9753C48.5609 15.9753 48.1779 15.586 48.1779 15.586L48.5848 13.162C48.8721 11.5293 49.686 10.4618 50.5478 10.4618C51.3139 10.4618 51.5413 11.2028 51.5413 11.8935C51.5533 13.5765 50.5957 15.9753 49.2073 15.9753ZM57.6937 4.584C56.9037 4.584 56.2693 5.24965 56.2693 6.09112C56.2693 6.85724 56.7362 7.39729 57.4424 7.39729H57.4663C58.2443 7.39729 58.9027 6.84468 58.9146 5.89017C58.9266 5.12405 58.4359 4.584 57.6937 4.584ZM54.2225 17.7587H56.7003L58.376 8.51506H55.8863M64.696 8.5025H62.9724L63.0561 8.07549C63.1998 7.18378 63.7025 6.4051 64.5404 6.4051C64.9833 6.4051 65.3304 6.54325 65.3304 6.54325L65.8092 4.49609C65.8092 4.49609 65.3902 4.27002 64.4566 4.27002C63.5828 4.27002 62.6971 4.53377 62.0268 5.13661C61.1769 5.89017 60.7819 6.98283 60.5904 8.08805L60.5186 8.51506H59.3575L58.9865 10.4869H60.1475L58.8309 17.7713H61.3086L62.6252 10.4869H64.3369L64.696 8.5025ZM70.6688 8.51506C70.6688 8.51506 69.1128 12.622 68.4305 14.8701H68.4066C68.3587 14.1416 67.7961 8.51506 67.7961 8.51506H65.1867L66.6829 16.98C66.7069 17.1684 66.6949 17.2815 66.6231 17.4071C66.3358 17.9973 65.8451 18.5625 65.2705 18.977C64.8037 19.3286 64.277 19.5672 63.8581 19.718L64.5523 21.9284C65.0551 21.8154 66.1084 21.3758 66.9822 20.5092C68.1073 19.404 69.1607 17.6834 70.2379 15.3473L73.2663 8.5025H70.6688V8.51506Z" fill="white"/>
</svg>
