<svg width="78" height="20" viewBox="0 0 78 20" fill="none" xmlns="http://www.w3.org/2000/svg">
<path d="M9.60034 1.77339H5.60918V14.714H3.99115V1.77339H0V0.226562H9.56438V1.77339H9.60034Z" fill="white"/>
<path d="M17.259 4.3764L12.7285 16.3738C11.9015 18.5242 10.7869 19.5806 9.31266 19.5806C8.91714 19.5806 8.55758 19.5429 8.26993 19.4674V17.9961C8.59353 18.1092 8.91714 18.1847 9.20479 18.1847C9.99583 18.1847 10.6071 17.6942 11.0026 16.6756L11.7936 14.7138L7.94632 4.3764H9.70818L12.3689 12.3369C12.4049 12.4501 12.4768 12.7142 12.5847 13.1292H12.6566C12.6926 12.9783 12.7645 12.7142 12.8364 12.3746L15.641 4.3764H17.259ZM19.9198 13.2424H19.8838V19.5052H18.3017V4.41413H19.8838V6.22505H19.9198C20.7108 4.86686 21.8255 4.15003 23.3356 4.15003C24.5941 4.15003 25.6009 4.60277 26.32 5.54595C27.0391 6.48914 27.3987 7.69643 27.3987 9.28099C27.3987 11.0165 27.0032 12.4124 26.2121 13.431C25.4211 14.4497 24.3064 14.9779 22.9041 14.9779C21.6097 14.9779 20.6389 14.4119 19.9198 13.2424ZM19.8838 9.05462V10.4883C19.8838 11.356 20.1355 12.0728 20.6749 12.6765C21.2142 13.2801 21.8614 13.5819 22.6884 13.5819C23.6592 13.5819 24.3784 13.2047 24.9537 12.4124C25.529 11.6201 25.7806 10.5637 25.7806 9.20553C25.7806 8.03597 25.529 7.16824 25.0256 6.48914C24.5222 5.84778 23.839 5.50823 22.9761 5.50823C22.0412 5.50823 21.3221 5.84777 20.7468 6.52687C20.1715 7.20597 19.8838 8.03598 19.8838 9.05462ZM37.1428 9.96008H30.1673C30.2033 11.1296 30.4909 11.9974 31.0662 12.6387C31.6415 13.2801 32.3966 13.5819 33.4034 13.5819C34.518 13.5819 35.5248 13.2047 36.4597 12.4124V13.9592C35.5967 14.6383 34.4461 14.9401 33.0079 14.9401C31.6056 14.9401 30.5269 14.4874 29.7358 13.5442C28.9448 12.601 28.5493 11.2805 28.5493 9.58281C28.5493 7.96052 28.9808 6.67778 29.8437 5.65914C30.7067 4.64049 31.7854 4.15003 33.0798 4.15003C34.3742 4.15003 35.381 4.60277 36.0642 5.4705C36.7833 6.33823 37.1069 7.54552 37.1069 9.13008V9.96008H37.1428ZM35.5248 8.56416C35.5248 7.62097 35.3091 6.86642 34.8776 6.33823C34.4461 5.81005 33.8349 5.54595 33.0798 5.54595C32.3247 5.54595 31.7134 5.81005 31.1741 6.37596C30.6707 6.94187 30.3471 7.6587 30.2033 8.56416H35.5248ZM38.0058 14.2233V13.0915C39.0126 13.7706 39.9834 14.0724 41.0261 14.0724C42.1048 14.0724 42.9318 13.846 43.4711 13.3556C44.0465 12.9028 44.2981 12.2237 44.2981 11.3937C44.2981 10.6392 44.1184 10.0733 43.7228 9.62053C43.3633 9.1678 42.5363 8.56416 41.2778 7.80961C39.8755 6.94188 38.9766 6.22505 38.617 5.65914C38.2575 5.09322 38.0417 4.41413 38.0417 3.65958C38.0417 2.64093 38.4373 1.7732 39.1923 1.05637C39.9474 0.339548 40.9542 0 42.2127 0C43.0397 0 43.8667 0.15091 44.6937 0.452731V1.5091C43.8667 1.13183 43.0037 0.94319 42.1048 0.94319C41.1699 0.94319 40.4149 1.20728 39.8755 1.69774C39.3362 2.1882 39.0485 2.82957 39.0485 3.58412C39.0485 4.33867 39.2283 4.90459 39.6238 5.35732C39.9834 5.81005 40.8104 6.37596 42.0689 7.13051C43.3633 7.88506 44.2262 8.56416 44.6577 9.1678C45.0892 9.77144 45.3049 10.4505 45.3049 11.2428C45.3049 12.3369 44.9454 13.2424 44.1903 13.9592C43.4711 14.676 42.4284 15.0156 41.0621 15.0156C40.5946 15.0156 40.0553 14.9401 39.4081 14.7892C38.8328 14.6006 38.3654 14.4119 38.0058 14.2233ZM53.6468 14.261C52.9277 14.7138 52.0287 14.9779 51.022 14.9779C49.6916 14.9779 48.6129 14.4874 47.7859 13.5442C46.9589 12.5633 46.5634 11.3183 46.5634 9.73372C46.5634 8.0737 47.0308 6.75324 47.9657 5.69687C48.9006 4.64049 50.0871 4.11231 51.5254 4.11231C52.2804 4.11231 52.9996 4.26322 53.7187 4.60277V5.65914C52.9996 5.20641 52.2445 4.98004 51.3815 4.98004C50.2309 4.98004 49.2961 5.43277 48.5769 6.30051C47.8578 7.16824 47.4983 8.30007 47.4983 9.69599C47.4983 11.0542 47.8219 12.1106 48.4691 12.9406C49.1163 13.7706 49.9792 14.1478 51.0579 14.1478C52.0288 14.1478 52.8917 13.8837 53.6468 13.3178V14.261ZM59.6155 5.35732C59.3279 5.13095 58.9683 5.01777 58.5728 5.01777C57.7818 5.01777 57.1345 5.43277 56.6312 6.26278C56.0918 7.09279 55.8401 8.30007 55.8401 9.8469V14.7138H54.9772V4.3764H55.8401V6.67778H55.8761C56.0918 5.8855 56.4514 5.28186 56.9548 4.82913C57.4581 4.3764 57.9975 4.18776 58.6447 4.18776C59.0043 4.18776 59.3279 4.26322 59.6155 4.3764V5.35732ZM61.1257 1.7732C60.9459 1.7732 60.7661 1.69774 60.6223 1.54683C60.4785 1.39592 60.4066 1.20728 60.4066 0.980917C60.4066 0.754552 60.4785 0.565914 60.6223 0.452731C60.7661 0.301821 60.9459 0.264093 61.1257 0.264093C61.3414 0.264093 61.4853 0.339548 61.665 0.452731C61.8089 0.603641 61.8808 0.754552 61.8808 0.980917C61.8808 1.20728 61.8089 1.39592 61.665 1.54683C61.4853 1.69774 61.3414 1.7732 61.1257 1.7732ZM60.6942 14.7515V4.41413H61.5931V14.7515H60.6942ZM64.6854 12.9028H64.6494V19.5052H63.7505V4.41413H64.6494V6.5646H64.6854C65.0449 5.81005 65.5483 5.20641 66.1955 4.7914C66.8427 4.3764 67.5619 4.18776 68.3529 4.18776C69.6114 4.18776 70.5822 4.64049 71.3013 5.54595C72.0205 6.45142 72.3441 7.69643 72.3441 9.24326C72.3441 10.9787 71.9485 12.3746 71.1215 13.431C70.3305 14.4874 69.2518 15.0156 67.9214 15.0156C66.4832 14.9778 65.4045 14.2988 64.6854 12.9028ZM64.6494 9.05462V10.3751C64.6494 11.4315 64.973 12.2992 65.5843 13.0537C66.1955 13.8083 67.0225 14.1856 68.0293 14.1856C69.0361 14.1856 69.8631 13.7328 70.4743 12.8274C71.0856 11.9219 71.4092 10.7146 71.4092 9.24326C71.4092 7.96052 71.1215 6.90415 70.5462 6.1496C69.9709 5.39504 69.1799 5.01777 68.245 5.01777C67.0944 5.01777 66.1955 5.43277 65.5843 6.22505C64.973 7.01733 64.6494 7.96052 64.6494 9.05462ZM77.8454 14.6006C77.3779 14.8269 76.9465 14.9401 76.5509 14.9401C75.0767 14.9401 74.3576 14.0347 74.3576 12.186V5.24413H72.5957V4.3764H74.3576V1.69774C74.5014 1.66001 74.6453 1.58456 74.7891 1.54683C74.9329 1.5091 75.0767 1.43365 75.2206 1.39592V4.41413H77.8094V5.28186H75.2206V12.1106C75.2206 12.8274 75.3284 13.3556 75.5442 13.6574C75.7599 13.9592 76.1195 14.1478 76.6229 14.1478C76.9824 14.1478 77.3779 14.0347 77.8094 13.7706V14.6006H77.8454Z" fill="white"/>
</svg>
